<svg xmlns="http://www.w3.org/2000/svg" width="101.895" height="103.763" viewBox="0 0 101.895 103.763">
  <g id="Adelaide_36ers" data-name="Adelaide 36ers" transform="translate(50.947 51.882)">
    <g id="Adelaide_36ers-2" data-name="Adelaide 36ers" transform="translate(-50.947 -51.882)">
      <path id="Path_1" data-name="Path 1" d="M101.87,19.388l-4.044-4.332L84.937,12.167l-3.61,2.238L80.1,13.214V6.463L76.85,2.455l-.433-.072A175.869,175.869,0,0,0,50.927,0C40.1,0,25.618,2.383,25.474,2.383L25,2.455,21.755,6.463v6.679l-1.3,1.264-3.61-2.238L4.028,15.055-.016,19.388V43.361a4.013,4.013,0,0,0,2.238,4.116c2.311,1.408,7.943,4.838,8.015,4.874l.542.325.578-.253c6.463-2.888,14.55-4.766,22.348-5.849a26.789,26.789,0,0,0-1.516,5.235l-1.336-2.275s-4.441,14.767.181,22.2c.9,1.444,1.986,2.708,5.38,6.354L42.7,84.917c3.358,3.719,4.91,7.437,6.86,14.008.4,1.336,1.336,4.838,1.336,4.838s.975-3.466,1.336-4.838c1.7-6.427,3.466-10.326,6.86-14.008L64.5,79.068a63.711,63.711,0,0,0,6.246-7.293c4.4-6.643.181-22.168.181-22.168l-1.336,2.275a18.161,18.161,0,0,0-1.408-5.343c9.856,1.372,17.872,3.719,22.926,5.993l.614.289,7.907-5.2a4.571,4.571,0,0,0,2.2-4.477Z" transform="translate(0.025 0)" fill="#95896a"/>
      <path id="Path_2" data-name="Path 2" d="M102.83,22.066,99.4,18.347,87.378,15.639l-3.971,2.455-2.347-2.2V9.068L78.388,5.783A173.393,173.393,0,0,0,53.115,3.4c-10.867,0-25.273,2.383-25.273,2.383L25.135,9.068V15.82l-2.347,2.275L18.78,15.639,6.866,18.311,3.4,22.066V45.208c0,1.372.036,2.491,1.625,3.43l8.015,4.838c5.416-2.419,14.8-5.163,26.536-6.463a25.309,25.309,0,0,0-1.3,3.069c-.325-.722-.722-1.625-.722-1.625-2.527,5.885-1.805,9.568-1.805,9.568a10.92,10.92,0,0,1-2.058-2.563c-1.552,7.618-1.228,14.333.758,17.763,1.155,1.986,3.033,3.647,11.481,12.925a30.913,30.913,0,0,1,7.185,15.091A30.913,30.913,0,0,1,60.3,86.15c8.3-9.026,10.326-10.94,11.481-12.925,1.986-3.394,2.311-10.145.758-17.763a10.92,10.92,0,0,1-2.058,2.563s.722-3.683-1.805-9.568c0,0-.433.866-.722,1.625a25.235,25.235,0,0,0-1.372-3.141c12.095,1.264,21.735,4.08,27.259,6.535l7.329-4.838a3.392,3.392,0,0,0,1.625-3.43h0Z" transform="translate(-2.164 -2.172)" fill="#07061b"/>
      <path id="Path_3" data-name="Path 3" d="M129.864,195.338a4.188,4.188,0,0,1-1.625-1.191,15.05,15.05,0,0,1,1.625,3.249,69.608,69.608,0,0,0-3.971,16.788V190.5c-.505,1.047-2.166,4.224-3.971,4.838a15.344,15.344,0,0,1-4.621.686,47.873,47.873,0,0,1,4.621,8.123,45.159,45.159,0,0,1,3.971,14.153,46.432,46.432,0,0,1,3.971-14.153,47.947,47.947,0,0,1,4.621-8.123A15.344,15.344,0,0,1,129.864,195.338Z" transform="translate(-74.941 -121.722)" fill="#95896a"/>
      <g id="Group_1" data-name="Group 1" transform="translate(38.243 64.446)">
        <path id="Path_4" data-name="Path 4" d="M166.552,178.5a10.868,10.868,0,0,0-2.311,1.589,7.011,7.011,0,0,1,.217.794l-.181.072c-.4.253-.794.758-.65.975s.578.144.939,0a1.877,1.877,0,0,1-.433,1.408,1.622,1.622,0,0,1-2.383-.144,5.884,5.884,0,0,0-.65,1.372,3.58,3.58,0,0,0,3.466-.4c1.336-1.083.83-4.044.83-4.044A7.365,7.365,0,0,1,166.552,178.5Z" transform="translate(-141.171 -178.5)" fill="#fe110d"/>
        <path id="Path_5" data-name="Path 5" d="M108.319,183.338a1.877,1.877,0,0,1-.433-1.408c.361.144.794.181.939,0s-.217-.758-.65-.975l-.181-.072a7.219,7.219,0,0,1,.217-.794A10.867,10.867,0,0,0,105.9,178.5a7.365,7.365,0,0,1,1.119,1.589s-.758,2.744.83,4.044a3.018,3.018,0,0,0,3.466.4,5.921,5.921,0,0,0-.65-1.372A1.551,1.551,0,0,1,108.319,183.338Z" transform="translate(-105.9 -178.5)" fill="#fe110d"/>
      </g>
      <g id="Group_2" data-name="Group 2" transform="translate(32.322 42.783)">
        <path id="Path_6" data-name="Path 6" d="M102.587,181.1a4.639,4.639,0,0,0,.65,4.4,3.3,3.3,0,0,0,3.574,1.372,3.578,3.578,0,0,1-3.069-4.549A14.171,14.171,0,0,1,102.587,181.1Z" transform="translate(-97.677 -158.499)" fill="#fff"/>
        <path id="Path_7" data-name="Path 7" d="M167.4,186.977a4.223,4.223,0,0,0,3.574-1.372c1.336-1.661.65-4.4.65-4.4l-1.155,1.264A3.559,3.559,0,0,1,167.4,186.977Z" transform="translate(-139.275 -158.563)" fill="#fff"/>
        <path id="Path_8" data-name="Path 8" d="M162.357,138.927a33.433,33.433,0,0,0,2.275-12.023c-.578-3.827-3.574-8.3-3.574-8.3,1.914,11.409-.217,17.908-.217,17.908a10.975,10.975,0,0,0-1.552,1.661c.072-1.191.253-2.275.253-2.275-3.9,4.224-3.466,11.987-3.466,11.987A15.067,15.067,0,0,1,162.357,138.927Z" transform="translate(-132.029 -118.564)" fill="#fff"/>
        <path id="Path_9" data-name="Path 9" d="M172.287,154.438a16.138,16.138,0,0,1-2.672,2.383,36.394,36.394,0,0,0,.325-4.621,29.434,29.434,0,0,1-2.455,7.726c1.552-.686,3.177-1.516,3.177-1.516,1.48,8.918-3.033,11.77-5.38,14.767A37.73,37.73,0,0,0,161.6,179.1s2.924-3.61,4.008-4.73c1.7-1.805,4.91-4.621,6.318-7.726C173.839,162.345,172.287,154.438,172.287,154.438Z" transform="translate(-135.569 -140.033)" fill="#fff"/>
        <path id="Path_10" data-name="Path 10" d="M91.7,158.41s1.625.83,3.177,1.516a27.836,27.836,0,0,1-2.455-7.726,36.356,36.356,0,0,0,.325,4.621,16.138,16.138,0,0,1-2.672-2.383s-1.552,7.907.433,12.239c1.408,3.069,4.585,5.885,6.318,7.726,1.047,1.119,4.008,4.73,4.008,4.73a37.729,37.729,0,0,0-3.683-5.921C94.7,170.18,90.186,167.328,91.7,158.41Z" transform="translate(-89.5 -140.033)" fill="#fff"/>
        <path id="Path_11" data-name="Path 11" d="M107.643,138.068a10.976,10.976,0,0,0-1.552-1.661s-2.13-6.5-.217-17.908c0,0-3,4.513-3.574,8.3a33.432,33.432,0,0,0,2.275,12.023,14.936,14.936,0,0,1,6.246,8.954s.433-7.8-3.466-11.987A22.746,22.746,0,0,1,107.643,138.068Z" transform="translate(-97.679 -118.5)" fill="#fff"/>
      </g>
      <g id="Group_3" data-name="Group 3" transform="translate(25.571 3.213)">
        <path id="Path_12" data-name="Path 12" d="M73,13.617l-2.2,6.463,1.589-.289.433-1.372,1.914-.289.433,1.228,1.589-.217L74.519,13.4Zm.108,3.755.65-2.13.65,1.95Z" transform="translate(-70.8 -11.775)" fill="#fff"/>
        <path id="Path_13" data-name="Path 13" d="M92.6,11.033V17.1l3.971-.433.758-.578V11.033l-.758-.433Zm3.141,4.585-.181.144-1.408.144v-4.08l1.408-.144.181.108Z" transform="translate(-84.729 -9.986)" fill="#fff"/>
        <path id="Path_14" data-name="Path 14" d="M112.1,15.482l4.513-.253v-.975l-2.924.144V12.774l2.166-.108v-.975l-2.166.108v-1.48l2.924-.144V9.2l-4.513.253Z" transform="translate(-97.189 -9.092)" fill="#fff"/>
        <path id="Path_15" data-name="Path 15" d="M132.089,13.955V8.9H130.5v6.065l4.332-.072v-.975Z" transform="translate(-108.946 -8.9)" fill="#fff"/>
        <path id="Path_16" data-name="Path 16" d="M149.038,9,146.8,14.993h1.625l.433-1.3,1.914.072L151.2,15.1l1.625.072-2.238-6.138Zm.108,3.755.65-2.022.65,2.058Z" transform="translate(-119.361 -8.964)" fill="#fff"/>
        <path id="Path_17" data-name="Path 17" d="M168.8,15.765l1.552.108V9.808L168.8,9.7Z" transform="translate(-133.418 -9.411)" fill="#fff"/>
        <path id="Path_18" data-name="Path 18" d="M183.471,11.033,179.5,10.6v6.065l3.971.433.758-.4V11.647Zm-.83,4.838-.181.108-1.408-.144V11.719l1.408.144.181.144Z" transform="translate(-140.255 -9.986)" fill="#fff"/>
        <path id="Path_19" data-name="Path 19" d="M203.477,14.7V13.686L199,13v6.065l4.441.722V18.777l-2.888-.469V16.683l2.166.361v-.975l-2.166-.361V14.191Z" transform="translate(-152.715 -11.52)" fill="#fff"/>
      </g>
      <g id="Group_4" data-name="Group 4" transform="translate(7.374 40.364)">
        <path id="Path_20" data-name="Path 20" d="M52.388,111.9s-11.987.289-28.269,5.127l-3.719-.9,3.683,2.311a110.891,110.891,0,0,1,27.764-5.6Z" transform="translate(-20.4 -111.864)" fill="#fe110d"/>
        <path id="Path_21" data-name="Path 21" d="M201.469,116.927C185.187,112.089,173.2,111.8,173.2,111.8l.614.9a109.072,109.072,0,0,1,27.764,5.6l3.683-2.311Z" transform="translate(-118.033 -111.8)" fill="#fe110d"/>
      </g>
      <g id="Group_5" data-name="Group 5" transform="translate(3.186 11.923)">
        <path id="Path_22" data-name="Path 22" d="M11.327,44.683,8.8,47.427V52.77l5.127-1.3V48.654l.614-.65,3.971-.9.614.361v5.343l-.614.614L13.927,54.5v4.08l4.621-1.047.614.361v5.632l-.614.614-3.971.9-.614-.361V61.868L8.8,63.24v5.38l2.527,1.408q5.235-1.336,10.542-2.383l2.563-2.563v-8.7L21.87,54.792l2.563-2.563V43.852L21.87,42.3Q16.562,43.311,11.327,44.683Z" transform="translate(-8.8 -38.951)" fill="#95896a" fill-rule="evenodd"/>
        <path id="Path_23" data-name="Path 23" d="M65.963,35.891,63.4,38.347V59.54l2.563,1.7q5.307-.758,10.651-1.191l2.6-2.275V47.048l-2.6-1.877q-4.008.325-7.979.83V40.152l.578-.578,4.152-.433.614.433v2.672l5.235-.433V36.577l-2.6-1.877Q71.271,35.133,65.963,35.891Zm3.249,14.153,4.152-.469.614.433V55.64l-.614.578-4.152.433-.578-.433V50.586Z" transform="translate(-43.687 -34.095)" fill="#95896a" fill-rule="evenodd"/>
        <path id="Path_24" data-name="Path 24" d="M189.783,37.927l-2.563-2.419c-4.549-.614-9.134-1.083-13.72-1.408V59.445l5.307.433V50.022l3.177.325,2.6,10.181,5.2.722L187.22,51l2.563-1.7ZM183.9,46.448l-5.091-.542V38.685l5.091.542.578.542V46.05Z" transform="translate(-114.037 -33.712)" fill="#95896a" fill-rule="evenodd"/>
        <path id="Path_25" data-name="Path 25" d="M245.605,52.562V47.327l-2.527-2.744q-5.271-1.372-10.615-2.383L229.9,43.789V54.15l2.563,2.563q3.646.722,7.293,1.589l.614.65v5.741l-.614.361-3.971-.9-.614-.614V60.83l-5.235-1.011v5.235l2.563,2.563q5.343,1.047,10.615,2.383l2.527-1.408V57.8l-2.527-2.744q-3.647-.939-7.293-1.733l-.614-.614V47.435l.614-.361,3.971.9.614.65V51.3Z" transform="translate(-150.074 -38.887)" fill="#95896a" fill-rule="evenodd"/>
        <path id="Path_26" data-name="Path 26" d="M119.7,33.16V58.253a9.231,9.231,0,0,1,7.8,6.5s1.516-5.7,7.437-6.5v-4.08q-4.946-.217-9.929-.144V47.385c2.961-.036,4.441-.036,7.365.036V43.378c-2.961-.072-4.441-.072-7.365-.036V37.06q4.982-.072,9.929.144V33.16C129.881,32.98,124.791,32.98,119.7,33.16Z" transform="translate(-79.661 -33.025)" fill="#95896a" fill-rule="evenodd"/>
      </g>
    </g>
  </g>
</svg>
