<svg id="Layer_1" data-name="Layer 1" xmlns="http://www.w3.org/2000/svg" xmlns:xlink="http://www.w3.org/1999/xlink" viewBox="0 0 100 79"><defs><style>.cls-1{fill:none;}.cls-2{clip-path:url(#clip-path);}.cls-3{fill:#fff;}</style><clipPath id="clip-path"><rect class="cls-1" width="99.87" height="79"/></clipPath></defs><g id="Bullets_Primary_Logo_White" data-name="Bullets Primary Logo_White"><g class="cls-2"><g class="cls-2"><path class="cls-3" d="M99.87,18.13H80V14.78L83,9H28.12L12.57,0l4.75,5.87L7.08.47,19.31,18.13H0l6.94,9.63V49.68l5-1c2.59-.53,5.23-1,7.84-1.45.54-.07,12.33-1.66,18.2-2.11L54.91,69.53c.27.42.55.83.85,1.23l1.12,1.37A20.62,20.62,0,0,0,91,49.78c-.27-.59-.56-1.16-.88-1.71a5.75,5.75,0,0,0,2.62-1.21A7,7,0,0,0,95,41.19V33.84a6.69,6.69,0,0,0-1.28-4.18ZM93.63,41.19a5.62,5.62,0,0,1-1.76,4.62,4.82,4.82,0,0,1-3.16,1,8.34,8.34,0,0,1-1.08-.08,20,20,0,0,1,2.13,3.58,19.25,19.25,0,0,1-9.47,25.54,19.44,19.44,0,0,1-8,1.76A19.27,19.27,0,0,1,56.86,70h0q-.44-.57-.81-1.17L38.66,43.68l-.66,0c-6.07.45-18.43,2.13-18.43,2.13-2.63.43-5.29.92-7.9,1.47L8.29,48V27.32L2.65,19.48H21.9L11.36,4.26l11.16,5.89-4.28-5.3,9.51,5.52h53l-2.16,4.07v5h19l-5.55,10.4a1.07,1.07,0,0,1,.16.14,5.11,5.11,0,0,1,1.41,3.82Z"/><path class="cls-3" d="M28.87,19.85A1.22,1.22,0,0,0,29.1,19v-1.8a.73.73,0,0,0-.12-.41.53.53,0,0,0-.42-.2.61.61,0,0,0,.38-.26,1,1,0,0,0,.1-.45V14a.89.89,0,0,0-.21-.61.78.78,0,0,0-.61-.23H25.51V20.1H28a1.17,1.17,0,0,0,.84-.25m-2-5.46h.7c.08,0,.12,0,.12.13V16a.2.2,0,0,1-.05.14.16.16,0,0,1-.12,0h-.65Zm.84,4.35a.11.11,0,0,1-.14.14h-.7V17.25h.63a.33.33,0,0,1,.15,0,.2.2,0,0,1,.06.16Z"/><path class="cls-3" d="M36.14,17.7a.68.68,0,0,0,.15-.42V14.07a.92.92,0,0,0-.22-.65.94.94,0,0,0-.71-.25H32.73V20.1h1.39V17.89h.18L35,20.1H36.4l-.73-2.21a.57.57,0,0,0,.47-.19m-1.21-1.07a.12.12,0,0,1-.14.14h-.67V14.39h.67a.12.12,0,0,1,.14.14Z"/><rect class="cls-3" x="39.94" y="13.17" width="1.38" height="6.92"/><path class="cls-3" d="M45.19,17.07a.52.52,0,0,0,.25.11l.29,0h.71a.46.46,0,0,1,.2,0s.06.08.06.17v1.26c0,.1-.05.15-.16.15H45.05l.25,1.29H47a.89.89,0,0,0,1.06-1.05V16.76a.67.67,0,0,0-.18-.54.73.73,0,0,0-.51-.16h-.87a.34.34,0,0,1-.16,0,.18.18,0,0,1-.05-.14V14.62c0-.11.06-.16.17-.16H48l-.24-1.29H45.89a.84.84,0,0,0-.94.9v2.35a.94.94,0,0,0,.07.41.53.53,0,0,0,.17.24"/><path class="cls-3" d="M55,19.85a1.16,1.16,0,0,0,.24-.82v-1.8a.67.67,0,0,0-.13-.41.5.5,0,0,0-.41-.2.61.61,0,0,0,.38-.26,1,1,0,0,0,.1-.45V14A.89.89,0,0,0,55,13.4a.79.79,0,0,0-.61-.23H51.69V20.1H54.2a1.15,1.15,0,0,0,.84-.25m-2-5.46h.7c.08,0,.12,0,.12.13V16a.2.2,0,0,1,0,.14.16.16,0,0,1-.12,0h-.65Zm.84,4.35a.11.11,0,0,1-.14.14h-.7V17.25h.63a.33.33,0,0,1,.15,0,.2.2,0,0,1,.06.16Z"/><path class="cls-3" d="M60.14,19.24h1l.12.86h1.4l-1.25-6.93H59.88L58.62,20.1H60Zm.48-3.56.31,2.46H60.3Z"/><polygon class="cls-3" points="67.32 17.2 68.07 20.1 69.49 20.1 69.49 13.17 68.07 13.17 68.07 15.95 67.36 13.17 66.04 13.17 66.04 20.1 67.32 20.1 67.32 17.2"/><polygon class="cls-3" points="75.99 18.81 74.54 18.81 74.54 17.3 75.69 17.3 75.69 16.11 74.54 16.11 74.54 14.46 76.05 14.46 75.81 13.17 73.12 13.17 73.12 20.1 75.75 20.1 75.99 18.81"/><path class="cls-3" d="M47.1,43.37H47l-2.22.06,6.92,6.12Z"/><polygon class="cls-3" points="22.71 15.96 22.71 14.38 22.71 12.81 18.24 10.09 22.71 15.96"/><path class="cls-3" d="M81.33,44h.07L67,35.27l5.24,6.14A16.94,16.94,0,0,0,60,46.7L47.46,38.37,57.65,49.73a17.8,17.8,0,0,0-1.3,2.75,17.1,17.1,0,0,0-1.07,6l-8.84-9L58,67.52h0A17,17,0,1,0,81.33,44M62.11,47.16a15.09,15.09,0,0,1,10.25-3.91A30.37,30.37,0,0,0,62.7,52.8,4.42,4.42,0,0,1,61.82,51a7.3,7.3,0,0,1,.29-3.82m-3.6,17.53a15.88,15.88,0,0,1-1-2.79,5.36,5.36,0,0,1,.81,0,4.53,4.53,0,0,1,1.22.36,18.92,18.92,0,0,0,.29,4.75,15.31,15.31,0,0,1-1.35-2.36m1.29-4.28a7.12,7.12,0,0,0-1.19-.29,6.43,6.43,0,0,0-1.39,0,15.39,15.39,0,0,1,.26-5,20.18,20.18,0,0,0,2.79,3.18,17.32,17.32,0,0,0-.47,2.11m-1.59-7.64a15,15,0,0,1,1.64-3A7.5,7.5,0,0,0,60,51.4a6.41,6.41,0,0,0,1.72,3.1c-.07.16-.15.31-.23.47q-.33.7-.6,1.41a14.63,14.63,0,0,1-2.71-3.61M67,72.56a15.16,15.16,0,0,1-4.3-2.45,16.77,16.77,0,0,1-1.33-6.62,22.78,22.78,0,0,1,4.09,5.34h0c.83,1.32,1.7,2.71,2.76,4.13-.41-.12-.81-.25-1.22-.4m11.57-.44A15,15,0,0,1,71,73.45a44.42,44.42,0,0,1-4-5.6h0c-1.66-2.65-3.12-5-5.49-6.55.08-.55.18-1.1.31-1.65a38.28,38.28,0,0,0,8.1,4.95c4.9,2.23,10.21,3.47,14.4,2.88a15.05,15.05,0,0,1-5.76,4.64m7.87-8.49a17.24,17.24,0,0,1-.74,1.69c-3.93,1.23-9.69,0-15-2.4a36,36,0,0,1-8.31-5.18,18.71,18.71,0,0,1,.81-2l.06-.13c4.14,2.53,8.37,1.19,12.5-.12a33.4,33.4,0,0,1,4.57-1.22,25.65,25.65,0,0,1,3.89-.35,14.33,14.33,0,0,1,2.56.21,15,15,0,0,1-.33,9.48m-.39-11.44a18.08,18.08,0,0,0-1.84-.08,25.64,25.64,0,0,0-4.19.37,33.9,33.9,0,0,0-4.83,1.29c-3.74,1.18-7.58,2.4-11.07.24A29.55,29.55,0,0,1,75.38,43.58,15.18,15.18,0,0,1,86,52.07Z"/><path class="cls-3" d="M21.82,32.69a2,2,0,0,0-.95-.18,2.06,2.06,0,0,0,1.21-.87,2.59,2.59,0,0,0,.33-1.32c0-2,0-3.1,0-4.92v-.65A2.43,2.43,0,0,0,21.78,23a2.65,2.65,0,0,0-2-.67H8.12l3,4.13V44.57c2.66-.55,5.34-1,8-1.49a4.6,4.6,0,0,0,2.7-1.15,3.62,3.62,0,0,0,.77-2.51c0-1.88,0-2.92,0-4.61v-.65A1.78,1.78,0,0,0,22.2,33a1.26,1.26,0,0,0-.38-.3M15.52,26,17.76,26a.34.34,0,0,1,.4.39c0,.25,0,.48,0,.69,0,1.39,0,2.28,0,3.85a.55.55,0,0,1-.15.43.6.6,0,0,1-.4.16l-2.08.17h0c0-2.25,0-3.37,0-5.62m0,8.87,2-.21a.68.68,0,0,1,.49.08.48.48,0,0,1,.18.45v.7c0,1.13,0,1.89,0,3.21a.53.53,0,0,1-.09.34.51.51,0,0,1-.37.15L15.49,40h0c0-2,0-3,0-5.05"/><path class="cls-3" d="M32.17,22.29H30.33l1.14,1.58v.71l-.06,13.1a.56.56,0,0,1-.07.32.49.49,0,0,1-.36.14l-1.57.14c-.18,0-.3,0-.35-.08A.41.41,0,0,1,29,38s0,0,0-.06q0-7.44.07-14.89v-.71h-5.7l1.14,1.59v.71L24.43,39.2a1.34,1.34,0,0,0,0,.2,2.6,2.6,0,0,0,.75,2.07,3.69,3.69,0,0,0,2.7.37c1.83-.21,2.75-.31,4.59-.48a4.64,4.64,0,0,0,2.71-.91A3.1,3.1,0,0,0,36,38.16Q36,30.59,36,23c0-.23,0-.47,0-.71H32.17Z"/><path class="cls-3" d="M46.91,40.57,45.1,37.88l-.48-.7h-.24l-2,.06h0l0-14.25v-.71H36.73l1.13,1.58v.71h0q0,8.18,0,16.35h0c2.77-.19,6.33-.29,9.1-.36"/><path class="cls-3" d="M47.54,22.29h-.38l1.16,1.6V36.1h0l6.62,4.41,2.48.06V37.18c-1.8,0-2.7-.06-4.5-.07q0-7.41,0-14.82H47.54Z"/><path class="cls-3" d="M69.14,23v2.83l3,.06c0,3.14,0,6.29,0,9.43L74.71,37l2,1.34c0-3.89,0-7.77,0-11.66h0c0-.24,0-.48,0-.72l3,.08V22.29H69.14Z"/><path class="cls-3" d="M58.77,23.88q0,8.39,0,16.76c1.58.07,3.44.17,5.27.3l.12,0h0a19.51,19.51,0,0,1,3.49-1.22l-1.4-2.08-2.91-.16c0-1.36,0-2.16,0-3.34,0-.22,0-.46,0-.71,1.48.05,2.22.08,3.7.16h0c0-1.3,0-2,0-3.26l-3.7-.11c0-1.51,0-2.37,0-3.69v-.72l4.86.07V22.29H57.62Z"/><path class="cls-3" d="M85.7,26.25l5,.18,2.2-4.14H83.82a3.13,3.13,0,0,0-2.29.72,2.56,2.56,0,0,0-.71,1.93v.66h0c0,2.1,0,4.2,0,6.3a3.29,3.29,0,0,0,.2,1.23,2,2,0,0,0,1.36,1.15,5.3,5.3,0,0,0,.93.16l2.3.24a1.75,1.75,0,0,1,.64.15c.12.07.19.26.19.55v3.91h0c0,.28-.18.4-.52.35-1.9-.28-2.86-.41-4.77-.65L80,40.54l1,.66h0l.55.29.12.07c.16.08.31.18.47.27l.06,0a20.06,20.06,0,0,1,2.15,1.49l2.45.42.68.13a3.21,3.21,0,0,0,2.63-.25,3.11,3.11,0,0,0,.75-2.46V34.56h0v-.72A2.44,2.44,0,0,0,90.26,32a2.51,2.51,0,0,0-1.64-.64l-2.78-.22a.93.93,0,0,1-.51-.16.53.53,0,0,1-.17-.45c0-1.29,0-2,0-3.16h0v-.7c0-.31.18-.46.55-.45"/></g></g></g></svg>