<svg xmlns="http://www.w3.org/2000/svg" width="96.6" height="106.835" viewBox="0 0 96.6 106.835">
  <g id="Cairns_Taipans_NEG" data-name="Cairns Taipans_NEG" transform="translate(48.3 53.417)">
    <g id="Group_2" data-name="Group 2" transform="translate(-48.3 -53.417)">
      <path id="Path_2" data-name="Path 2" d="M239.6,275.7Z" transform="translate(-170.792 -196.543)" fill="#ac1b20" fill-rule="evenodd"/>
      <path id="Path_3" data-name="Path 3" d="M98.6,275.7Z" transform="translate(-70.275 -196.543)" fill="#ac1b20" fill-rule="evenodd"/>
      <path id="Path_4" data-name="Path 4" d="M5.819,125.171c4.651.057,11.255.115,16.107.057.2-.029.086,3.388.172,4.163a43.812,43.812,0,0,0,4.536-1.148,15.733,15.733,0,0,1-2.469-3.962c.689-.086.345-.144.976-.23a8.776,8.776,0,0,1-.6-5.4c-.431-.029-1.407.029-1.321-.086,2.728-4.508,3.991-5.426,7.12-7.953,3.331.144,7.982.316,11.829.144,1.464,1.034,2.153,1.924,5.771,2.038s5.6-1.436,5.6-2.153c3.675-.086,7.752,0,11.14-.144,2.9,1.694,5.771,3.675,7.838,7.551.172.057-1.206.316-1.034.373.66,1.321.546,2.038.373,3.9.775.66,2.986,4.393,2.842,6.4a7.808,7.808,0,0,0,1.809-.057c4.479-6.288,12.461-2.871,17.514-2.153.316,9.618-1.292,14.585-1.292,14.585l-1.177-.115c1.349,4.163-2.211,9.934-2.211,9.934a12.7,12.7,0,0,1,4.651,5.024c1.177,7.235-5.943,14.9-5.943,14.9s4.422,6.144,4.106,9.7c-4.479-2.641-9.188-4.852-9.188-4.852a18.49,18.49,0,0,1-6.747,4.364c-6.2.66-14.471-4.364-14.471-4.364,0,2.527-4.737,9.905-14.241,9.905s-14.758-7.522-14.758-9.848c0,0-4.852,4.048-13.868,4.048C10.1,177.283.737,162.64,1.943,155.893A19.75,19.75,0,0,1,8.2,149.4c-1.838-4.422-2.641-7.12-2.641-7.12l-3.933.172C-1.129,132.206.335,125.171.335,125.171Z" transform="translate(0.053 -78.774)" fill="#e5c79c" fill-rule="evenodd"/>
      <path id="Path_5" data-name="Path 5" d="M34.8,180.858l4.45,4.938,2.7-6.058L37.528,174.8,34.8,180.858Z" transform="translate(-24.793 -124.613)" fill="#c69a66" fill-rule="evenodd"/>
      <path id="Path_6" data-name="Path 6" d="M47.8,219.5l5.742,3.331.689-6.6L48.518,212.9l-.718,6.6Z" transform="translate(-34.061 -151.774)" fill="#c69a66" fill-rule="evenodd"/>
      <path id="Path_7" data-name="Path 7" d="M69.049,253.789l6.517,1.407-1.378-6.517L67.7,247.3l1.349,6.489Z" transform="translate(-48.247 -176.297)" fill="#c69a66" fill-rule="evenodd"/>
      <path id="Path_8" data-name="Path 8" d="M98.2,278.631l6.632-.66L101.5,272.2l-6.6.689,3.3,5.742Z" transform="translate(-67.638 -194.048)" fill="#c69a66" fill-rule="evenodd"/>
      <path id="Path_9" data-name="Path 9" d="M134.21,289.92l6.058-2.67-4.91-4.45-6.058,2.67,4.91,4.45Z" transform="translate(-92.161 -201.604)" fill="#c69a66" fill-rule="evenodd"/>
      <path id="Path_10" data-name="Path 10" d="M173.358,289.949l4.938-4.45-6.058-2.7-4.938,4.422,6.058,2.728Z" transform="translate(-119.251 -201.604)" fill="#c69a66" fill-rule="evenodd"/>
      <path id="Path_11" data-name="Path 11" d="M212,278.731l3.331-5.742-6.6-.689-3.331,5.714,6.6.718Z" transform="translate(-146.412 -194.119)" fill="#c69a66" fill-rule="evenodd"/>
      <path id="Path_12" data-name="Path 12" d="M246.289,253.917,247.7,247.4l-6.489,1.407-1.407,6.46,6.489-1.349Z" transform="translate(-170.935 -176.368)" fill="#c69a66" fill-rule="evenodd"/>
      <path id="Path_13" data-name="Path 13" d="M271.2,219.7l-.66-6.6-5.742,3.3.66,6.6,5.742-3.3Z" transform="translate(-188.757 -151.916)" fill="#c69a66" fill-rule="evenodd"/>
      <path id="Path_14" data-name="Path 14" d="M282.449,181.2l-2.842-6-4.307,4.881,2.67,6.058,4.479-4.938Z" transform="translate(-196.242 -124.898)" fill="#c69a66" fill-rule="evenodd"/>
      <path id="Path_15" data-name="Path 15" d="M206.929,232.8c4.709.746,14.528,9.073,14.671,10.91.2,12.145-15.1,22.337-16.882,22.653-5.111.086-9.417-2.125-15.016-4.852-4.565-2.929-8.671-4.221-9.3-5.8,1.579-.345,12.087-4.651,12.087-4.651l12.461-1.321,5.082-8.1s-2.239-5.943-3.072-8.814Z" transform="translate(-128.589 -165.96)" fill="#0e1c40" fill-rule="evenodd"/>
      <path id="Path_16" data-name="Path 16" d="M281.8,242.8s4.106,1.349,4.709,2.527a15.519,15.519,0,0,0-3.417,1.034L281.8,242.8Z" transform="translate(-200.876 -173.089)" fill="#c69a66" fill-rule="evenodd"/>
      <path id="Path_17" data-name="Path 17" d="M287.3,255.777,291,254.6a14.7,14.7,0,0,1,1.579,4.508l-.632-.861c-1.177.2-3.876.861-3.876.861Z" transform="translate(-204.797 -181.501)" fill="#c69a66" fill-rule="evenodd"/>
      <path id="Path_18" data-name="Path 18" d="M306.029,259.4a13.423,13.423,0,0,1,3.158,3.273,6.144,6.144,0,0,0-2.383-.057c-.287-1.292-.8-3.216-.8-3.216Z" transform="translate(-218.128 -184.923)" fill="#c69a66" fill-rule="evenodd"/>
      <path id="Path_19" data-name="Path 19" d="M307.7,273.446c1.091-.086,2.67-.057,2.67-.057a16.768,16.768,0,0,1-3.072,7.781,44.79,44.79,0,0,0,.546-4.68A19.722,19.722,0,0,0,307.7,273.446Z" transform="translate(-219.055 -194.892)" fill="#c69a66" fill-rule="evenodd"/>
      <path id="Path_20" data-name="Path 20" d="M277.838,320c-4.45,5.2-7.838,6.2-7.838,6.2a17.375,17.375,0,0,0,2.527-3.531C273.417,322.268,275.455,321.292,277.838,320Z" transform="translate(-192.464 -228.124)" fill="#e5c79c" fill-rule="evenodd"/>
      <path id="Path_21" data-name="Path 21" d="M241.278,323.183c-4.565,3.531-6.489,3.56-6.489,3.56a14.873,14.873,0,0,1-6.489-1.694,14.108,14.108,0,0,0,5.685-4.249S238.693,323.039,241.278,323.183Z" transform="translate(-162.737 -228.694)" fill="#e5c79c" fill-rule="evenodd"/>
      <path id="Path_22" data-name="Path 22" d="M210.793,312.2c-2.24,1.723-8.039,2.785-8.039,2.785s-3.618-1.292-5.254-2.871a15.794,15.794,0,0,0,5.513-2.326l4.278-.086a35.007,35.007,0,0,0,3.5,2.527Z" transform="translate(-140.78 -220.781)" fill="#e5c79c" fill-rule="evenodd"/>
      <path id="Path_23" data-name="Path 23" d="M5.293,165.6H24.616v3.991a56.518,56.518,0,0,0,7.723-1.866l.287,1.177H39v-.431c7.465.89,6.833.115,10.652.23s4.967,1.263,4.967,1.263v-.258c3.7.4,10.853-1.952,10.853-1.952l.2,1.12,14.872.086s2.039-3.761,7.809-3.761c3.1,0,6.489,1.321,7.723,1.637a43.675,43.675,0,0,1-.89,11.743H93.121a7.723,7.723,0,0,1,.66,3.359c-.4,7.608-9.417,18.662-15.82,19.265a5.23,5.23,0,0,1-5.2-3.015c-17.083-9.188-43.383-5.111-51.738,5.455a123.541,123.541,0,0,1-7.178-12.489l.746-.4a53.066,53.066,0,0,1-4.02-11.083s-4.192.287-4.221.23a55.126,55.126,0,0,1-1.062-14.212Z" transform="translate(-3.698 -117.769)" fill="#0e1c40" fill-rule="evenodd"/>
      <path id="Path_24" data-name="Path 24" d="M9.548,168.3H25.856v4.536c3.359.2,8.269-1.608,8.269-1.608a90.355,90.355,0,0,0,2.728,11.915c-.2-2.785-.172-5.714-.172-5.714h-.947l.144-5.34H43.37v-.316c4.221.574,4.422.086,8.9.029,3.962-.029,5.2,1.55,5.972,2.641.115-.545.459-1.637.459-1.637a29.966,29.966,0,0,0,8.47-1.608s1.723,7.953,1.55,12a34.409,34.409,0,0,0,.861-5.771h-.947l.23-5.312H85s1.493-3.675,6.833-3.761c2.785-.029,5.111,1.12,6.316,1.263a37.3,37.3,0,0,1-.66,9.073l-3.331-.2s1.866,2.728,1.694,5.111c-.574,7.092-9.245,17.514-14.528,17.686-3.675.115-4.68-4.68-4.68-4.68l-1.12,1.522a52.075,52.075,0,0,0-22.883-4.881l.8-5.828h1L55.2,184.9a6.546,6.546,0,0,1-3.675.345v2.182h.861l-.23,5.828c-14.069,0-23.227,6.058-23.227,6.058l-.345-.689a43.854,43.854,0,0,0-4.565,3.876c-3.158-5.2-5.426-9.5-5.426-9.5l.66-.345a56.7,56.7,0,0,1-4.709-13.437l-4.163.287c-1.062-4.221-.833-11.169-.833-11.169Z" transform="translate(-6.776 -119.979)" fill="#f77c27" fill-rule="evenodd"/>
      <path id="Path_25" data-name="Path 25" d="M13.5,172.329H27.482c-.086,4.364.23,8.01.23,8.01l-3.158.144c-.345-2.182-.2-4.364-1.292-4.249-.2,8.671,3.9,16.739,4.221,17.313a1.155,1.155,0,0,0,1,.546l2.957,5.972a40.6,40.6,0,0,0-4.307,3.474c-2.5-4.106-4.048-7.235-4.048-7.235s.746-.086.2-1.177c-4.651-9.3-5.225-15.1-5.426-18.835-1.378.23-.459,4.565-.459,4.565l-3.187.2a39.863,39.863,0,0,1-.66-8.757Z" transform="translate(-9.609 -122.83)" fill="#0e1c40" fill-rule="evenodd"/>
      <path id="Path_26" data-name="Path 26" d="M66.378,182.963A30,30,0,0,0,73.1,181.7c1.924,10.882,4.536,16.337,4.536,16.337a.6.6,0,0,0,.746.546c.574-.115.431-.431.431-.431a57.166,57.166,0,0,1-1.12-12.059c.057-1.148-.861-.775-.861-.775v-3.072h7.235l-.115,3.072s-.89-.172-.89.344a81.31,81.31,0,0,0,.431,11.628c.115.976.89.632.89.632l.517,3.7a53.865,53.865,0,0,0-10.709,2.728l-1.866-4.622s.718.029.546-.4-.89-2.067-.89-2.067l-1.493.2.431,1.838c.23.89.947.546.947.546l2.01,4.623c-1.981.833-4.623,2.182-4.623,2.182a55.445,55.445,0,0,1-2.9-5.34s.718.115.431-.775a28.259,28.259,0,0,1-.431-17.543Z" transform="translate(-46.437 -129.532)" fill="#0e1c40" fill-rule="evenodd"/>
      <path id="Path_27" data-name="Path 27" d="M131.879,182.715c4.02.345,4.737-.115,7.723-.115,4.45,0,5.57,1.751,5.541,4.68-.086,7.063-4.737,6.431-4.737,6.431a6.718,6.718,0,0,1-2.584-.4l-.115,4.249c-.029.861.861.574.861.574l-.172,3.56c-2.756.086-5.943.459-5.943.459l-.4-3.646s.919.23.861-.517a100.86,100.86,0,0,1-.23-11.714c.086-.459-.89-.4-.89-.4q-.022-1.581.115-3.158Z" transform="translate(-93.936 -130.173)" fill="#0e1c40" fill-rule="evenodd"/>
      <path id="Path_28" data-name="Path 28" d="M171.113,182.963a30.922,30.922,0,0,0,6.69-1.263c2.469,9.676.833,15.906.833,15.906s-.172.689.029.833.23.029.574.029.4-.4.4-.4a35.918,35.918,0,0,0,2.728-12.375c.029-.6-.947-.431-.947-.431l.172-3.043h6.6a33.169,33.169,0,0,1,1.608,8.355,23.06,23.06,0,0,0,.746-4.68c.115-.689-.976-.574-.976-.574l.086-3.072h6.2l-.115,3.158a.771.771,0,0,0-.976.775c-.4,10.049-8.068,19.409-8.068,19.409l-4.221-1.723a25.726,25.726,0,0,0,2.929-10.508,28.755,28.755,0,0,1-1.866,5c-.6,1,.517.947.517.947a31.671,31.671,0,0,1-2.383,4.335,59.205,59.205,0,0,0-10.164-2.182l1.177-3.646a.546.546,0,0,0,.746-.431c.115-.546.2-1.407.2-1.407l-1.55-.115a10.563,10.563,0,0,0-.459,1.292c-.2.775.546.574.546.574s-.459,1.952-1.062,3.646c-2.354-.23-5.513-.345-5.513-.345l.517-3.5s.747.316.976-.66,3.331-10.48,4.106-13.868Z" transform="translate(-118.039 -129.532)" fill="#0e1c40" fill-rule="evenodd"/>
      <path id="Path_29" data-name="Path 29" d="M261.014,172.257c2.3-.086,3.991.833,5,1a32.211,32.211,0,0,1-.517,6.948l-3.589-.2s.086-2.67-1-2.728a.67.67,0,0,0-.747.947c-.172,1.464,3.474,3.876,3.5,8.154.057,4.766-7.723,15.935-13.236,16.509-2.613.287-3.244-2.5-4.02-4.651a57.514,57.514,0,0,0,5.972-11.485l3.56.574s-2.957,6.517-1.981,6.747,2.555-1.637,3.13-5.283c.431-2.728-3.445-6.833-2.957-10.307.775-5.685,4.192-6.2,6.919-6.288Z" transform="translate(-175.64 -122.759)" fill="#0e1c40" fill-rule="evenodd"/>
      <path id="Path_30" data-name="Path 30" d="M68.179,185.12A27.649,27.649,0,0,0,74.036,184c2.038,10.336,3.819,14.327,4.335,15.648s1.062,1.12,1.062,1.12l.89,3.13c-1.55.4-4.45,1.407-4.45,1.407a32.76,32.76,0,0,1-1.522-3.589s.66-.029.086-1.608a18.231,18.231,0,0,0-.833-1.751c-1.12.2-2.3.316-2.3.316.517,4.02,1.608,3.359,1.608,3.359a38.439,38.439,0,0,0,1.665,3.79c-1.407.574-3.761,1.809-3.761,1.809l-2.326-4.393s.66-.144.172-1.436a26.725,26.725,0,0,1-.459-16.681Z" transform="translate(-47.807 -131.171)" fill="#fff" fill-rule="evenodd"/>
      <path id="Path_31" data-name="Path 31" d="M107.515,185.3h6.116l-.086,2.067s-.833-.23-.89,1.177A64.688,64.688,0,0,0,113.114,200c.115,1.263.976,1.062.976,1.062s.2,1.637.4,2.728c-1.952.287-4.795.947-4.795.947l-.89-3.043s.833.057.517-1.522a48.75,48.75,0,0,1-1.062-11.628c.029-1.292-.861-1.091-.861-1.091l.115-2.067Z" transform="translate(-76.549 -132.098)" fill="#fff" fill-rule="evenodd"/>
      <path id="Path_32" data-name="Path 32" d="M133.657,184.515a41.146,41.146,0,0,0,7.609-.115c4.221,0,4.68,2.182,4.68,4.048,0,6.718-4.335,6.087-4.335,6.087l-2.929-.4-.115,4.766c0,1.206.833,1.062.833,1.062s-.086,1.321-.115,2.527c-1.637.029-5,.4-5,.4l-.345-2.641s.775.2.689-1.522c-.345-7.522-.144-10.853-.144-10.853-.029-1.436-.89-1.177-.89-1.177l.086-2.182Z" transform="translate(-95.226 -131.456)" fill="#fff" fill-rule="evenodd"/>
      <path id="Path_33" data-name="Path 33" d="M172.769,184.962a30.147,30.147,0,0,0,5.943-1.062c2.3,9.963.632,15.217.632,15.217-.23,1.177.287,1.321.287,1.321s-1,2.354-1.407,2.957c-1.723-.431-4.852-.833-4.852-.833l.861-2.728s.775.23.976-.976c.057-.373.23-1.838.23-1.838l-2.5-.115-.66,1.751c-.316,1,.459,1.062.459,1.062a24.876,24.876,0,0,1-.8,2.7c-1.608-.23-4.536-.316-4.536-.316l.345-2.527s.632.115.89-.689c2.153-6.489,4.134-13.954,4.134-13.954Z" transform="translate(-119.322 -131.1)" fill="#fff" fill-rule="evenodd"/>
      <path id="Path_34" data-name="Path 34" d="M211.879,185.157h5.742c2.469,7.9,1.206,12.489,1.206,12.489,1.177-1.177,1.924-8.987,1.924-8.987.2-1.751-.861-1.378-.861-1.378V185.1h5.2v2.182s-1.062-.23-1.091,1.321c-.115,9.188-7.695,18.72-7.695,18.72-1.206-.546-3.388-1.321-3.388-1.321,4.565-9.647,2.067-14.987,2.067-14.987s.718,3.7-2.1,9.618c-.6,1.263.144,1.436.144,1.436a20.518,20.518,0,0,1-1.866,3.33c-1.321-.4-3.761-1-3.761-1l1.436-3.015s.746.23,1.206-.976a38.214,38.214,0,0,0,2.584-12.145c-.029-1.292-.89-1.091-.89-1.091l.144-2.039Z" transform="translate(-147.837 -131.955)" fill="#fff" fill-rule="evenodd"/>
      <path id="Path_35" data-name="Path 35" d="M262.4,174.118a17.758,17.758,0,0,1,4.651.89,32.324,32.324,0,0,1-.459,6.087l-2.728-.144s0-2.929-1.522-2.9-1.206,1.55-1.206,1.55c-.2,1.292,3.7,5.082,3.56,7.924-.345,6.632-8.757,15.791-12.6,16.193-2.555.287-2.9-2.3-3.589-4.02a56.267,56.267,0,0,0,5.656-11.054l2.527.4s-1.952,4.45-1.924,5.771c0,.517,0,1.148.8,1.177s3.072-1.809,3.5-6.173c.258-2.5-3.158-6.058-3.015-9.733.115-2.555,1.464-6.144,6.288-6Z" transform="translate(-177.137 -124.103)" fill="#fff" fill-rule="evenodd"/>
      <path id="Path_36" data-name="Path 36" d="M53,204.586l2.412-.086a24.893,24.893,0,0,0,.574,9.963A48.752,48.752,0,0,1,53,204.586Z" transform="translate(-37.768 -145.785)" fill="#0e1c40" fill-rule="evenodd"/>
      <path id="Path_37" data-name="Path 37" d="M79.216,194.529c0,2.3,1.78,7.494,1.78,7.494l-2.3.144a53.632,53.632,0,0,1,.517-7.666Z" transform="translate(-56.088 -138.656)" fill="#0e1c40" fill-rule="evenodd"/>
      <path id="Path_38" data-name="Path 38" d="M151.744,194.3c1,.029,2.555-.2,2.469,2.383s-1.637,2.354-2.613,2.412Z" transform="translate(-108.058 -138.514)" fill="#0e1c40" fill-rule="evenodd"/>
      <path id="Path_39" data-name="Path 39" d="M189.3,200.72a49.87,49.87,0,0,0,1.751-7.12c.4.89.546,7.178.546,7.178l-2.3-.086Z" transform="translate(-134.934 -138.015)" fill="#0e1c40" fill-rule="evenodd"/>
      <path id="Path_40" data-name="Path 40" d="M267.961,203.6c.775,2.182,1.981,4.852,1.981,4.852l-2.842-.4A20.153,20.153,0,0,0,267.961,203.6Z" transform="translate(-190.397 -145.144)" fill="#0e1c40" fill-rule="evenodd"/>
      <path id="Path_41" data-name="Path 41" d="M80.456,210.788h1.12a21.777,21.777,0,0,1-1-3.388,24.088,24.088,0,0,0-.115,3.445Z" transform="translate(-57.328 -147.853)" fill="#f77c27" fill-rule="evenodd"/>
      <path id="Path_42" data-name="Path 42" d="M153.544,195.9c.976.115,1.378.2,1.407,1.809s-.861,1.838-1.55,1.952l.172-3.761Z" transform="translate(-109.341 -139.655)" fill="#f77c27" fill-rule="evenodd"/>
      <path id="Path_43" data-name="Path 43" d="M191.6,208.83l.89-3.13.287,3.216-1.177-.086Z" transform="translate(-136.574 -146.641)" fill="#f77c27" fill-rule="evenodd"/>
      <path id="Path_44" data-name="Path 44" d="M15.257,174.3H28.235a64.945,64.945,0,0,0,.2,7.034l-2.182.115c-.316-3.761-.8-4.508-2.354-4.278-.086,7.723,3.646,16.653,4.106,17.6.833,1.723,1.464,1.349,1.464,1.349s1.148,2.584,2.613,5.168c-1.579,1.148-3.531,2.814-3.531,2.814a69.483,69.483,0,0,1-3.56-6.173s.8-.2-.345-2.412c-5.283-10.106-5.082-18.318-5.082-18.318-2.5-.23-1.522,4.68-1.522,4.68l-2.182.115a29.429,29.429,0,0,1-.574-7.695Z" transform="translate(-10.849 -124.256)" fill="#fff" fill-rule="evenodd"/>
      <path id="Path_45" data-name="Path 45" d="M17.454,246.9c.316.718.976,2.039.976,2.039l-.775.373C20.5,255,21.5,253.274,23.4,256.317c.373.6,1.522.919,2.986.6,1-.2,3.015-2.986,8.929-5.111A61.011,61.011,0,0,1,52.4,248.364c15.1-.775,26.788,6.575,29.343,8.3,14.528,9.819,17.169,19.782,17.169,19.782S83.691,266.022,64.34,264.931c-2.871-.172-9.1-.373-13.7,1.493-3.331,1.321-10.882,5.857-14.183,7.235a32.7,32.7,0,0,1-9.36,2.182c-5.8-2.211-10.968-9.044-11.427-9.618-5.943-7.723-5.082-12.576-5.082-12.576,0-.689,3.531-5.111,6.862-6.718Z" transform="translate(-7.505 -176.012)" fill="#0e1c40" fill-rule="evenodd"/>
      <path id="Path_46" data-name="Path 46" d="M16.729,259.416a25.122,25.122,0,0,1,3.158-3.216,21.766,21.766,0,0,0-.833,3.1,16.905,16.905,0,0,0-2.354.115Z" transform="translate(-11.89 -182.642)" fill="#c69a66" fill-rule="evenodd"/>
      <path id="Path_47" data-name="Path 47" d="M29.3,259.329a13.665,13.665,0,0,1,.66-2.928,22.14,22.14,0,0,0,1.78,2.814,9.361,9.361,0,0,1-2.44.086Z" transform="translate(-20.872 -182.784)" fill="#c69a66" fill-rule="evenodd"/>
      <path id="Path_48" data-name="Path 48" d="M15.6,270.4h2.613a22.165,22.165,0,0,0,.4,7.723A16.612,16.612,0,0,1,15.6,270.4Z" transform="translate(-11.106 -192.765)" fill="#c69a66" fill-rule="evenodd"/>
      <path id="Path_49" data-name="Path 49" d="M28.045,269.7a14.307,14.307,0,0,0,3.244-.2,16.538,16.538,0,0,0-.316,3.474H27.816a9.789,9.789,0,0,1,.258-3.273Z" transform="translate(-19.79 -192.123)" fill="#c69a66" fill-rule="evenodd"/>
      <path id="Path_50" data-name="Path 50" d="M27.9,284.844l3.273-.144a20.115,20.115,0,0,0,1.981,4.422,12.236,12.236,0,0,1-3.388,2.383,17.632,17.632,0,0,1-1.866-6.632Z" transform="translate(-19.874 -202.959)" fill="#c69a66" fill-rule="evenodd"/>
      <path id="Path_51" data-name="Path 51" d="M43.188,271.5a13.609,13.609,0,0,0,1.55,2.3l-2.039.517a9.549,9.549,0,0,1,.459-2.814Z" transform="translate(-30.425 -193.549)" fill="#c69a66" fill-rule="evenodd"/>
      <path id="Path_52" data-name="Path 52" d="M43.4,282.86l2.3-.66,1.292,1.091L44.2,284.9l-.8-2.039Z" transform="translate(-30.924 -201.177)" fill="#c69a66" fill-rule="evenodd"/>
      <path id="Path_53" data-name="Path 53" d="M63.2,282.806c1.034.144,3.79-1.206,3.79-1.206l-1.665,2.7a7.953,7.953,0,0,1-2.125-1.493Z" transform="translate(-45.039 -200.749)" fill="#c69a66" fill-rule="evenodd"/>
      <path id="Path_54" data-name="Path 54" d="M46.773,289.7l3.359-2.1c1.751,1.206,4.508,2.814,4.508,2.814s-1.349,4.106-2.641,5.34a13.523,13.523,0,0,1-5.6-3.331l1.378-1.034A4.293,4.293,0,0,1,46.773,289.7Z" transform="translate(-33.063 -205.026)" fill="#c69a66" fill-rule="evenodd"/>
      <path id="Path_55" data-name="Path 55" d="M38,307.42l1.637-1.12a12.72,12.72,0,0,0,5.57,3.5,3.55,3.55,0,0,1-2.9.373A44.261,44.261,0,0,1,38,307.42Z" transform="translate(-27.074 -218.357)" fill="#c69a66" fill-rule="evenodd"/>
      <path id="Path_56" data-name="Path 56" d="M73.229,285.813l1.55-2.5a35.932,35.932,0,0,0,5.34-.115c-.316,1.981-3.216,6.23-2.814,5.541a1.235,1.235,0,0,1-1.235.632L74.09,289l.89-2.125-1.78-1.091Z" transform="translate(-52.168 -201.89)" fill="#c69a66" fill-rule="evenodd"/>
      <path id="Path_57" data-name="Path 57" d="M77.9,270.192l1.378-1.637c1.665-1.349,5.6-2.555,5.6-2.555a34.849,34.849,0,0,0-2.929,4.163,26.3,26.3,0,0,1-4.048,0Z" transform="translate(-55.519 -189.628)" fill="#c69a66" fill-rule="evenodd"/>
      <path id="Path_58" data-name="Path 58" d="M96,271.661s1.637-3.129,2.555-3.761a11.083,11.083,0,0,1,3.646.976s-2.7,3.933-3.331,5a14.907,14.907,0,0,1-2.239,0l.775-2.383Z" transform="translate(-68.422 -190.982)" fill="#c69a66" fill-rule="evenodd"/>
      <path id="Path_59" data-name="Path 59" d="M94.52,291.7H96.5l-3.1,2.239,1.12-2.239Z" transform="translate(-66.568 -207.949)" fill="#c69a66" fill-rule="evenodd"/>
      <path id="Path_60" data-name="Path 60" d="M111.1,281.893l.919-1.493,1.206.086-2.125,1.407Z" transform="translate(-79.186 -199.893)" fill="#c69a66" fill-rule="evenodd"/>
      <path id="Path_61" data-name="Path 61" d="M106,260.651a18.093,18.093,0,0,1,5.828-1.751l-2.842,2.3Z" transform="translate(-75.551 -184.566)" fill="#c69a66" fill-rule="evenodd"/>
      <path id="Path_62" data-name="Path 62" d="M116.833,260.614s2.268-1.981,3.158-2.814c4.364-.66,5.857.517,5.857.517a8.092,8.092,0,0,0-3.158,2.3,19.338,19.338,0,0,0-5.4,2.986L116,263.485l1.866-2.5-1.034-.4Z" transform="translate(-82.68 -183.639)" fill="#c69a66" fill-rule="evenodd"/>
      <path id="Path_63" data-name="Path 63" d="M140.6,254.617c2.842-.4,5.139-.517,5.139-.517a16.424,16.424,0,0,0-2.641.775A11.8,11.8,0,0,0,140.6,254.617Z" transform="translate(-100.217 -181.145)" fill="#c69a66" fill-rule="evenodd"/>
      <path id="Path_64" data-name="Path 64" d="M142.7,264.549a6.245,6.245,0,0,1,2.038-1.349c1.034.775,2.326,1.924,2.326,1.924A39.221,39.221,0,0,0,142.7,264.549Z" transform="translate(-101.714 -187.632)" fill="#c69a66" fill-rule="evenodd"/>
      <path id="Path_65" data-name="Path 65" d="M152.286,255.547a14.932,14.932,0,0,1,3.79-.947l4.565,2.239a17.156,17.156,0,0,0-5.6,2.3,16.876,16.876,0,0,0-2.842-2.44l1.034-.632Z" transform="translate(-108.486 -181.501)" fill="#c69a66" fill-rule="evenodd"/>
      <path id="Path_66" data-name="Path 66" d="M168.829,254.3a27.413,27.413,0,0,1,3.158,1.349l2.067-.947s-3.158-.373-5.254-.4Z" transform="translate(-120.32 -181.287)" fill="#c69a66" fill-rule="evenodd"/>
      <path id="Path_67" data-name="Path 67" d="M180.761,257.306l2.383-1.206a17.4,17.4,0,0,1,8.039,6.115,11.339,11.339,0,0,0-2.555,1.148L182.6,261.67a37.526,37.526,0,0,0-2.7-2.929l1.924-.574-1.091-.89Z" transform="translate(-128.233 -182.57)" fill="#c69a66" fill-rule="evenodd"/>
      <path id="Path_68" data-name="Path 68" d="M171.781,271.79c-1.034-.258-4.881-.89-4.881-.89Z" transform="translate(-118.965 -193.121)" fill="#0e1c40" fill-rule="evenodd"/>
      <path id="Path_69" data-name="Path 69" d="M199.1,257.4a58.715,58.715,0,0,1,10.537,4.106,17.914,17.914,0,0,0-4.766.373c-1.751-2.383-5.771-4.45-5.771-4.45Z" transform="translate(-141.92 -183.497)" fill="#c69a66" fill-rule="evenodd"/>
      <path id="Path_70" data-name="Path 70" d="M220.758,274.605a18.136,18.136,0,0,1,4.565-.2,10.221,10.221,0,0,1,2.383,3.675l-2.842.976-2.555-1.034c-.258-.976-1.809-2.067-1.809-2.067l.718-.4-.459-.947Z" transform="translate(-157.176 -195.563)" fill="#c69a66" fill-rule="evenodd"/>
      <path id="Path_71" data-name="Path 71" d="M215.618,281.8l1.206.89-1.924-.632.718-.258Z" transform="translate(-153.184 -200.892)" fill="#c69a66" fill-rule="evenodd"/>
      <path id="Path_72" data-name="Path 72" d="M242.7,276.7l1.522,2.125,3.158.517a23.2,23.2,0,0,0-4.68-2.641Z" transform="translate(-173.002 -197.256)" fill="#c69a66" fill-rule="evenodd"/>
      <path id="Path_73" data-name="Path 73" d="M263.2,289.4l2.7,1.981L264,290.95l-.8-1.55Z" transform="translate(-187.616 -206.309)" fill="#c69a66" fill-rule="evenodd"/>
      <path id="Path_74" data-name="Path 74" d="M280.3,301.7l.775,1.464L283,304.2l-2.7-2.5Z" transform="translate(-199.807 -215.078)" fill="#c69a66" fill-rule="evenodd"/>
      <path id="Path_75" data-name="Path 75" d="M245.15,287l3.13.546,1.55,3.1-1.809.316-3.732-1.723-.689-.976,1.866-.431L245.15,287Z" transform="translate(-173.644 -204.599)" fill="#c69a66" fill-rule="evenodd"/>
      <path id="Path_76" data-name="Path 76" d="M264.534,297.5l2.756.574a6.286,6.286,0,0,1,1.349,3.388l-.89.316-4.249-2.7,1.665-.144-.632-1.407Z" transform="translate(-187.83 -212.084)" fill="#c69a66" fill-rule="evenodd"/>
      <path id="Path_77" data-name="Path 77" d="M281.961,309.8l2.555,1.464.919,2.756-4.335-3.072.919-.373-.057-.775Z" transform="translate(-200.377 -220.852)" fill="#c69a66" fill-rule="evenodd"/>
      <path id="Path_78" data-name="Path 78" d="M271.8,313.3a3.647,3.647,0,0,1,1.091,1.809,67.787,67.787,0,0,1,6.23,3.216C276.624,315.511,271.8,313.3,271.8,313.3Z" transform="translate(-193.747 -223.347)" fill="#e5c79c" fill-rule="evenodd"/>
      <path id="Path_79" data-name="Path 79" d="M240.7,301.783l.574-2.383s7.58,2.584,8.01,5.283c-1.809-1.148-8.556-2.9-8.556-2.9Z" transform="translate(-171.577 -213.438)" fill="#e5c79c" fill-rule="evenodd"/>
      <path id="Path_80" data-name="Path 80" d="M202,285.2s7.235,2.268,7.723,2.555c1.235.66,1.723,3.445,1.723,3.445l-6.948-1.263C204.239,288.272,202,285.2,202,285.2Z" transform="translate(-143.988 -203.315)" fill="#e5c79c" fill-rule="evenodd"/>
      <path id="Path_81" data-name="Path 81" d="M140.129,276.53a27.933,27.933,0,0,1,11.312,1.349,25.242,25.242,0,0,1,6.948,5.6l-7.321-.718s-3.1-3.158-10.968-6.23Z" transform="translate(-99.86 -197.086)" fill="#e5c79c" fill-rule="evenodd"/>
      <path id="Path_82" data-name="Path 82" d="M116.837,278.881a1.493,1.493,0,0,1,1.55-.258,29.1,29.1,0,0,1,8.211,5.656,21.527,21.527,0,0,0-5.828,2.383c-4.048-.115-8.671-2.957-8.671-2.957a40.688,40.688,0,0,1,4.737-4.823Z" transform="translate(-79.899 -198.547)" fill="#e5c79c" fill-rule="evenodd"/>
      <path id="Path_83" data-name="Path 83" d="M93.9,300.2c2.7,3.474,7.58,4.307,7.58,4.307s-3.1,1.981-3.732,2.326c-2.7,1.493-9.245-2.383-9.245-2.383A25.555,25.555,0,0,0,93.9,300.2Z" transform="translate(-63.075 -214.009)" fill="#e5c79c" fill-rule="evenodd"/>
      <path id="Path_84" data-name="Path 84" d="M66.107,317.6a16.245,16.245,0,0,0,5.714,4.249,16.7,16.7,0,0,1-6.546,1.665c-1.292,0-6.374-3.589-6.374-3.589A20.234,20.234,0,0,0,66.107,317.6Z" transform="translate(-41.974 -226.413)" fill="#e5c79c" fill-rule="evenodd"/>
      <path id="Path_85" data-name="Path 85" d="M71.629,309.139,72.6,307.1a7.321,7.321,0,0,1,1.866.316,22.227,22.227,0,0,1-2.871,1.723Z" transform="translate(-51.027 -218.928)" fill="#c69a66" fill-rule="evenodd"/>
      <path id="Path_86" data-name="Path 86" d="M324.094,219.4v.373h-.6v1.751h-.431v-1.751h-.66V219.4Z" transform="translate(-229.819 -156.407)" fill="#fff" fill-rule="evenodd"/>
      <path id="Path_87" data-name="Path 87" d="M330,221.525l-.373-1.723v1.723H329.2V219.4h.632l.4,1.637.373-1.637h.66v2.125h-.459V219.8l-.373,1.723Z" transform="translate(-234.667 -156.407)" fill="#fff" fill-rule="evenodd"/>
      <path id="Path_88" data-name="Path 88" d="M276.452,285.3a9.724,9.724,0,0,0,2.44.775,12.726,12.726,0,0,1-1.436,3.589c-1.321-1.292-2.957-2.67-2.957-2.67l1.924-1.694Z" transform="translate(-195.672 -203.387)" fill="#c69a66" fill-rule="evenodd"/>
      <path id="Path_89" data-name="Path 89" d="M284.85,274.729a6.459,6.459,0,0,1,.517,2.756l-2.067-.517a8.326,8.326,0,0,0,1.579-2.268Z" transform="translate(-201.945 -195.83)" fill="#c69a66" fill-rule="evenodd"/>
      <path id="Path_90" data-name="Path 90" d="M288.924,288.1a12.866,12.866,0,0,0,3.3,0c.23.919-.689,5.111-1.924,6.776a8.925,8.925,0,0,1-3.3-2.5A14.441,14.441,0,0,0,288.924,288.1Z" transform="translate(-204.583 -205.383)" fill="#c69a66" fill-rule="evenodd"/>
      <path id="Path_91" data-name="Path 91" d="M292.2,271.5a4.863,4.863,0,0,0,3.072-.6l.6,1a15.841,15.841,0,0,1-.144,2.842,7.412,7.412,0,0,1-2.842.172,10.309,10.309,0,0,0-.689-3.445Z" transform="translate(-208.29 -193.121)" fill="#c69a66" fill-rule="evenodd"/>
      <path id="Path_92" data-name="Path 92" d="M92.072,113.587s7.35.2,10.8,0c3.9,3.5,10.91,2.067,12.891-.144,1.78.057,9.848-.144,9.848-.144,5.4,3.043,6.718,6.288,6.718,6.288l-.66.144a5.749,5.749,0,0,1,.517,4.709,15.217,15.217,0,0,1,3.273,7.465h-8.384a10.743,10.743,0,0,1-4.393,2.067c1.349,11.858-6.087,15.676-6.087,15.676s3.244-4.91.8-14.327c-4.623.2-9.159-3.675-9.159-3.675-1,2.125-7.609,3.675-7.609,3.675s-2.038,5.742,1,13.9c-7.494-4.106-6-15.705-6-15.705a15.367,15.367,0,0,1-8.527-6.288l.8-.144c-1.895-4.307-.947-7.149-.947-7.149l-.861.057a28.934,28.934,0,0,1,5.943-6.374Z" transform="translate(-61.364 -80.77)" fill="#0e1c40" fill-rule="evenodd"/>
      <path id="Path_93" data-name="Path 93" d="M99.324,118.853h7.666a3.663,3.663,0,0,0-1.062,1.263,6.259,6.259,0,0,1,2.211-.861c1.493,2.039,5.685,3.244,5.685,3.244l-1.981.517a9.274,9.274,0,0,0,4.02,2.5,12.871,12.871,0,0,0,4.766-2.7,4.91,4.91,0,0,1-2.354-.488,5.84,5.84,0,0,0,4.766-2.9,7.182,7.182,0,0,1,3.618,1.206,3.955,3.955,0,0,0-1.12-1.723,47.364,47.364,0,0,1,5.943-.373c1.062.086,4.02,2.067,4.967,3.675l-.718.144s3.56,4.048-.775,6.316a4.91,4.91,0,0,0-2.555-3.187s2.785,4.393-1.263,5.513a4.571,4.571,0,0,0-1.924-3.532s1.637,3.819-1.723,4.594a5.8,5.8,0,0,0-1.751-3.962s1.263,3.1.345,4.45a6.634,6.634,0,0,0-4.048,3.962,7.35,7.35,0,0,1-5.972-3.675,8.425,8.425,0,0,1-6.661,3.244,5.225,5.225,0,0,0-3.187-3.675,6.363,6.363,0,0,1,1.694-4.881,6.246,6.246,0,0,0-2.756,4.393L103.114,131a4.852,4.852,0,0,1,1.062-4.307c-1.924.861-2.5,3.7-2.5,3.7s-4.335-1.062-.574-5.685c-2.555,1.579-2.7,3.388-2.7,3.388-1.723-.775-4.91-3.618-.345-6.46l-1.292-.086a8.7,8.7,0,0,1,2.555-2.641Z" transform="translate(-68.214 -84.486)" fill="#c69a66" fill-rule="evenodd"/>
      <path id="Path_94" data-name="Path 94" d="M94.1,149.5c.574.833,6.087,3.13,7.637,8.355a9.811,9.811,0,0,1-5.943-5.656,5.053,5.053,0,0,0,.057,1.694,6.8,6.8,0,0,1-1.723-4.393Z" transform="translate(-67.067 -106.577)" fill="#c69a66" fill-rule="evenodd"/>
      <path id="Path_95" data-name="Path 95" d="M153.7,123.886a21.709,21.709,0,0,0,7.379-.086A6.477,6.477,0,0,1,153.7,123.886Z" transform="translate(-109.555 -88.255)" fill="#c69a66" fill-rule="evenodd"/>
      <path id="Path_96" data-name="Path 96" d="M213.366,159.286c-.345-3.474,5.972-5.685,8.01-8.786-.345,3.761-2.469,5.168-2.469,5.168a4.738,4.738,0,0,0,.144-1.838C218.333,154.807,217.989,157.592,213.366,159.286Z" transform="translate(-152.081 -107.289)" fill="#c69a66" fill-rule="evenodd"/>
      <path id="Path_97" data-name="Path 97" d="M122.8,166.8s4.077,1.579,4.68,3.56a13.522,13.522,0,0,0-3.7-1.148A8.988,8.988,0,0,0,122.8,166.8Z" transform="translate(-87.527 -118.91)" fill="#f77c27" fill-rule="evenodd"/>
      <path id="Path_98" data-name="Path 98" d="M194.129,171.355a6.8,6.8,0,0,1,4.623-2.555,4.134,4.134,0,0,0-1.12,1.55,7.841,7.841,0,0,0-3.532,1Z" transform="translate(-138.356 -120.335)" fill="#f77c27" fill-rule="evenodd"/>
      <path id="Path_99" data-name="Path 99" d="M184.931,152.8c.861.086,1.12,1.436.976,1.723s-2.326.833-2.929,2.326c-.144-1.407,1.55-4.106,1.981-4.048Z" transform="translate(-130.422 -108.927)" fill="#0e1c40" fill-rule="evenodd"/>
      <path id="Path_100" data-name="Path 100" d="M141.013,152.8c-.976.115-1.062,1.522-.976,1.723s2.326.833,2.929,2.326c.144-1.407-1.55-4.106-1.981-4.048Z" transform="translate(-99.797 -108.927)" fill="#0e1c40" fill-rule="evenodd"/>
      <path id="Path_101" data-name="Path 101" d="M161.3,149.633s.919-.833,1.436-.833,1.407.833,1.407.833a5.312,5.312,0,0,0-1.349,1A6.148,6.148,0,0,0,161.3,149.633Z" transform="translate(-114.973 -106.078)" fill="#0e1c40" fill-rule="evenodd"/>
      <path id="Path_102" data-name="Path 102" d="M106.129,129.654a7.693,7.693,0,0,1,5.34-1.493c1.981,4.307,5.886,3.13,5.886,3.13a12.087,12.087,0,0,1,3.761,3.474c-3.043-2.125-4.335-2.125-4.335-2.125-5.886,2.9-6.661-1.292-7.637-3.13-.718-.545-3.043.144-3.043.144Z" transform="translate(-75.622 -91.324)" fill="#0e1c40" fill-rule="evenodd"/>
      <path id="Path_103" data-name="Path 103" d="M189.216,129.654a7.731,7.731,0,0,0-5.369-1.493c-1.981,4.307-5.886,3.13-5.886,3.13a12.116,12.116,0,0,0-3.761,3.474c3.043-2.125,4.335-2.125,4.335-2.125,5.886,2.9,6.661-1.292,7.637-3.13.718-.545,3.043.144,3.043.144Z" transform="translate(-124.17 -91.324)" fill="#0e1c40" fill-rule="evenodd"/>
      <path id="Path_104" data-name="Path 104" d="M120.62,131a4.565,4.565,0,0,0,1.263,1.407,3.18,3.18,0,0,0,1.206,2.469,5.714,5.714,0,0,1-.057-1.55,8.9,8.9,0,0,0,2.354,1.263c-4.766,2.986-5.369-3.244-4.766-3.56Z" transform="translate(-85.835 -93.388)" fill="#f77c27" fill-rule="evenodd"/>
      <path id="Path_105" data-name="Path 105" d="M199.666,131a4.565,4.565,0,0,1-1.263,1.407,3.18,3.18,0,0,1-1.206,2.469,5.57,5.57,0,0,0,.057-1.55,8.9,8.9,0,0,1-2.354,1.263c4.766,2.986,5.369-3.244,4.766-3.56Z" transform="translate(-138.926 -93.388)" fill="#f77c27" fill-rule="evenodd"/>
      <path id="Path_106" data-name="Path 106" d="M195.6,179.277a1.579,1.579,0,0,1,.66-.517c.316-.144.546.23.546.23a16.794,16.794,0,0,1,1.436,8.068c1.091-2.5-.2-7.982-.23-8.384s.2-.488.2-.488l.861-.086c1,2.814,1.464,10.767-2.613,15.389,1.981-4.824.316-12.576-.861-14.183Z" transform="translate(-139.425 -126.965)" fill="#fff" fill-rule="evenodd"/>
      <path id="Path_107" data-name="Path 107" d="M123.861,178.429a2.814,2.814,0,0,1,.919.345.6.6,0,0,1,.2.431,15.217,15.217,0,0,0-.144,6.4,16.509,16.509,0,0,1,1.436-6.316l.517.144c-.919,1.522-1.177,4.422-1.206,7.838a13.719,13.719,0,0,0,.861,6c-4.623-6.144-2.9-14.585-2.613-14.872Z" transform="translate(-87.871 -127.179)" fill="#fff" fill-rule="evenodd"/>
      <path id="Path_108" data-name="Path 108" d="M232.459,167.4a15.937,15.937,0,0,1,2.986,2.871H229.1a18.4,18.4,0,0,0,3.331-2.871Z" transform="translate(-163.307 -119.337)" fill="#c69a66" fill-rule="evenodd"/>
      <path id="Path_109" data-name="Path 109" d="M241.3,159.381a7.724,7.724,0,0,0,1.12-1.981,7.235,7.235,0,0,1,1.292,3.847,13.857,13.857,0,0,0-2.412-1.895Z" transform="translate(-172.004 -112.208)" fill="#c69a66" fill-rule="evenodd"/>
      <path id="Path_110" data-name="Path 110" d="M129.028,267.5A14.528,14.528,0,1,1,114.5,282.028,14.528,14.528,0,0,1,129.028,267.5Z" transform="translate(-81.61 -190.697)" fill="#0e1c40" fill-rule="evenodd"/>
      <path id="Path_111" data-name="Path 111" d="M119.677,290.383c-1.694,3.216-1.665,6.288-1.292,9.36q5.685-6.288,12.633-7.58C129.037,287.656,125.132,287.282,119.677,290.383Z" transform="translate(-84.232 -205.57)" fill="#f77c27" fill-rule="evenodd"/>
      <path id="Path_112" data-name="Path 112" d="M134.144,305.6a18.326,18.326,0,0,0-11.944,8.728,9.776,9.776,0,0,0,2.9,4.422C131.1,315.218,135.493,311.227,134.144,305.6Z" transform="translate(-87.099 -217.858)" fill="#f77c27" fill-rule="evenodd"/>
      <path id="Path_113" data-name="Path 113" d="M146.253,303.4c1.407,6.977-1.723,11.6-7.953,14.557a11.258,11.258,0,0,0,5,2.3c6.058-3.417,9.446-8.642,7.58-17.456a26.525,26.525,0,0,0-4.623.632Z" transform="translate(-98.577 -215.862)" fill="#f77c27" fill-rule="evenodd"/>
      <path id="Path_114" data-name="Path 114" d="M173.081,303.1c2.354,7.12.258,12.777-4.881,17.428,4.479-.517,8.47-2.44,11.025-8.384a11.744,11.744,0,0,1-3.9-8.642,10.652,10.652,0,0,0-2.239-.4Z" transform="translate(-119.892 -216.076)" fill="#f77c27" fill-rule="evenodd"/>
      <path id="Path_115" data-name="Path 115" d="M195.1,305.6c.488,2.44,1.378,4.737,3.79,6.345a6.4,6.4,0,0,0,.373-4.048A21.244,21.244,0,0,0,195.1,305.6Z" transform="translate(-139.069 -217.858)" fill="#f77c27" fill-rule="evenodd"/>
      <path id="Path_116" data-name="Path 116" d="M167.2,272.3a17.5,17.5,0,0,1,4.881,8.01,7.753,7.753,0,0,1,2.5.373,20.729,20.729,0,0,1,.373-5.082,12.168,12.168,0,0,0-7.752-3.273Z" transform="translate(-119.179 -194.119)" fill="#f77c27" fill-rule="evenodd"/>
      <path id="Path_117" data-name="Path 117" d="M138.829,273.4c-2.756.4-4.393,1.78-6.029,3.158,4.91-.689,8.154.747,9.3,4.881a25.556,25.556,0,0,1,4.565-.459C145.261,277.075,142.878,274.261,138.829,273.4Z" transform="translate(-94.656 -194.903)" fill="#f77c27" fill-rule="evenodd"/>
      <path id="Path_118" data-name="Path 118" d="M196.092,288.9c-.947.086-1.177,1.895-1.292,3.962a8.3,8.3,0,0,1,4.106,2.3,10.7,10.7,0,0,0-2.814-6.23Z" transform="translate(-138.855 -205.953)" fill="#f77c27" fill-rule="evenodd"/>
      <path id="Path_119" data-name="Path 119" d="M113.656,95.664a4.278,4.278,0,0,1-1.321.2,3.962,3.962,0,0,1-2.354-.66,2.239,2.239,0,0,1,.029-3.819,4.307,4.307,0,0,1,2.44-.689,4.393,4.393,0,0,1,1.148.144l.23,1.378a2.67,2.67,0,0,0-1.263-.345c-1.091,0-1.924.574-1.924,1.436s.8,1.436,1.924,1.436a2.527,2.527,0,0,0,1.321-.373l-.23,1.321Z" transform="translate(-77.637 -64.656)" fill="#fff" fill-rule="evenodd"/>
      <path id="Path_120" data-name="Path 120" d="M126.7,95.467l1.694.258.66-1.034h2.613l.66,1.034,1.751-.258L130.4,90.5l-3.7,5Zm2.785-1.694.89-1.321.89,1.321Z" transform="translate(-90.307 -64.516)" fill="#fff" fill-rule="evenodd"/>
      <path id="Path_121" data-name="Path 121" d="M153.7,91.115,155.394,91v4.938l-1.694.115V91.115Z" transform="translate(-109.555 -64.873)" fill="#fff" fill-rule="evenodd"/>
      <path id="Path_122" data-name="Path 122" d="M163.3,96.153l1.694-.115V93.885l2.039,2.326,1.665-.431-1.809-1.895c.746-.287,1.091-.718,1.091-1.292s-.861-1.493-2.5-1.493H163.3v5.024Zm1.694-3.991h.115c.775,0,1.206.258,1.206.689s-.431.689-1.177.689h-.144V92.134Z" transform="translate(-116.399 -64.944)" fill="#fff" fill-rule="evenodd"/>
      <path id="Path_123" data-name="Path 123" d="M182.8,90.2l4.508,2.929V90.545l1.637-.144v5.283l-4.479-2.957V95.4l-1.665.115V90.2Z" transform="translate(-130.3 -64.302)" fill="#fff" fill-rule="evenodd"/>
      <path id="Path_124" data-name="Path 124" d="M207.376,94.484a2.555,2.555,0,0,0,1.378.431c.546,0,.861-.172.861-.431s-.546-.4-1.349-.6-1.694-.66-1.694-1.407.947-1.579,2.469-1.579a4.221,4.221,0,0,1,2.211.546l-.919.833a2.038,2.038,0,0,0-1.177-.345c-.488,0-.775.172-.775.4s.574.4,1.464.6,1.608.746,1.608,1.436-1.034,1.637-2.67,1.637a4.278,4.278,0,0,1-2.383-.66l.976-.89Z" transform="translate(-147.124 -64.796)" fill="#fff" fill-rule="evenodd"/>
      <path id="Path_125" data-name="Path 125" d="M68.9,27.655c0-2.785,0-5.455,3.646-5.455,2.268,0,3.158,1.235,3.072,3.5H73.465c0-1.407-.258-1.924-.919-1.924-1.235,0-1.407,1.177-1.407,3.876s.172,3.876,1.407,3.876.976-1.321,1-2.153h2.182c0,2.814-1.12,3.732-3.187,3.732C68.9,33.11,68.9,30.411,68.9,27.655Z" transform="translate(-49.103 -15.826)" fill="#fff"/>
      <path id="Path_126" data-name="Path 126" d="M102.353,27.655c0-2.7-.172-3.876-1.407-3.876s-1.407,1.177-1.407,3.876.172,3.819,1.407,3.819S102.353,30.3,102.353,27.655Zm3.015,5.283h-3.13l-.632.057-.632.057c-3.273,0-3.675-1.723-3.675-5.4,0-2.785,0-5.455,3.646-5.455s3.646,2.67,3.646,5.455c0,2.268-.4,3.273-1.292,3.991h.029a8.494,8.494,0,0,1,1.12-.373h.919v1.637Z" transform="translate(-69.349 -15.826)" fill="#fff"/>
      <path id="Path_127" data-name="Path 127" d="M135.807,22.8v7.494c0,1.579-.89,3.244-3.589,3.244s-3.618-1.263-3.618-3.244V22.8h2.211v7.35c0,1.292.546,1.809,1.349,1.809s1.407-.632,1.407-1.809V22.8Z" transform="translate(-91.662 -16.254)" fill="#fff"/>
      <path id="Path_128" data-name="Path 128" d="M161.667,34.187h.029a1.723,1.723,0,0,1,.746-.689,2.24,2.24,0,0,1,1-.2,1.665,1.665,0,0,1,1.838,1.608v5.943h-2.067V35.766c0-.66-.115-1.177-.775-1.177s-.775.517-.775,1.177v5.082H159.6V33.44h2.067Z" transform="translate(-113.761 -23.736)" fill="#fff"/>
      <path id="Path_129" data-name="Path 129" d="M187.767,33.366H185.7V25.958h2.067Zm0-10.566v1.637H185.7V22.8Z" transform="translate(-132.368 -16.254)" fill="#fff"/>
      <path id="Path_130" data-name="Path 130" d="M196.9,33.8h2.067l1.062,5.57h.029l1.062-5.57h2.038l-2.038,7.408h-2.268L196.9,33.8Z" transform="translate(-140.352 -24.096)" fill="#fff"/>
      <path id="Path_131" data-name="Path 131" d="M225.433,36.243c0-.718.029-1.751-.947-1.751s-.947,1.12-.947,1.751Zm-1.895,1.148c0,.89.029,2.182.947,2.182s.89-.689.89-1.321h2.1a2.641,2.641,0,0,1-.775,1.924,3.067,3.067,0,0,1-2.182.718c-2.67,0-3.015-1.637-3.015-3.933s.287-3.761,3.015-3.761,3.1,1.809,3.015,4.163Z" transform="translate(-157.889 -23.668)" fill="#fff"/>
      <path id="Path_132" data-name="Path 132" d="M249.452,33.444v.947h.029A1.853,1.853,0,0,1,251.4,33.3v1.838c-1.809-.115-1.838.947-1.838,1.665v4.02H247.5V33.444Z" transform="translate(-176.424 -23.739)" fill="#fff"/>
      <path id="Path_133" data-name="Path 133" d="M265.083,38.468a2.1,2.1,0,0,0,.115.89c.115.23.345.345.746.345a.718.718,0,0,0,.747-.775c0-1.579-3.618-1.206-3.618-3.56,0-1.608,1.579-2.067,2.9-2.067s2.67.66,2.555,2.268h-2.01c0-.517-.057-.833-.2-.947a.689.689,0,0,0-.517-.172c-.459,0-.718.287-.718.8,0,1.177,3.618,1.12,3.618,3.474,0,1.292-1.062,2.268-2.756,2.268s-3.015-.459-2.871-2.527Z" transform="translate(-187.519 -23.739)" fill="#fff"/>
      <path id="Path_134" data-name="Path 134" d="M289.767,33.366H287.7V25.958h2.067Zm0-10.566v1.637H287.7V22.8Z" transform="translate(-205.082 -16.254)" fill="#fff"/>
      <path id="Path_135" data-name="Path 135" d="M298.3,28.667h.833V27.519L301.2,26.6v2.1h1.062v1.263H301.2v3.962c0,.546-.029.919.66.919h.373V36.1a8.415,8.415,0,0,1-1.062.086c-1.78,0-2.01-1.177-2.01-1.637V29.959h-.833V28.667Z" transform="translate(-212.639 -18.963)" fill="#fff"/>
      <path id="Path_136" data-name="Path 136" d="M315.01,41.265,313,33.8h2.067L316.1,39h.029l1.12-5.2h2.01l-2.871,10.193h-2.153l.775-2.728Z" transform="translate(-223.118 -24.096)" fill="#fff"/>
      <path id="Path_137" data-name="Path 137" d="M10.8,63.7Z" transform="translate(-7.684 -45.411)" fill="#fff"/>
      <path id="Path_138" data-name="Path 138" d="M.832,9.963ZM.8,9.848ZM.2,5.111l.057.574c.057.718.2,1.723.316,2.584l.115.689H.631l.144.833.057.23h0q.287,1.55.66,3.015h0l.258.919v.115h0l.086.23h0l.086.258h0l.057.172h0l.431,1.349h0v.057h.029l.057.144h0l.086.258h0l.086.258h0l.057.144h0l.23.6h0V17.6h0l.23.546h0v.115l.258.574h.029v.057h0l.172.373h0l.057.144h0l.057.115h0l.287.574h.029l.23.431h0v.057h0l.057.144h0l.258.517h0l.632-.345-.632.345h0a21.045,21.045,0,0,0,3.244,4.479l.373.4L8.7,25.9a17.6,17.6,0,0,0,5.886-4.536,10.451,10.451,0,0,0,2.354-5.4H17V14.585h0V11.973h0V11.2l.086-6.919L17.168,0Z" transform="translate(-0.127)" fill="#fff"/>
      <path id="Path_139" data-name="Path 139" d="M17.773,27.586a19.322,19.322,0,0,0,2.239-1.952c.029-2.584.086-7.465.115-10.709-2.785-.775-6.919.115-10.8,2.555A20.328,20.328,0,0,0,5.8,20.236c.2,1.177.517,2.527.919,3.991a20.442,20.442,0,0,1,11.054,3.359Z" transform="translate(-4.119 -10.445)" fill="#c1cf1d"/>
      <path id="Path_140" data-name="Path 140" d="M19.983,51.288A20.442,20.442,0,0,0,8.9,47.9a33.162,33.162,0,0,0,2.814,7.063,18.547,18.547,0,0,0,6.776-2.641A17.306,17.306,0,0,0,19.983,51.288Z" transform="translate(-6.329 -34.147)" fill="#4a6f99"/>
      <path id="Path_141" data-name="Path 141" d="M8.02,10.142c3.876-2.44,8.01-3.3,10.8-2.555.029-1.866.029-3.187.029-3.187L4,8.965a36.892,36.892,0,0,0,.517,3.962,20.328,20.328,0,0,1,3.5-2.785Z" transform="translate(-2.836 -3.137)" fill="#002a55"/>
      <path id="Path_142" data-name="Path 142" d="M25.476,55.857A18.548,18.548,0,0,1,18.7,58.5a21.39,21.39,0,0,0,2.9,4.134c4.594-2.469,7.551-5.685,7.58-9.733h0a20.184,20.184,0,0,1-3.7,2.957Z" transform="translate(-13.316 -37.712)" fill="#002a55"/>
      <path id="Path_143" data-name="Path 143" d="M28.952,27.017c-.833,0-1.206.746-1.235,1.895S28,30.721,28.894,30.75s1.206-.632,1.235-1.838-.4-1.866-1.177-1.866Zm2.527,5.312a2.67,2.67,0,0,1-.689.086,2.067,2.067,0,0,1-1.608-.746l-.517-.546c-.373-.373-.775-.258-1.321-.8a2.1,2.1,0,0,1-.546-1.464,2.039,2.039,0,0,1,2.182-2.067,2.081,2.081,0,0,1,.632,4.077h-.029l.919.919a1.177,1.177,0,0,0,.976.431Z" transform="translate(-19.088 -19.093)" fill="#fff"/>
      <path id="Path_144" data-name="Path 144" d="M45.42,39.029h-.89v3.13A1.475,1.475,0,0,1,43.5,42.7a.689.689,0,0,1-.746-.775V39H41.4v.115c.4.115.488.2.488.574v2.067a1.244,1.244,0,0,0,1.349,1.321c.833,0,.775-.144,1.292-.6v.517h.89Z" transform="translate(-29.498 -27.803)" fill="#002f53"/>
      <path id="Path_145" data-name="Path 145" d="M16.684,29.885a1.637,1.637,0,0,1-1.235.574c-.746,0-1.436-.517-1.407-1.838s.488-1.723,1.235-1.723a1.321,1.321,0,0,1,1.235.947h.2V26.7H15.248a2.1,2.1,0,0,0-2.153,2.1,1.952,1.952,0,0,0,2.039,2.039,1.838,1.838,0,0,0,1.579-.746v-.23Z" transform="translate(-9.319 -19.032)" fill="#002f53"/>
    </g>
  </g>
</svg>
