<?xml version="1.0" encoding="utf-8"?>
<!-- Generator: Adobe Illustrator 24.1.3, SVG Export Plug-In . SVG Version: 6.00 Build 0)  -->
<svg version="1.1" id="Layer_1" xmlns="http://www.w3.org/2000/svg" xmlns:xlink="http://www.w3.org/1999/xlink" x="0px" y="0px"
	 viewBox="0 0 462.8 270" style="enable-background:new 0 0 462.8 270;" xml:space="preserve">
<style type="text/css">
	.st0{fill:#FFFFFF;}
	.st1{fill:#010101;}
	.st2{fill:#AC1F23;}
	.st3{fill:#EC2227;}
	.st4{fill:none;stroke:#010101;stroke-width:1.9875;}
	.st5{fill-rule:evenodd;clip-rule:evenodd;}
	.st6{fill-rule:evenodd;clip-rule:evenodd;fill:#010101;}
	.st7{fill-rule:evenodd;clip-rule:evenodd;fill:#EC2227;}
	.st8{fill-rule:evenodd;clip-rule:evenodd;fill:#E5CA71;}
	.st9{fill-rule:evenodd;clip-rule:evenodd;fill:#FFFFFF;}
	.st10{fill-rule:evenodd;clip-rule:evenodd;fill:#AC1F23;}
	.st11{fill-rule:evenodd;clip-rule:evenodd;fill:#F37154;}
	.st12{fill-rule:evenodd;clip-rule:evenodd;fill:#FAA51D;}
	.st13{fill:url(#XMLID_22_);}
	.st14{fill:url(#XMLID_23_);}
	.st15{fill:url(#XMLID_67_);}
	.st16{fill:url(#XMLID_76_);}
	.st17{fill:url(#XMLID_77_);}
	.st18{fill:url(#XMLID_78_);}
	.st19{fill:url(#XMLID_79_);}
	.st20{fill:url(#XMLID_80_);}
	.st21{fill:url(#XMLID_107_);}
	.st22{fill:url(#XMLID_108_);}
	.st23{fill:url(#XMLID_109_);}
	.st24{fill:url(#XMLID_110_);}
	.st25{fill:url(#XMLID_134_);}
	.st26{fill:url(#XMLID_135_);}
	.st27{fill:url(#XMLID_138_);}
	.st28{fill:url(#XMLID_139_);}
	.st29{fill:url(#XMLID_140_);}
	.st30{fill:url(#XMLID_141_);}
	.st31{fill:url(#XMLID_142_);}
	.st32{fill:url(#XMLID_143_);}
	.st33{fill:url(#XMLID_144_);}
	.st34{fill:url(#path2236_2_);}
	.st35{fill:none;stroke:#010101;stroke-width:1.8817;}
</style>
<path id="XMLID_1_" class="st0" d="M228.6,251.4c-13.5,0-26.2-6.6-33.9-17.7c-1.4-2-2.7-4.2-3.7-6.4c-4.2,1.2-7.6,1.3-9,1.3
	c-0.6,0-0.9,0-0.9,0l-2.5-0.2l-0.2-2.5c-0.3-4.3,0-7.9,0.4-10.7c-2.7,0.9-5.2,1.5-7.5,1.8l-3,0.4l-0.2-3.1c0-0.3-0.3-5.9,2.6-14.1
	c-3.6,1.1-6.9,1.8-10,2.3l-3.2,0.5v-3.3c0-4.3,1.2-7.9,2.6-10.8c-19.3,6.6-33.6,15.9-39.9,25.9l-1.1,1.8l-48.4-12.9l10.8-48.2
	c-4.3-0.5-5.6-1.4-6-1.7c-2.1-1.5-2.5-3.2-2.4-4.3c0.1-0.9,0.4-1.7,0.9-2.5C48.8,146,32.4,132,31.7,131.4l-8-6.9l10.4,2
	c3.1,0.6,6.5,0.9,10.2,0.9C18,118.1,9.5,100.7,9.1,99.8L5,91l8.2,5.2c9.6,6.1,21.5,9,30.7,10.4C23,94.4,13.8,79.9,10.3,72.6
	c-1-2.4-1.8-4.2-2.2-7c-0.4-2.8-0.2-5.2-0.2-5.2l5.2,5.2c0.6,0.8,2.3,2.2,3,2.9c12.6,12.7,28.2,17.2,38.8,19.9
	C33.2,70.3,25.9,52,23.5,42.8c-1-3.6-0.8-5.8-0.8-5.9c0-3.3,1.6-7.3,1.6-7.3l2.5,5.2c0.7,1.7,2.7,5.3,3.8,7.3
	c9.6,17.6,31.3,28.7,44.7,34.2C62.1,60.7,58.7,45.3,58.5,44.5l-2-9.5l6.8,7c0.3,0.3,28.6,29,58.5,36.6c-0.3-0.4-0.6-0.7-0.8-1.1
	l-9-12.6l-5-8.1l9.5,5.6c0,0,4.3,2.8,7,4.1c17.5,9.7,37.9,10.4,37.9,10.4l-4.2-4.5c0,0,10.6,1.8,19.7,2.6c9.1,0.8,13.7-0.7,13.7-0.7
	c-9.3-3.8-14.3-12.2-15.1-17.8c-0.8-5.4,1.2-10.1,5.5-13.2c-0.2-2.6,0.5-5.5,4.7-8.5c0.6-1.7,1.5-3.2,2.9-4.5
	c1.6-1.9,3.7-3.5,6.1-4.8c3.2-1.8,11.4-6.1,21-6.1c1.7,0,3.5,0.1,5.1,0.4c1.2,0.2,2.5,0.5,4,0.9l0,0c0.5,0.1,13,3,26.4,12.1
	c6.6,4.6,8.1,5.9,7.4,8.2c-0.2,0.8-0.8,1.4-1.6,1.8c1.4,1.4,2.9,3,4.4,4.5c5.1,5.4,5.4,7.5,5.1,8.9l-0.8,3.1l-2-0.8
	c1.4,2.9,3,6.7,4,8.9c1,2.2,1.7,4.5,3.4,7.6c1.7,3.1,12.4,1.3,15.8,0.9c3.4-0.4,17.4-3.3,17.4-3.3l-6.4,5.7
	c21.7-4,33.9-10.7,33.9-10.7l16.6-9c0,0-1.5,4.3-3.9,7.8c-0.9,1.2-2.4,3.5-4.1,5.5l-3.9,5.5c-0.3,0.4-0.6,0.8-0.8,1.1
	c30-7.5,58.2-36.2,58.5-36.6l6.8-7l-2,9.5c-0.2,0.8-3.5,16.1-16.8,31.7c14.2-5.8,37.5-17.8,46.2-37.1c0.5-1.1,5-9.7,5-9.7
	s2.8,5.3,1.1,12.1c-2,8.6-8.8,27.6-31.7,46.8c10.6-2.2,27.2-7.6,39.2-20.3c0.8-0.9,1.9-1.9,2.7-2.8l4.5-5.1c0,0,0.8,3.6,0.2,6.2
	c-0.5,2.6-0.8,3.7-2.2,6.6c-3.7,7.4-12.9,21.7-33.5,33.6c9.2-1.4,21.1-4.2,30.7-10.4l8.2-5.2l-4.1,8.8c-0.4,0.9-8.9,18.3-35.3,27.5
	c3.7,0,7.2-0.3,10.2-0.9l10.4-2l-8,6.9c-0.7,0.6-17.1,14.6-42.2,15.7c0.5,0.7,0.8,1.6,0.9,2.5c0.1,1.2-0.3,2.9-2.4,4.3
	c-0.5,0.3-1.8,1.2-6.4,1.8c4.3,20.1,9.4,43.9,10.5,48.8l-47.9,11.6l-1.1-1.7c-6.9-10.5-21.5-19.9-41-26.4c1.6,2.9,3.1,6.9,3.1,11.7
	v3.3l-3.2-0.5c-3.1-0.4-6.4-1.2-10-2.3c2.8,8.2,2.6,13.9,2.6,14.1l-0.2,3.1l-3-0.4c-2.4-0.3-4.9-0.9-7.5-1.8
	c0.5,2.8,0.7,6.3,0.4,10.7l-0.2,2.5l-2.5,0.2c0,0-0.3,0-0.9,0c-1.3,0-4.5-0.1-8.4-1.2c-3.1,6.6-7.8,12.3-13.8,16.5
	C245.3,248.9,237.1,251.4,228.6,251.4L228.6,251.4z M194.3,220.2l1,2.6c1,2.7,2.4,5.3,4.1,7.7c6.7,9.5,17.6,15.2,29.3,15.2
	c7.3,0,14.4-2.2,20.4-6.4c5.8-4.1,10.3-9.7,12.8-16.3l1-2.5l2.6,0.9c2.8,1,5.3,1.4,7,1.5c0-5.8-1-9.4-1.7-11.2l-2.4-6.3l6.2,2.7
	c2.8,1.2,5.4,2.1,7.8,2.7c-0.4-3.1-1.4-8.1-4.2-14l-2.9-6.2l6.5,2.4c4,1.5,7.8,2.6,11.2,3.3c-1.2-5.7-4.9-9.5-4.9-9.5
	c-0.7-0.7-1.4-1.3-2.2-2l2.7-4.8c24.4,6.6,42.7,17.2,51.9,29.8l38.6-9.4c-1.5-7.1-5.7-27-9.9-46.5l-0.7-3.2l3.3-0.2
	c3.2-0.2,5-0.5,5.9-0.7c-1.2-0.9-3.3-2-4.7-2.7l-0.5-0.3l1.6-5.3c2,0.2,4.1,0.3,6.1,0.3c13.9,0,25.3-4.5,32.6-8.5
	c-9,0-16.3-1.7-16.6-1.8l0.2-5.6c20.5-3.4,32.9-12.2,39.6-19.1c-17.4,6.8-36.1,6.9-37,6.9l-1.2-5.4c18.4-7.9,29.8-18.1,36.5-26.5
	c-19.1,12.7-41,14-42.1,14.1l-9.7,0.5l7.9-5.6c15.3-10.9,24.6-22.2,30.2-31.6c-18.8,18.4-47.3,26.5-48.9,26.9l-2.6-4.9
	c10.6-9.2,16.8-19.5,20.2-27c-12.4,10.8-36.7,29-61.5,31.8l-9,1l6.8-5.9c1.4-1.2,3.6-3.4,5.9-6.6l0.6-0.8c-3.6,1.4-8.7,5.4-15.6,5.9
	l-5.7,1.7L273,83.2l-3.6-3.1c-9.9-1.4-10.4-10.6-11.3-12.5l-0.2-0.4l-0.2-0.9l-1-5.2l2.2,1c-0.7-1.5-1.4-2.9-2.2-4.4l-0.1-0.1
	c-0.5-1-1.1-2.1-1.7-3.3l-3.7-6.9l3.5,1.4c-4-4.1-8.2-8-8.2-8l-7.5-6.9l4.7,1c-10.8-6.5-20.3-8.7-20.4-8.7l0.2-0.9l-0.3,0.9
	c-1.3-0.4-2.5-0.6-3.6-0.8c-1.3-0.2-2.7-0.3-4.2-0.3c-8.2,0-15.4,3.7-18.2,5.3l-0.1,0.1c-1.8,0.9-3.3,2.1-4.5,3.5l-0.2,0.2
	c-0.9,0.9-1.5,1.8-1.7,2.9l-0.3,1.1l-1,0.6c-3.5,2.2-3.2,3.2-2.8,5.1l0.5,2.1l-1.9,1c-3.4,1.9-4.9,4.8-4.3,8.5
	c0.7,4.6,4.4,9.5,8.7,12.1c0-2.1,0.4-4.4,1.4-6c1.1-1.9,2.7-2.5,3.8-2.7l0.1,0c0.8-0.1,1.5-0.2,2.2-0.3l1.4-0.1l0.9,1.1
	c1.1,1.4,3.5,5,2.4,10.1l-0.1,0.2c-0.1,0.3-0.2,0.6-0.3,0.9c-0.6,1.9-2.1,3.4-4.4,4.4l0.2,0.6l-1.1-0.2c-1.4,0.5-3.1,0.9-5,1.2
	l-6.2,4.3l-30-0.1c-6.9-0.5-26.5-6.4-30.1-7.8l0.6,0.8c2.3,3.2,4.5,5.4,5.9,6.6l6.8,5.9l-9-1c-24.7-2.7-49-20.9-61.5-31.8
	c3.4,7.5,9.6,17.9,20.2,27l-2.6,4.9c-1.6-0.4-29.9-8.5-48.8-26.8c5.6,9.4,14.9,20.7,30.1,31.5l7.9,5.6L65,95.6
	c-1.2-0.1-23-1.3-42.1-14.1c6.8,8.4,18.1,18.6,36.5,26.5l-1.1,5.4c-1,0-19.7-0.1-37.1-6.9c6.8,6.9,19.1,15.7,39.6,19.1l0.2,5.6
	c-0.3,0.1-7.7,1.7-16.6,1.8c7.3,4,18.7,8.5,32.6,8.5c2,0,4.1-0.1,6.1-0.3l1.6,5.3l-0.5,0.3c-1.4,0.7-3.5,1.9-4.7,2.7
	c0.9,0.2,2.6,0.5,5.6,0.7l3.3,0.2l-11,49.2l39.1,10.5c8.6-12,26.3-22.3,50.3-29.2l2.7,4.8l-0.4,0.4c-0.2,0.2-0.5,0.4-0.7,0.7
	c0,0-3.7,3.8-4.9,9.5c3.4-0.7,7.1-1.8,11.2-3.3l6.5-2.4l-2.9,6.2c-2.8,5.9-3.8,10.9-4.2,14c2.4-0.6,5.1-1.5,7.9-2.7l6.2-2.7
	l-2.5,6.4c-0.7,1.8-1.7,5.4-1.7,11.2c1.9-0.2,4.6-0.6,7.6-1.7L194.3,220.2L194.3,220.2z M196,64.5c-0.6,0.8-0.7,3.5-0.5,5.3
	c0.5-0.3,0.7-0.6,0.8-0.8c0.1-0.2,0.1-0.5,0.2-0.7C196.8,66.8,196.5,65.5,196,64.5C196,64.5,196,64.5,196,64.5L196,64.5z"/>
<path id="XMLID_5_" class="st0" d="M193.6,220.7l0.9,2.3c1.1,2.9,2.5,5.7,4.3,8.2c6.7,9.6,17.8,15.4,29.5,15.4
	c7.4,0,14.5-2.2,20.6-6.5c6.1-4.2,10.6-10.2,13.2-17.1l0.9-2.3l2.3,0.8c3,1.1,5.7,1.4,7.5,1.6c0.1-6-1-9.8-1.7-11.7l-2.2-5.6
	l5.5,2.4c3,1.3,5.8,2.3,8.3,2.8c-0.3-3.1-1.3-8.3-4.3-14.5L276,191l5.7,2.1c4.2,1.6,8.2,2.7,11.7,3.4c-1.1-6.1-5-10.1-5.1-10.2
	c-0.7-0.7-1.4-1.4-2.2-2l2.4-4.3c24.4,6.7,42.8,17.2,51.8,29.8l39.1-9.6c-1.4-6.8-5.7-27-9.9-46.8l-0.6-2.9l2.9-0.2
	c3.9-0.2,5.8-0.7,6.6-0.9c-1.1-0.9-3.6-2.3-5.2-3.1l-0.5-0.3l1.4-4.7c2,0.2,4.1,0.3,6.1,0.3c14.7,0,26.6-5,33.9-9.1
	c-0.3,0-0.6,0-0.9,0c-9.1,0-16.6-1.7-16.9-1.8l0.1-4.9c21.7-3.6,34.3-13.2,40.8-20.3c-17.7,7.3-37.3,7.4-38.3,7.4l-1-4.8
	c19.7-8.4,31.3-19.6,38-28.2c-19.4,13.8-42.5,15.1-43.7,15.2l-8.6,0.4l7-5c16.4-11.7,25.9-23.9,31.5-33.7
	c-18.7,19.5-48.7,28-50.4,28.5l-2.3-4.3c11.3-9.7,17.5-20.8,20.8-28.5c-12.1,10.6-37,29.8-62.4,32.6l-7.9,0.9l6-5.3
	c1.4-1.2,3.6-3.4,5.9-6.6l1.2-1.7c-3.5,1.4-6.9,6.4-14.4,7l-3.7,0.4l-34.7,3.9l-6.9-2.8c-8.6,9.9-13.7-11.1-14.9-13.5l-0.2-0.3
	l-0.2-0.9l-0.9-4.7l2.5,1.1c-0.8-1.7-1.6-3.5-2.6-5.1l-0.1-0.1c-0.5-1-1.1-2.1-1.7-3.3L252,48l4.1,1.7c-4.4-4.5-9.3-9.1-9.3-9.1
	l-6.7-6.2l5.4,1.1c-11.5-7.3-21.9-9.7-22-9.7l0.2-0.7l-0.3,0.7c-1.3-0.4-2.5-0.7-3.6-0.8c-1.4-0.2-2.8-0.3-4.2-0.3
	c-8.3,0-15.6,3.7-18.3,5.4l-0.1,0.1c-1.8,1-3.4,2.2-4.6,3.6l-0.2,0.2c-0.9,0.9-1.5,1.9-1.8,3.1l-0.2,1l-0.9,0.5
	c-3.6,2.3-3.4,3.5-2.9,5.4l0.4,1.8l-1.6,0.9c-3.6,2-5.1,5-4.5,8.9c0.7,5,4.7,10.1,9.3,12.6c0-2.2,0.3-4.6,1.3-6.4
	c1.1-1.8,2.5-2.4,3.6-2.5l0.1,0c0.8-0.1,1.5-0.2,2.2-0.3l1.3-0.1l0.8,1c1.1,1.3,3.4,4.9,2.3,9.8l0,0.2c-0.1,0.3-0.2,0.6-0.3,0.9
	c-0.6,1.9-2.2,3.3-4.5,4.3l0.1,0.3l-0.6-0.1c-1.4,0.5-3.1,0.9-5,1.2L174.8,82l-33.6-5.5c-7.5-0.5-13.6-2.6-17-4l1.2,1.7
	c2.3,3.2,4.5,5.4,5.9,6.6l6,5.3l-7.9-0.9C104,82.4,79.1,63.2,67,52.6c3.3,7.6,9.6,18.7,20.8,28.5l-2.3,4.3
	c-1.6-0.5-31.7-9-50.4-28.5c5.5,9.9,15,22,31.5,33.7l7,5L65,95.2c-1.2-0.1-24.3-1.4-43.7-15.2c6.6,8.7,18.3,19.8,38,28.2l-1,4.8
	c-1,0-20.7-0.1-38.3-7.4c6.6,7,19.1,16.7,40.9,20.3l0.1,4.9c-0.3,0.1-7.8,1.8-16.9,1.8c-0.3,0-0.6,0-0.9,0
	c7.3,4.1,19.2,9.1,33.8,9.1c2,0,4.1-0.1,6.1-0.3l1.4,4.7l-0.5,0.3c-1.6,0.9-4.1,2.2-5.2,3.1c0.6,0.2,2.3,0.7,6.3,0.9l3,0.2l-11,49
	l0,0l0,0.1l39.6,10.6c8.5-12,26.2-22.4,50.2-29.3l2.4,4.3l-0.3,0.3c-0.3,0.3-0.6,0.5-0.9,0.8c0,0-4,4.1-5,10.1
	c3.5-0.7,7.5-1.9,11.7-3.4l5.7-2.1l-2.6,5.5c-2.9,6.3-3.9,11.5-4.3,14.5c2.6-0.6,5.4-1.6,8.4-2.9l5.5-2.4l-2.2,5.6
	c-0.7,1.8-1.8,5.6-1.7,11.7c1.8-0.1,4.5-0.5,7.6-1.6L193.6,220.7L193.6,220.7z M195.9,64.1c-0.7,0.7-0.9,4.1-0.6,6.1
	c0.8-0.4,1.2-0.8,1.3-1.2c0.1-0.2,0.2-0.5,0.2-0.7c0.4-1.8-0.1-3.3-0.6-4.3C196.1,64.1,196,64.1,195.9,64.1L195.9,64.1L195.9,64.1z
	 M301.6,92.1h-8.4l0-9.5L301.6,92.1L301.6,92.1z"/>
<g id="XMLID_10_">
	<path id="XMLID_18_" class="st1" d="M314.6,162.5c-2.6,1.5-8.6,0.2-14.1-2.8V81.5c25.2-3.8,42.5-18.1,42.5-18.1s-9.1,12.8-19,19.5
		c35.3-1.6,71.8-39.2,71.8-39.2s-4.5,21.5-24.8,39.1c0,0,49.8-13.9,61-46.3c0,0-2.3,29.2-40,56c0,0,34.4-1.7,54.1-25.6
		c0,0-8.3,26.8-47.2,43.4c0,0,27.5,0.2,46.6-12c0,0-11,23.5-48.7,29.9c0,0,14.2,3.2,26.8,0.8c0,0-20.2,17.5-49.8,14.8
		c4.9,2.6,9.8,5.1,6.3,7.5c-3,2.1-20.9,2.4-32.2-0.7c0.7,0.7,1.4,1.3,2.3,1.9c3.5,2.6,7.9,8.2,0.5,8.2c-5,0-13-1.8-19.7-5.1
		c1.1,0.9,2.2,2.1,3.1,3.2c3.2,4.2,3.7,9.3-9.9,3.4c-4.4-1.9-8-4-11-5.9C315.1,158.9,316.5,161.4,314.6,162.5z"/>
</g>
<g id="XMLID_11_">
	<path class="st2" d="M310.8,101.7c0,0,2.9,9.2,5.4,11.6c0,0-13.1-4-21.5-13.4c0,0,1.7,9.7,6.2,15c0,0-10.7-2.6-12.2-6.2
		c0,0,8.1,7.3,12.9,10.7c4.8,3.4,9.3,4.1,10.5,3.5c1.2-0.6-8.6-8-10.5-14.4c0,0,9.2,7.2,15,9.6c5.7,2.5,9.5,3,10.5,2.3
		c1-0.7-8.8-6.6-11-11.4c0,0,14.3,7.8,25.6,10.2C337.8,117.8,321.7,111.5,310.8,101.7z M299.2,155.9c6.7,3.1,7.4-2.2,2.6-8.3
		c-4.8-6.2-5.1-8.4-5.1-8.4s7.2,7,11.7,10.7c12.4,10.1,19.5,8.5,12.2,1.4c-7.4-7.1-9.3-13.2-9.3-13.2s7.2,8.4,14.6,12.7
		c7.4,4.3,16.6,4.9,17.9,3.7c1.3-1.2-12.9-11.4-15.5-19.6c0,0,8.4,7.5,17.6,11.4c9.2,3.9,23.7,4,24.5,3.1
		c0.8-0.9-11.7-4.2-18.6-11.6c0,0,10.2,2.5,24,2.5c11.9,0,25.2-4,27.8-5.9c-19.8,0.7-34.7-6-34.7-6c3.4,0.6,33.7-0.6,51.7-14.7
		c-15.8,2.1-34.7,3.3-45.5,3.3c0,0,21.8-4.2,46.4-26.2c-7.8,2.3-32.8,9.4-58.3,12.2c17.6,1.2,40-2.9,40-2.9s-38.4,22.1-59.4,18.1
		c13.6,5.5,46,3.4,46,3.4c-22.7,5.5-39.2,2.6-39.2,2.6c7.5,7,30.8,12.1,30.8,12.1c-15,3.1-43.1-8-43.1-8c3.3,8.6,16.7,17,16.7,17
		s-17.8-5.5-22.9-9.5c-4.1-3.2-12-10.8-14.9-13.7c-0.3-0.1-0.4-0.2-0.4-0.2s6.3,6.4,3.4,8.1c3.6,5,9,11.1,9.7,13.3
		c1,3-3.3,4.2-9.3-0.4c-5.2-4-11.5-14-13.2-16.8c-3.4-1.7-6.1-3.3-6.1-3.3s1,2.5,1.3,4.9c2.4,4.5,6.8,10.3,8,13.2
		c1.5,3.7-2.2,4-7.6,0c-3.7-2.8-12.3-10.4-10.2-5.5c3.6,8.1,1.6,12.8-2.8,8.7C286.6,140.9,297.1,154.9,299.2,155.9z M400.9,77.1
		c-10,3.5-35.9,16.2-59.5,19.8c11.7-0.7,36.2-6.8,36.2-6.8c-4.4,6.6-13.8,12.5-14.4,12.8C366.9,101.6,386.4,94.9,400.9,77.1z
		 M341.4,96.9c0,0,27.2-12.5,40-34.2c-9.4,5.4-33.8,23.5-63.3,24.7c23.9,0.2,46.3-10.5,46.3-10.5C360.4,83.3,341.4,96.9,341.4,96.9z
		"/>
</g>
<g id="XMLID_12_">
	<path id="XMLID_19_" class="st3" d="M300.5,156.4v-10.5c0.4,0.5,0.8,1.1,1.2,1.7C306.2,153.3,305.9,158.2,300.5,156.4z"/>
	<path id="XMLID_20_" class="st3" d="M300.5,142.9v-11.3c0.5,0,0.9,0,1.1-0.1c2.5-1.2-0.5-8.7-0.5-8.7s15,8.8,18.6,7.4
		c3.6-1.4-3-8.2-3-8.2s14.8,6.4,18.6,4.9c2.2-0.8,1-3.5-0.4-5.6c6,2.2,13.5,3.5,13.5,3.5c-6.8-2.4-10.8-5.1-10.8-5.1
		c3,0.3,7,0.1,7,0.1c-11.6-1.5-28.5-10.7-28.5-10.7c2.2,4.8,12,10.7,11,11.4c-1.1,0.7-4.8,0.2-10.5-2.3c-5.7-2.5-15-9.6-15-9.6
		c1.9,6.4,11.7,13.8,10.5,14.4c-1.2,0.6-5.7-0.1-10.5-3.5c-0.4-0.3-0.7-0.5-1.1-0.8V96.1c12-2.3-48.8-5.6-48.8-5.6
		s21.5-5.6,10.5-4.8l38.3-1.2c12.6-1.3,20.3-4.4,24.1-6.3c-5.3,6.4-11.2,9.2-11.2,9.2c32.1,0,53.5-13,61.4-18.8
		c-12.2,17.7-33.5,28.2-33.5,28.2c23.6-3.6,38.1-8.5,45.2-11.4c-12.8,13.7-23.3,17.4-23.3,17.4c26.3-1.2,37.4-3.9,45.6-6.2
		c-15.6,17-48.4,22-48.4,22c10.9,0,28.8,1.4,42.3-1.4c-9.6,8.9-37.9,10.7-41.3,10.1c0,0,11.1,8.6,30.9,7.8c-3.7,2.1-8.3,4-20.2,4
		c-13.8,0-21.1-2.8-21.1-2.8c6.9,7.4,20.2,12.2,19.4,13.1c-0.8,0.9-15.3,0.8-24.5-3.1c-9.2-3.9-17.6-11.4-17.6-11.4
		c2.7,8.2,16.8,18.4,15.5,19.6c-1.3,1.2-10.5,0.6-17.9-3.7c-7.4-4.3-14.6-12.7-14.6-12.7s2,6.2,9.3,13.2c7.4,7.1,0.2,8.6-12.2-1.4
		C306,148,302.9,145.2,300.5,142.9z"/>
</g>
<polyline id="XMLID_24_" class="st2" points="325.9,76.1 330.9,74.5 326.2,79.6 "/>
<g id="XMLID_27_">
	<path id="XMLID_26_" class="st1" d="M142.5,162.5c2.6,1.5,8.6,0.2,14.1-2.8V81.5c-25.2-3.8-42.5-18.1-42.5-18.1s9.1,12.8,19,19.5
		c-35.3-1.6-71.8-39.2-71.8-39.2s4.5,21.5,24.8,39.1c0,0-49.8-13.9-61-46.3c0,0,2.3,29.2,40,56c0,0-34.4-1.7-54.1-25.6
		c0,0,8.3,26.8,47.2,43.4c0,0-27.5,0.2-46.6-12c0,0,11,23.5,48.7,29.9c0,0-14.2,3.2-26.8,0.8c0,0,20.2,17.5,49.8,14.8
		c-4.9,2.6-9.8,5.1-6.3,7.5c3,2.1,20.9,2.4,32.2-0.7c-0.7,0.7-1.4,1.3-2.3,1.9c-3.5,2.6-7.9,8.2-0.5,8.2c5,0,13-1.8,19.7-5.1
		c-1.1,0.9-2.2,2.1-3.1,3.2c-3.2,4.2-3.7,9.3,9.9,3.4c4.4-1.9,8-4,11-5.9C142,158.9,140.7,161.4,142.5,162.5z"/>
</g>
<path class="st2" d="M115.4,119.3c11.3-2.4,25.6-10.2,25.6-10.2c-2.2,4.8-12,10.7-11,11.4c1.1,0.7,4.8,0.2,10.5-2.3
	c5.7-2.5,15-9.6,15-9.6c-1.9,6.4-11.7,13.8-10.5,14.4c1.2,0.6,5.7-0.1,10.5-3.5c4.8-3.4,12.9-10.7,12.9-10.7
	c-1.5,3.6-12.2,6.2-12.2,6.2c4.6-5.3,6.2-15,6.2-15c-8.3,9.4-21.5,13.4-21.5,13.4c2.5-2.5,5.4-11.6,5.4-11.6
	C135.5,111.5,119.4,117.8,115.4,119.3z M167.2,144c-4.4,4.1-6.4-0.6-2.8-8.7c2.2-4.8-6.5,2.8-10.2,5.5c-5.4,4-9.1,3.7-7.6,0
	c1.2-2.9,5.7-8.7,8-13.2c0.3-2.4,1.3-4.9,1.3-4.9s-2.7,1.6-6.1,3.3c-1.7,2.8-8,12.9-13.2,16.8c-6.1,4.6-10.4,3.4-9.3,0.4
	c0.8-2.2,6.1-8.3,9.7-13.3c-2.9-1.7,3.3-8.1,3.3-8.1s-0.2,0.1-0.4,0.2c-2.9,2.8-10.8,10.5-14.9,13.7c-5.1,4-22.9,9.5-22.9,9.5
	s13.4-8.4,16.7-17c0,0-28.1,11.1-43.1,8c0,0,23.3-5.1,30.8-12.1c0,0-16.5,2.9-39.2-2.6c0,0,32.4,2,46-3.4c-21,4-59.4-18.1-59.4-18.1
	s22.5,4.2,40,2.9c-25.5-2.7-50.5-9.9-58.3-12.2c24.6,22,46.4,26.2,46.4,26.2c-10.9,0-29.8-1.2-45.5-3.3c18,14.1,48.3,15.3,51.7,14.7
	c0,0-14.9,6.8-34.7,6c2.6,1.9,15.9,5.9,27.8,5.9c13.8,0,24-2.5,24-2.5c-6.9,7.4-19.4,10.7-18.6,11.6c0.8,0.9,15.3,0.8,24.5-3.1
	c9.2-3.9,17.6-11.4,17.6-11.4c-2.7,8.2-16.8,18.4-15.5,19.6c1.3,1.2,10.5,0.6,17.9-3.7c7.4-4.3,14.6-12.7,14.6-12.7s-2,6.2-9.3,13.2
	c-7.4,7.1-0.2,8.6,12.2-1.4c4.6-3.7,11.7-10.7,11.7-10.7s-0.3,2.2-5.1,8.4c-4.8,6.2-4.1,11.4,2.6,8.3
	C160.1,154.9,170.6,140.9,167.2,144z M94,102.9c-0.7-0.4-10.1-6.2-14.4-12.8c0,0,24.5,6.1,36.2,6.8c-23.6-3.6-49.5-16.3-59.5-19.8
	C70.8,94.9,90.2,101.6,94,102.9z M92.8,76.9c0,0,22.4,10.6,46.3,10.5c-29.5-1.2-53.9-19.3-63.3-24.7c12.9,21.7,40,34.2,40,34.2
	S96.7,83.3,92.8,76.9z"/>
<path id="XMLID_28_" class="st3" d="M156.6,156.4v-10.5c-0.4,0.5-0.8,1.1-1.2,1.7C151,153.3,151.2,158.2,156.6,156.4z"/>
<path id="XMLID_34_" class="st3" d="M156.6,142.9v-11.3c-0.5,0-0.9,0-1.1-0.1c-2.5-1.2,0.5-8.7,0.5-8.7s-15,8.8-18.6,7.4
	c-3.6-1.4,3-8.2,3-8.2s-14.8,6.4-18.6,4.9c-2.2-0.8-1-3.5,0.4-5.6c-6,2.2-13.5,3.5-13.5,3.5c6.8-2.4,10.8-5.1,10.8-5.1
	c-3,0.3-7,0.1-7,0.1c11.6-1.5,28.5-10.7,28.5-10.7c-2.2,4.8-12,10.7-11,11.4c1.1,0.7,4.8,0.2,10.5-2.3c5.7-2.5,15-9.6,15-9.6
	c-1.9,6.4-11.7,13.8-10.5,14.4c1.2,0.6,5.7-0.1,10.5-3.5c0.4-0.3,0.7-0.5,1.1-0.8V96.1C144.7,93.8,135,90,135,90s10.7,1.4,21.7,2.2
	v-7.7c-12.6-1.3-20.3-4.4-24.1-6.3c5.3,6.4,11.2,9.2,11.2,9.2c-32.1,0-53.5-13-61.5-18.8c12.2,17.7,33.5,28.2,33.5,28.2
	c-23.6-3.6-38.1-8.5-45.2-11.4c12.8,13.7,23.3,17.4,23.3,17.4c-26.3-1.2-37.4-3.9-45.6-6.2c15.6,17,48.4,22,48.4,22
	c-10.9,0-28.8,1.4-42.3-1.4c9.6,8.9,37.9,10.7,41.3,10.1c0,0-11.1,8.6-30.9,7.8c3.7,2.1,8.3,4,20.2,4c13.8,0,21.1-2.8,21.1-2.8
	c-6.9,7.4-20.2,12.2-19.4,13.1c0.8,0.9,15.3,0.8,24.5-3.1c9.2-3.9,17.6-11.4,17.6-11.4c-2.7,8.2-16.8,18.4-15.5,19.6
	c1.3,1.2,10.5,0.6,17.9-3.7c7.4-4.3,14.6-12.7,14.6-12.7s-2,6.2-9.3,13.2c-7.4,7.1-0.2,8.6,12.2-1.4
	C151.1,148,154.2,145.2,156.6,142.9z"/>
<path id="path9163_10_" class="st4" d="M182.6,213.2"/>
<g id="XMLID_37_">
	<path id="XMLID_36_" class="st1" d="M290,184.6c-2.9-2.8-5.7-5.3-8.5-7.7H174.9c-2.8,2.4-5.6,4.9-8.5,7.7c0,0-6.1,6.1-6.1,15
		c5.3-0.8,10.8-2.4,15.3-4.1c-5,10.8-4.6,18.6-4.6,18.6c4.2-0.5,8.5-2,12-3.6c-0.9,2.4-2.2,7.3-1.8,15.1c0,0,6.5,0.4,13.8-3
		c1.1,9.7,4.6,12.2,4.6,12.2c2.9-2.3,7.5-5.2,10-6.6c1,3,2.5,6.4,4.6,9.5c0,0,4.1-2.2,6.7-5.4c1.4,2.1,3.7,4.7,7.4,6.8
		c3.7-2.1,6-4.6,7.4-6.8c2.6,3.2,6.7,5.4,6.7,5.4c2.1-3.1,3.5-6.5,4.6-9.5c2.5,1.4,7.5,4.4,10.4,6.8c0,0,3-2.7,4.2-12.4
		c7.3,3.4,13.8,3,13.8,3c0.5-7.8-0.8-12.7-1.8-15.1c3.5,1.6,7.8,3,12,3.6c0,0,0.4-7.9-4.6-18.6c4.5,1.7,10,3.4,15.3,4.1
		C296.1,190.6,290,184.6,290,184.6z"/>
</g>
<path id="XMLID_38_" class="st3" d="M220.2,203.9c-1.7,11.3-1.4,24.1-1.4,24.1s0.2,0.9,0.8,2.2c-1,1.2-3,3.3-5.1,4.4
	c0,0-3.5-7-4.3-13.8c-0.7-5.9,3.6-14.9,4.7-17.5c-1.3,1.6-5.6,7.5-7.2,17.6c0,0,0.3,2.1,1.2,5.2c-4.3,1.7-9.2,5.1-9.2,5.1
	c-1.5-3.3-2.6-11.8-2.6-11.8c6.3-22.5,18.4-29.5,18.4-29.5c-13.8,20.5-14.2,35.9-14.2,35.9c5.1-20.9,19-33.8,19-33.8
	c-6.3,18.3-4.2,32.6-4.2,32.6C215.8,215.1,220.2,203.9,220.2,203.9z"/>
<path id="XMLID_39_" class="st3" d="M256.7,231.1c0,0-4.9-3.4-9.2-5.1c0.9-3,1.2-5.2,1.2-5.2c-1.6-10.1-5.9-16-7.2-17.6
	c1.1,2.6,5.4,11.5,4.7,17.5c-0.8,6.9-4.3,13.8-4.3,13.8c-2.2-1.1-4.2-3.3-5.1-4.4c0.6-1.3,0.8-2.2,0.8-2.2s0.4-12.8-1.4-24.1
	c0,0,4.4,11.2,4.1,20.5c0,0,2.1-14.3-4.2-32.6c0,0,13.9,12.9,19,33.8c0,0-0.4-15.3-14.2-35.9c0,0,12.1,7.1,18.4,29.5
	C259.3,219.3,258.2,227.8,256.7,231.1z"/>
<path id="XMLID_40_" class="st3" d="M194.7,218.6c0,0.4,0,0.8,0.1,1.2c-1.2,0.6-6.2,2.8-11.6,3.4c0,0-0.2-7.6,3.8-14.6
	c2.8-1.4,4.6-2.6,4.6-2.6l0.4,3.3c4-17.6,17.8-24.8,17.8-24.8C197.1,202.3,194.7,218.6,194.7,218.6z"/>
<path id="XMLID_41_" class="st3" d="M273.3,223.3c-5.4-0.6-10.4-2.9-11.6-3.4c0-0.4,0.1-0.8,0.1-1.2c0,0-2.3-16.2-15-34
	c0,0,13.8,7.2,17.8,24.8l0.4-3.3c0,0,1.8,1.2,4.6,2.6C273.5,215.6,273.3,223.3,273.3,223.3z"/>
<path id="XMLID_42_" class="st3" d="M163.7,195.7c0,0,2.3-6.7,5-10.3c2.7-3.6,29.4-23.3,36.9-26.1c0,0-17.5,12.3-21.8,19
	c0,0,12.2-9.9,20.5-14.2c0,0-15.7,12.3-21,20.9c0,0,11.5-10.3,20.8-13.5c0,0-11.5,8.2-18.4,16.5C185.7,188,171.3,194.3,163.7,195.7z
	"/>
<path id="XMLID_43_" class="st3" d="M190.5,202.9c-5,4.7-16.1,7.3-16.1,7.3c0.8-7.1,3.4-13.1,5-16.2c3.7-1.5,6-2.7,6-2.7l-0.7,3
	c8.5-12.9,20.1-18.8,20.1-18.8c-10.1,8-15.1,18.7-15.1,18.7c6.9-9.6,17.5-13.5,17.5-13.5C196.3,189.5,190.5,202.9,190.5,202.9z"/>
<path id="XMLID_44_" class="st3" d="M228.2,235.5c0,0-4.7-2.7-7.2-7.9c0,0,0.6-18.6,5.4-34.4c0,0,0.6,19.4,1.7,34.4
	c1.2-14.9,1.8-34.4,1.8-34.4c4.8,15.8,5.4,34.4,5.4,34.4C232.9,232.9,228.2,235.5,228.2,235.5z"/>
<path id="XMLID_45_" class="st3" d="M282,210.2c0,0-11.1-2.7-16.1-7.3c0,0-5.8-13.4-16.8-22.1c0,0,10.6,3.8,17.5,13.5
	c0,0-5-10.7-15.1-18.7c0,0,11.6,5.9,20.1,18.8l-0.7-3c0,0,2.4,1.2,6,2.7C278.6,197.1,281.2,203.1,282,210.2z"/>
<path id="XMLID_46_" class="st3" d="M287.7,185.5c2.7,3.6,5,10.3,5,10.3c-7.6-1.5-22-7.7-22-7.7c-6.9-8.3-18.4-16.5-18.4-16.5
	c9.4,3.2,20.8,13.5,20.8,13.5c-5.3-8.6-21-20.9-21-20.9c8.3,4.3,20.5,14.2,20.5,14.2c-4.3-6.7-21.8-19-21.8-19
	C258.3,162.2,285,181.9,287.7,185.5z"/>
<path class="st2" d="M184.3,186.3c-0.4,0.4-12.6,4-12.6,4c3.5-7.5,8.8-13.6,12.6-17.4c-7.5,5.5-14.2,10.8-15.5,12.5
	c-2.7,3.6-5,10.3-5,10.3c7.6-1.5,22-7.7,22-7.7c6.9-8.3,18.4-16.5,18.4-16.5c-0.2,0.1-0.4,0.2-0.7,0.2
	C196.5,174.5,184.6,185.9,184.3,186.3z"/>
<path class="st2" d="M224.4,226.3c0,0-0.9-7.8-0.2-15.9c0,0-1.4,3.6-2.5,8.1c-0.6,5.5-0.7,9.1-0.7,9.1c2.4,5.2,7.2,7.9,7.2,7.9v-5.3
	C228.2,230.2,225.4,228.5,224.4,226.3z"/>
<path class="st2" d="M218.9,228c0,0-0.1-3.3,0-8.1c-1.6,3.9-2.2,9.1-2.2,9.1c-3.7-7.6-2.3-19.8-2.3-19.8c-2.7,8.4-1.8,18.4-1.8,18.4
	c-0.6-0.8-1.2-1.7-1.6-2.6c1.3,5.2,3.5,9.5,3.5,9.5c2.2-1.1,4.1-3.2,5.1-4.4C219.1,228.9,218.9,228,218.9,228z M207.7,212.8
	c-2.3,4.9-4.1,11.4-4.1,11.4l-2.8,3.2c-1.4-8.3,2.1-18.7,2.1-18.7c-2.2,2.9-5.8,10.6-5.8,10.6s1.1,8.5,2.6,11.8c0,0,4.9-3.4,9.2-5.1
	c-0.9-3-1.2-5.2-1.2-5.2V212.8z"/>
<path class="st2" d="M198.5,200.1c0,0-5.7,10-6.7,14.8l-4.1,2.3l1.2-6.4l1.8-1.5l1.2,1.4c0,0,4.2-13.4,11.6-21.5
	c-4.2,3.9-9.4,10.4-11.6,20.2l-0.4-3.3c0,0-1.8,1.2-4.6,2.6c-4,7-3.8,14.6-3.8,14.6c5.4-0.6,10.4-2.9,11.6-3.4
	c0-0.4-0.1-0.8-0.1-1.2c0,0,0.2-1.2,0.7-3.4C195.7,211.8,196.5,205.8,198.5,200.1z"/>
<path class="st2" d="M184.7,194.4l0.7-3c0,0-2.4,1.2-6,2.7c-1.6,3.1-4.2,9.1-5,16.2c0,0,11.1-2.7,16.1-7.3c0,0,0.1-0.2,0.2-0.5
	c0.4-2.1,1.4-6.2,3.8-10.1c0,0-5.3,4.8-8,10.4l-6.3,2.5c0,0,0.4-4.7,1.9-9.2l1.4-1.3l-0.2,2.3c0,0,11.1-14.1,18.6-19.7
	C197.8,180,190.5,185.5,184.7,194.4z M204,176c0.2-0.1,0.4-0.1,0.5-0.2c0.1-0.1,0.2-0.2,0.3-0.2C204.8,175.6,204.5,175.7,204,176z"
	/>
<path class="st2" d="M272.2,186.3c0.4,0.4,12.6,4,12.6,4c-3.5-7.5-8.8-13.6-12.6-17.4c7.5,5.5,14.2,10.8,15.5,12.5
	c2.7,3.6,5,10.3,5,10.3c-7.6-1.5-22-7.7-22-7.7c-6.9-8.3-18.4-16.5-18.4-16.5c0.2,0.1,0.4,0.2,0.7,0.2
	C259.9,174.5,271.8,185.9,272.2,186.3z"/>
<path class="st2" d="M232,226.3c0,0,0.9-7.8,0.2-15.9c0,0,1.4,3.6,2.5,8.1c0.6,5.5,0.7,9.1,0.7,9.1c-2.4,5.2-7.2,7.9-7.2,7.9v-5.3
	C228.2,230.2,231.1,228.5,232,226.3z"/>
<path class="st2" d="M236.8,230.2c1,1.2,3,3.3,5.1,4.4c0,0,2.2-4.3,3.5-9.5c-0.4,0.8-1,1.7-1.6,2.6c0,0,0.9-10-1.8-18.4
	c0,0,1.4,12.2-2.3,19.8c0,0-0.6-5.2-2.2-9.1c0.1,4.8,0,8.1,0,8.1S237.4,228.9,236.8,230.2z M248.7,220.9c0,0-0.3,2.1-1.2,5.2
	c4.3,1.7,9.2,5.1,9.2,5.1c1.5-3.3,2.6-11.8,2.6-11.8s-3.6-7.7-5.8-10.6c0,0,3.4,10.5,2.1,18.7l-2.8-3.2c0,0-1.7-6.5-4.1-11.4V220.9z
	"/>
<path class="st2" d="M257.9,200.1c0,0,5.7,10,6.7,14.8l4.1,2.3l-1.2-6.4l-1.8-1.5l-1.2,1.4c0,0-4.2-13.4-11.6-21.5
	c4.2,3.9,9.4,10.4,11.6,20.2l0.4-3.3c0,0,1.8,1.2,4.6,2.6c4,7,3.8,14.6,3.8,14.6c-5.4-0.6-10.4-2.9-11.6-3.4c0-0.4,0.1-0.8,0.1-1.2
	c0,0-0.2-1.2-0.7-3.4C260.7,211.8,260,205.8,257.9,200.1z"/>
<path class="st2" d="M254.6,177.4c7.5,5.5,18.6,19.7,18.6,19.7l-0.2-2.3l1.4,1.3c1.4,4.5,1.9,9.2,1.9,9.2l-6.3-2.5
	c-2.7-5.6-8-10.4-8-10.4c2.4,3.8,3.4,7.9,3.8,10.1c0.1,0.3,0.2,0.5,0.2,0.5c5,4.7,16.1,7.3,16.1,7.3c-0.8-7.1-3.4-13.1-5-16.2
	c-3.7-1.5-6-2.7-6-2.7l0.7,3C265.9,185.5,258.6,180,254.6,177.4z M251.6,175.6c0.1,0.1,0.2,0.2,0.3,0.2c0.1,0.1,0.3,0.1,0.5,0.2
	C251.9,175.7,251.6,175.6,251.6,175.6z"/>
<path id="XMLID_47_" class="st1" d="M168.7,78.8c0,0-8.3,2.1-24.6-1.4c-16.3-3.6-23.3-9-23.3-9s11.6,10.7,26.2,12
	c14.6,1.3,26.2-0.5,26.2-0.5L168.7,78.8z"/>
<polygon id="XMLID_56_" class="st5" points="258.6,76.8 259.7,82.3 263.5,81 "/>
<path id="XMLID_57_" class="st6" d="M197,60.9c0,0,5.7,5.5-0.3,13.1c-3.4,4.2-11.9,4.9-16.4,5.1c-4.5,0.2-15.6,2.1-24.3,1
	c-13.7-1.7-29.2-7.6-29.2-7.6s13.1,7.9,36.2,10.3c20,2,32.3-2.1,34.8-4.7c2.9-3,5.5-4.4,4.7-11.7C201.7,59.1,197,60.9,197,60.9z"/>
<path id="XMLID_58_" class="st3" d="M257.7,71.9c0,0,3.3,7,9.6,7.9c6.2,0.9,14.7,1.6,14.7,1.6l-26.7,9l-57.4,0.2L155,90.2l-22.5-12
	l30.3,4c0,0,34.1-3.3,36.9-5.2c2.8-1.9,3.5-6.3,3.8-8.2c0.3-1.9,17.1,1.5,17.1,1.5l12.6-2.5L257.7,71.9z"/>
<path id="XMLID_59_" class="st7" d="M257.2,62.6l2.2-1c0,0-12.9-27.3-31.4-30.4c-1.8-0.3-3.6-1.1-5.3-1.2c-0.8-0.2-1.7-0.3-2.5-0.5
	c-15-3.3-24.8,1.9-27,3.2c-0.9,0.5-1.6,1.8-2,2.5c-0.2,0.1,0.4,0.3,0.2,0.4c-2.9,2.1-4.8,3.9-4.8,4.5c0,0.6,0.7,2.8-0.5,3.9
	c-1.2,1-5.4,5.2-5.4,5.2s-1.6,7.3,2.8,11.4c4.3,4.2,8.8,5,8.8,5s-0.8-5,2.4-5.3c10.7-1.2,9.5,9.5,8.1,12.4
	c-1.4,2.8-19.1,11.8-19.1,11.8s14.7-1.8,21.9-4.7c7.2-3,14.5-1.6,14.5-1.6l2.6,3.6c0,0,1.9-5.5,2.6-5.5c0.7,0,10.7,4.5,10.7,4.5
	l3.5,3.3l2-8.6c0,0,6.2,2.2,10.5,5.8c4.3,3.6,6,4.9,6,4.9l7.7-5.2L257.2,62.6z"/>
<path id="XMLID_60_" class="st5" d="M195.1,47.4c0.3-1.2,1.9-0.5,2.3,0.2C199.3,45.3,192.3,45,195.1,47.4z"/>
<path id="XMLID_61_" class="st8" d="M186.7,44.1c0,0,8.8-0.4,11.5,0.9c2.7,1.3,2.5,1.5,2.5,1.5l-1,2.2c0,0,7.4,0.6,9.7,0.4
	c2.3-0.2,7.2-1.5,7.2-1.5l0.3,0.9c0,0-0.8,1.8-2.2,2.2c-1.4,0.4-5.1,1.6-5.1,1.6l3,2c0,0-9.2,4.1-13.8,5.2c-4.6,1.1-7.8,2.7-7.8,2.7
	l-0.5,7.3c0,0-12.3-10.7-10.7-15.7c1.6-5,4-7.3,4-7.3L186.7,44.1z"/>
<path id="XMLID_62_" class="st9" d="M191.9,47.7c0,0-3.8-1.1-6.3,0.9c-2.5,2-2.4,6.3-1.2,9c2.3,5,6.1,11,6.1,11s-8.9-6.5-10.2-11.5
	c-0.6-2.4,1.2-8,1.2-8l4.3-3.1l2.5-1.2l2.6,1.6L191.9,47.7z"/>
<path id="XMLID_63_" class="st3" d="M249.9,55.9c0,0,4.7,2.9,7.6,12.4c2.3,7.8,3.4,9,5.2,10.9c1.8,1.9,4.8,4.2,4.8,4.2l-10.2-1.4
	c0,0-0.1-11.1-0.9-13.1c-0.8-2-7.4-13.5-7.4-13.5L249.9,55.9z"/>
<path id="XMLID_64_" class="st2" d="M211.9,51.9c0,0,5.4,2.8,6.6,6.9c2.3,8,0.1,13.4,0.1,13.4s-1.6-4.5-3.2-6.8
	c-1.6-2.3,0.7,5.1-1.3,8.9c-2,3.8-5.6,5.2-8.4,6.3c-2.9,1-11.5,1.3-11.5,1.3l2.9-3.8c0,0,7.5-7.2,7.5-10.5c0-3.3-0.4-9.6-0.4-9.6
	l7.7-1.9l1.4-1.2L211.9,51.9z"/>
<polygon class="st5" points="249.1,55.7 251.6,61.6 260.8,63.9 254.3,55.5 "/>
<path id="XMLID_65_" class="st3" d="M191.5,37.2c0,0-1.3-6,15.9-11.3c17.3-5.3,35.4,10.4,41.2,17.6c6.4,7.8,9.9,19.2,9.9,19.2
	l-26.2-19.6l-18.5-10.4l-10.2,2.9L191.5,37.2z"/>
<path id="XMLID_66_" class="st10" d="M234.6,36.3c5.6,11.3,2.7,21.2-0.5,26.2c-2,3-3.5,4-3.5,4s5.7-2.3,7.6-5
	c1.9-2.7-2.1,6.4-6.6,10.5c-3,2.8-7.1,5.4-7.1,5.4s6.7-3.1,16.1-0.7c9.4,2.5,12.7,5.5,12.7,5.5l14,0.5c0,0-7.7-11-8.1-20.2
	c-0.2-5.4-1.9-7.6-1.9-7.6s-8.1-15.9-17.2-22c-10.4-6.8-22.2-8.3-22.2-8.3S230.4,27.8,234.6,36.3z"/>
<path class="st5" d="M236.4,40.8c4.9,4.2,10.1,10.1,11,18.5c-1.4-1.8-2.9-3.6-4.6-5.1c0.9,5.7-0.3,11.6-4.5,14.7
	c6.3,0.8,12,3.2,16.4,5.6c-2.7-0.3-9-0.4-12.4,0c6.6,1.8,15.6,5.4,20.1,10c1.5-10.6-5.4-20-10.8-26.4c2.4-0.3,3.4,0.7,5.3,0.8
	C251.8,51.4,245.4,45.1,236.4,40.8z"/>
<path id="XMLID_68_" class="st1" d="M246.1,47.9c0,0,8.4,6.9,11.3,11.6c2.9,4.7,2.3,4.2,2.3,4.2l-3.2,1.9l-4.2-3.8
	c0,0-2.7-6.4-2.8-6.5C249.5,55.2,246.1,47.9,246.1,47.9z"/>
<path id="XMLID_69_" class="st11" d="M215.3,24.6c0,0-10.4,2.4-13.9,5.1c-3.5,2.7-6.4,6-4.9,9c1.4,3,1.8,3.3,1.8,3.3s-1.3-0.1-2,0.3
	c-0.8,0.4-0.4,2-0.4,2h-10.7l0.7-4.8c0,0,3.8-3.3,4-3.4c0.3-0.2,3.9-6.7,10.9-9c7-2.3,14.4-3.5,14.4-3.5L215.3,24.6z"/>
<path class="st5" d="M225.2,39.3c-1.2,2-2.8,3.7-6.3,4.3C220.8,45.1,226.7,42.8,225.2,39.3z"/>
<path class="st12" d="M220.7,37.1c0,0,1,2.4-1.3,3.4c-1.3,0.6-6,1.6-6.4,1.5c-0.3,0-3.4-0.5-3.4-0.5s6.6-6.6,6.9-6.8
	c0.4-0.2,3.4-1.1,3.4-1.1L220.7,37.1z"/>
<path id="XMLID_70_" class="st5" d="M221.9,29c2.4-0.4,8.3-0.1,8.9,2.6c-2.4-1.2-6.3-0.7-7.4,1.1c0.2,1.2,2.2,2.8,0.8,4
	c-0.2-0.7-1.7-2.3-2.2-1.6c3.5,5.8-3.1,8.4-11.8,7.8c0.1,0.9,2,0.4,2.1,1.3c-6.5-0.2-12.1-1.2-16.5-3
	C212.3,44.4,213.3,30.4,221.9,29z M218.8,35.2c-2-0.1-2.2,0.8-2.4,1.8c-0.2,0.8,1,0.4,1.1,1c0,2.8-5.4,0.5-5.4,2.9
	C220.2,41.6,222.4,37.9,218.8,35.2z"/>
<path class="st9" d="M218.2,36.5c0,0.6-0.4,1.1-1,1.1c-0.6,0-1.1-0.4-1.2-1c0-0.6,0.4-1.1,1-1.1C217.6,35.5,218.2,35.9,218.2,36.5z"
	/>
<path id="XMLID_71_" class="st1" d="M260.3,65.6c1.5,0.6,2.8,1.8,4.2,2.6c-1.3-3.7-3-7.8-5.3-12c-1.5-3.1-3.8-7.3-6.8-12
	c-6.6-10.2-20-19.7-32.2-21.8c-10.8-1.8-20.9,3.4-24.2,5.3c-2.5,1.3-4.2,2.8-5.4,4.2c-1.2,1.2-2.1,2.6-2.5,4.3
	c-4.9,3.1-4.6,5.5-4,8.1c-12.8,7.2-2.6,24.9,9.1,27.5c-0.7-2-1.1-9.7,2.3-10.3c1-0.2,1.8-0.3,2.5-0.3c1.1,0.1,2.3,0.5,3,1.7
	c0.7,1.3,1.2,5-0.1,7.5c-0.8,1.5-2.7,3.1-4.5,4.3c-3.9,2.1-8,4-16.7,3.1c-11.3-1.2-16.2-2.2-16.2-2.2s5.5,3.5,11.6,5.5
	c4.8,1.6,12,0.8,15.6,0.1l-0.5,0.3c0,0-1.6,1.6,2.6,0.1c4.2-1.5,6.3-2.5,9.6-6.2c4-4.5,3.6-9.8,3.6-9.8c0.7,0.7,3.1,3.4,4.1,3.9
	c2.2-3.9-3.1-7.3-2.6-10.1c0.4-2.5,5.2-3.2,8.4-4.5c-0.8-1.4-2.5-2.1-3.9-3.1c2.7-0.6,5.4-1.3,5.8-3.5c1-0.4,1.3,0.9,1.6,0.2
	c-0.1-2.2-5.7-3.2-7.5-1.4c0.7,0.2,2.5-0.4,2.3,0.5c-3.6,1.1-8.7,1.1-13,0.5c-0.6-0.7,1.1-1.3,1.3-2.1c-3.3-2.2-10.2-3.4-15.6-2.6
	c-0.3-2,0.1-4.2,4.5-6.3c0,0-1.3-6,15.9-11.3c17.3-5.3,35.4,10.4,41.2,17.6c6.4,7.8,9.9,19.2,9.9,19.2l-7.9-5.9
	c3.4,3.6,6.3,8.9,7.6,14.2l3.3,1.4c-0.2-2-0.7-4.1-1.5-5.8C260.1,66.2,260.6,66.1,260.3,65.6z M188.2,44.9c4.1-1.2,9.2,0,11.7,1.4
	c-0.3,0.9-1.6,2.2-1,3.1c5.9,0.6,13.6,0.2,17.2-1.4c-0.2,0.7-2.4,1.2-1.9,1.7c1.4-0.1,1.9-0.9,2.6-1.4c-0.9,3.9-10.1,1.8-11.7,5.2
	c2.1-0.2,6.7-0.6,6.5,0.7c-8.8-0.6-12.2,4.6-19.5,5.9c0.9-3,2.8-4.9,8.8-4.5c0.6-2.6,4.8-3.9,6.5-5c-3.5,0.6-6.2,1.1-7.8,3.8
	c-8.5-1.6-10.7,7.8-9.6,13.4c-2.8-2.5-9.8-7.5-8.6-16.2c0.3-2,2.8-4.9,5.2-5.2C190.4,45.8,192.8,46.6,188.2,44.9z"/>
<path class="st5" d="M191.3,38.3c-1.7,0.4-2.7,1.4-3.3,2.8c2.3-0.9,4.1,0.3,7-0.1C193.3,40.4,191.5,40,191.3,38.3z"/>
<path id="XMLID_74_" class="st6" d="M224,23.3c0,0,12.3,2.7,25.4,11.7c9.5,6.6,5.4,4.9,5.4,4.9l-6.3-1.3c0,0,5.9,5.4,10.6,10.4
	c4.7,5,4.4,6.2,4.4,6.2l-7.3-3c0,0-2-4.9-4.7-8.2c-2.7-3.3-9-10.4-11.7-12.6C237.1,29.4,224,23.3,224,23.3z"/>
<path id="XMLID_75_" class="st10" d="M219.6,25.2c0,0,10.3,1.4,20.6,7.4c5.8,3.4,5.9,3.6,5.9,3.6l-5.8-0.5c0,0,6.8,5.3,12.7,11.2
	C257.2,51,257,51,257,51l-4.4-1.3l0.4,1.8c0,0-8.6-9.4-11.7-12.8c-3.1-3.3-7.4-7.6-13.5-10.5C221.6,25.3,219.6,25.2,219.6,25.2z"/>
<path id="XMLID_81_" class="st1" d="M244.9,172.8l2.2,8.2c0,0-9-5-19.2-4.7c-10.1,0.3-20.7,5.6-20.7,5.6l3.5-10.6l33.6-0.3
	L244.9,172.8z"/>
<path id="XMLID_82_" class="st1" d="M228.3,106.7L74,201.5l43.7,11.7c13.7-21.7,59.5-38,112.2-38c52.3,0,95.2,16,109.2,37.5
	l43.1-10.6L228.3,106.7z"/>
<path id="XMLID_83_" class="st1" d="M362.2,107.1c-2.1-10.4-9.4-17.4-21.3-17.6c-21.5,0-241.8,0.1-241.8,0.1L74,201.5l37.1-13.2
	l38.2-8.2l21-3.3l1.8-5.3l0.5,5l29.6-2.9l1.2-0.1l18-0.8l5.1-14.1l5.2,14.1l25.7,1l26.9,1.8l-0.4-5.2l3.2,4.7l27.6,5.7
	c0.7,0.2,16.7,4.6,28,8.4c7.4,2.5,24,7.7,24.1,7.8l15.5,5.3C382.3,202.1,362.9,110.6,362.2,107.1z"/>
<linearGradient id="XMLID_22_" gradientUnits="userSpaceOnUse" x1="113.0822" y1="93.2715" x2="113.0822" y2="196.6475">
	<stop  offset="0.5706" style="stop-color:#FFFFFF"/>
	<stop  offset="1" style="stop-color:#CCCCCC"/>
</linearGradient>
<path id="XMLID_84_" class="st13" d="M122.6,129c-3.3,0.4-6.6,0.9-9.9,1.3c2.5-12.3,4.9-24.7,7.4-37c-6.1,0-12.2,0-18.3,0.1
	c-7.7,34.4-15.4,68.8-23.1,103.2c7.5-2.7,14.9-5.2,22.3-7.6c2.6-12.8,5.2-25.7,7.7-38.5c3.4-0.7,6.9-1.4,10.3-2
	c-2.3,12.4-4.7,24.8-7,37.2c7.3-2.1,14.6-4.1,21.8-5.8c4.6-28.9,9.3-57.8,13.8-86.7c-6.1,0-12.2,0-18.3,0
	C127,105.2,124.8,117.1,122.6,129z"/>
<linearGradient id="XMLID_23_" gradientUnits="userSpaceOnUse" x1="163.756" y1="93.1992" x2="163.756" y2="179.6055">
	<stop  offset="0.5706" style="stop-color:#FFFFFF"/>
	<stop  offset="1" style="stop-color:#CCCCCC"/>
</linearGradient>
<path id="XMLID_85_" class="st14" d="M160.8,93.2c-8,27.8-16.6,56.5-25.7,86.4c6.5-1.6,13-2.9,19.5-4.2c1-4.1,2.1-8.2,3.1-12.2
	c4.4-0.7,8.8-1.4,13.1-2c0.1,3.8,0.3,7.6,0.4,11.4c7-1,14.1-1.9,21.1-2.6c-3.2-25.1-5.9-50.6-8.1-76.8
	C176.5,93.2,168.6,93.2,160.8,93.2z M161.5,148.7c2.7-10.3,5.4-20.5,8.1-30.6c0.3,9.9,0.7,19.8,1.1,29.5
	C167.6,147.9,164.6,148.3,161.5,148.7z"/>
<linearGradient id="XMLID_67_" gradientUnits="userSpaceOnUse" x1="227.8425" y1="93.1719" x2="227.8425" y2="169.5235">
	<stop  offset="0.5706" style="stop-color:#FFFFFF"/>
	<stop  offset="1" style="stop-color:#CCCCCC"/>
</linearGradient>
<path id="XMLID_88_" class="st15" d="M243.5,130.8c-2-12.6-4-25.1-5.9-37.6c-5.8,0-11.5,0-17.3,0c-2.1,12.6-4.3,25.1-6.7,37.8
	c-1.2-12.5-2.3-25.1-3.3-37.8c-6.2,0-12.4,0-18.6,0c1.8,25.8,3.9,51.2,6.4,76.3c7.7-0.6,15.5-1,23.2-1.1c2-10.6,4-21.2,5.8-31.7
	c1.6,10.6,3.3,21.1,5,31.7c7.7,0.1,15.4,0.4,23.2,0.9c3.2-25.1,6-50.4,8.4-76.1c-5.4,0-10.8,0-16.2,0
	C246.3,105.8,245,118.3,243.5,130.8z"/>
<linearGradient id="XMLID_76_" gradientUnits="userSpaceOnUse" x1="294.9469" y1="93.1924" x2="294.9469" y2="180.3516">
	<stop  offset="0.5706" style="stop-color:#FFFFFF"/>
	<stop  offset="1" style="stop-color:#CCCCCC"/>
</linearGradient>
<path id="XMLID_89_" class="st16" d="M293.8,93.2c-2.1,12.9-4.3,25.4-6.7,37.7c-1.2-12.6-2.3-25.1-3.5-37.7c-6.1,0-12.2,0-18.3,0
	c1.5,25.8,3.1,51.6,4.6,77.4c7.1,0.8,14.1,1.7,21.2,2.9c-1.2-12.6-2.4-25.3-3.6-38c4.6,13,9.4,26.2,14.4,39.9
	c7.5,1.4,15.1,3.1,22.7,5c-6.5-15.9-12.8-31.1-18.8-45.8c2.6-13.3,4.9-27,7-41.3C306.5,93.3,300.2,93.2,293.8,93.2z"/>
<linearGradient id="XMLID_77_" gradientUnits="userSpaceOnUse" x1="346.1161" y1="92.5281" x2="346.1161" y2="197.5186">
	<stop  offset="0.5706" style="stop-color:#FFFFFF"/>
	<stop  offset="1" style="stop-color:#CCCCCC"/>
</linearGradient>
<path id="XMLID_90_" class="st17" d="M360.6,141.7c-7.5-4.4-14.2-6.2-21.3-10.2c-2.6-1.9-3.8-8.3-4.3-11.2c-0.5-2.9-1-5.8-1.5-8.8
	c-0.4-2.2,0.5-3.3,2.8-3.1c0.5,0,1,0.1,1.5,0.1c2.3,0.1,3.6,1.3,4,3.6c0.6,3.6,1.9,11,2.5,14.5c10.7,4.2,13.4,5.7,19.9,8.3
	c-1.6-9.2-2.2-14.3-4.1-23.3c-2.6-12.9-9.5-19.3-20.9-19.2c-3.3,0-6.6,0-9.9,0c-11.4,0.1-16.2,5.4-14.7,16.2
	c0.6,4.6,1.3,9.2,1.9,13.8c0.9,6.2,2.8,15.5,8.8,18.7c4.8,2.9,10.8,4.7,19.7,9.1c2.2,1.1,4.5,4.3,5,7.3c0.7,3.8,1.7,9,2.4,12.8
	c0.4,2.3-0.6,3.1-3.2,2.4c-0.7-0.2-1.3-0.4-2-0.5c-2.6-0.7-4-2.1-4.4-4.3c-0.6-3.8-2-9.6-2.6-13.4c-8.6-3.5-11.5-4.8-19.7-8.1
	c1.1,8.1,1.9,11.3,3.1,19.4c1.5,10.8,7.8,16.7,21.4,20.7c4.1,1.2,8.1,2.5,12.2,3.8c0.2,0,0.3,0.1,0.4,0.1c6.7,2.2,13.4,4.5,20.2,7
	c-1.3-6.4-2.6-12.8-3.9-19.2c-0.3-1.5-0.6-3.1-0.9-4.6c-1-4.8-2-9.6-2.9-14.4C368.4,151.2,366.9,144.8,360.6,141.7z"/>
<linearGradient id="XMLID_78_" gradientUnits="userSpaceOnUse" x1="110.9118" y1="131.9961" x2="110.9118" y2="93.3467">
	<stop  offset="0" style="stop-color:#FFFFFF"/>
	<stop  offset="0.2422" style="stop-color:#FBFBFB"/>
	<stop  offset="0.465" style="stop-color:#F0F0F0"/>
	<stop  offset="0.6803" style="stop-color:#DEDEDE"/>
	<stop  offset="0.8896" style="stop-color:#C3C3C3"/>
	<stop  offset="1" style="stop-color:#B3B3B3"/>
</linearGradient>
<path id="XMLID_91_" class="st18" d="M117.7,95.2c-2.5,12.3-4.9,24.5-7.4,36.8c3.3-0.5,6.6-0.9,9.9-1.3c0.1-0.5,0.2-0.9,0.3-1.4
	c-2.6,0.3-5.2,0.7-7.8,1c2.5-12.3,4.9-24.7,7.4-37c-6.1,0-12.2,0-18.3,0.1c-0.1,0.6-0.3,1.2-0.4,1.8
	C106.8,95.2,112.3,95.2,117.7,95.2z"/>
<linearGradient id="XMLID_79_" gradientUnits="userSpaceOnUse" x1="138.2311" y1="180.4805" x2="138.2311" y2="93.2715">
	<stop  offset="0" style="stop-color:#FFFFFF"/>
	<stop  offset="0.2422" style="stop-color:#FBFBFB"/>
	<stop  offset="0.465" style="stop-color:#F0F0F0"/>
	<stop  offset="0.6803" style="stop-color:#DEDEDE"/>
	<stop  offset="0.8896" style="stop-color:#C3C3C3"/>
	<stop  offset="1" style="stop-color:#B3B3B3"/>
</linearGradient>
<path id="XMLID_92_" class="st19" d="M129.2,93.3c-0.1,0.6-0.2,1.2-0.3,1.8c5.5,0,10.9,0,16.4,0c-4.5,28.5-9.1,56.9-13.7,85.4
	c0.7-0.2,1.4-0.4,2.2-0.5c4.6-28.9,9.3-57.8,13.8-86.7C141.5,93.3,135.3,93.3,129.2,93.3z"/>
<linearGradient id="XMLID_80_" gradientUnits="userSpaceOnUse" x1="103.5226" y1="189.8106" x2="103.5226" y2="151.7032">
	<stop  offset="0" style="stop-color:#FFFFFF"/>
	<stop  offset="0.2422" style="stop-color:#FBFBFB"/>
	<stop  offset="0.465" style="stop-color:#F0F0F0"/>
	<stop  offset="0.6803" style="stop-color:#DEDEDE"/>
	<stop  offset="0.8896" style="stop-color:#C3C3C3"/>
	<stop  offset="1" style="stop-color:#B3B3B3"/>
</linearGradient>
<path id="XMLID_93_" class="st20" d="M106.3,152.1c-2.5,12.6-5.1,25.1-7.6,37.7c0.8-0.2,1.5-0.5,2.3-0.7c2.5-12.5,5-24.9,7.5-37.4
	C107.7,151.8,107,152,106.3,152.1z"/>
<linearGradient id="XMLID_107_" gradientUnits="userSpaceOnUse" x1="176.3234" y1="170.2715" x2="176.3234" y2="93.1992">
	<stop  offset="0" style="stop-color:#FFFFFF"/>
	<stop  offset="0.2422" style="stop-color:#FBFBFB"/>
	<stop  offset="0.465" style="stop-color:#F0F0F0"/>
	<stop  offset="0.6803" style="stop-color:#DEDEDE"/>
	<stop  offset="0.8896" style="stop-color:#C3C3C3"/>
	<stop  offset="1" style="stop-color:#B3B3B3"/>
</linearGradient>
<path id="XMLID_94_" class="st21" d="M182.1,95c2.2,25.7,4.8,50.6,7.9,75.2c0.8-0.1,1.5-0.2,2.3-0.2c-3.2-25.1-5.9-50.6-8.1-76.8
	c-7.8,0-15.7,0-23.5,0c-0.2,0.6-0.4,1.2-0.5,1.8C167.6,95.1,174.8,95,182.1,95z"/>
<linearGradient id="XMLID_108_" gradientUnits="userSpaceOnUse" x1="155.073" y1="175.8164" x2="155.073" y2="164.375">
	<stop  offset="0" style="stop-color:#FFFFFF"/>
	<stop  offset="0.2422" style="stop-color:#FBFBFB"/>
	<stop  offset="0.465" style="stop-color:#F0F0F0"/>
	<stop  offset="0.6803" style="stop-color:#DEDEDE"/>
	<stop  offset="0.8896" style="stop-color:#C3C3C3"/>
	<stop  offset="1" style="stop-color:#B3B3B3"/>
</linearGradient>
<path id="XMLID_95_" class="st22" d="M155.5,164.7c-0.9,3.7-1.9,7.4-2.8,11.1c0.7-0.1,1.3-0.3,2-0.4c0.9-3.7,1.9-7.4,2.8-11.1
	C156.8,164.5,156.2,164.6,155.5,164.7z"/>
<linearGradient id="XMLID_109_" gradientUnits="userSpaceOnUse" x1="163.8454" y1="150.2276" x2="163.8454" y2="119.7686">
	<stop  offset="0" style="stop-color:#FFFFFF"/>
	<stop  offset="0.2422" style="stop-color:#FBFBFB"/>
	<stop  offset="0.465" style="stop-color:#F0F0F0"/>
	<stop  offset="0.6803" style="stop-color:#DEDEDE"/>
	<stop  offset="0.8896" style="stop-color:#C3C3C3"/>
	<stop  offset="1" style="stop-color:#B3B3B3"/>
</linearGradient>
<path id="XMLID_96_" class="st23" d="M167.3,119.8c-2.6,10-5.3,20.2-8.1,30.5c3.1-0.4,6.1-0.8,9.2-1.1c0-0.4,0-0.9-0.1-1.3
	c-2.3,0.3-4.6,0.5-6.9,0.8c2.1-7.7,4.1-15.3,6-22.9C167.5,123.8,167.4,121.8,167.3,119.8z"/>
<linearGradient id="XMLID_110_" gradientUnits="userSpaceOnUse" x1="202.485" y1="132.5713" x2="202.485" y2="93.1768">
	<stop  offset="0" style="stop-color:#FFFFFF"/>
	<stop  offset="0.2422" style="stop-color:#FBFBFB"/>
	<stop  offset="0.465" style="stop-color:#F0F0F0"/>
	<stop  offset="0.6803" style="stop-color:#DEDEDE"/>
	<stop  offset="0.8896" style="stop-color:#C3C3C3"/>
	<stop  offset="1" style="stop-color:#B3B3B3"/>
</linearGradient>
<path id="XMLID_97_" class="st24" d="M208.3,95c1,12.6,2.1,25.1,3.3,37.6c0.5-2.8,1-5.6,1.5-8.4c-0.9-10.3-1.8-20.7-2.7-31
	c-6.2,0-12.4,0-18.6,0c0,0.6,0.1,1.2,0.1,1.8C197.4,95,202.9,95,208.3,95z"/>
<linearGradient id="XMLID_134_" gradientUnits="userSpaceOnUse" x1="231.2443" y1="132.458" x2="231.2443" y2="93.1719">
	<stop  offset="0" style="stop-color:#FFFFFF"/>
	<stop  offset="0.2422" style="stop-color:#FBFBFB"/>
	<stop  offset="0.465" style="stop-color:#F0F0F0"/>
	<stop  offset="0.6803" style="stop-color:#DEDEDE"/>
	<stop  offset="0.8896" style="stop-color:#C3C3C3"/>
	<stop  offset="1" style="stop-color:#B3B3B3"/>
</linearGradient>
<path id="XMLID_98_" class="st25" d="M235.6,95c1.9,12.5,3.8,24.9,5.9,37.5c0.3-2.8,0.6-5.7,1-8.5c-1.6-10.3-3.2-20.5-4.8-30.8
	c-5.8,0-11.5,0-17.3,0c-0.1,0.6-0.2,1.2-0.3,1.8C225.2,95,230.4,95,235.6,95z"/>
<linearGradient id="XMLID_135_" gradientUnits="userSpaceOnUse" x1="222.8248" y1="168.4326" x2="222.8248" y2="138.253">
	<stop  offset="0" style="stop-color:#FFFFFF"/>
	<stop  offset="0.2422" style="stop-color:#FBFBFB"/>
	<stop  offset="0.465" style="stop-color:#F0F0F0"/>
	<stop  offset="0.6803" style="stop-color:#DEDEDE"/>
	<stop  offset="0.8896" style="stop-color:#C3C3C3"/>
	<stop  offset="1" style="stop-color:#B3B3B3"/>
</linearGradient>
<path id="XMLID_99_" class="st26" d="M225.2,138.3c-1.8,10-3.7,20.1-5.6,30.2c0.6,0,1.2,0,1.8,0c1.6-8.3,3.1-16.5,4.6-24.8
	C225.8,141.8,225.5,140,225.2,138.3z"/>
<linearGradient id="XMLID_138_" gradientUnits="userSpaceOnUse" x1="255.6218" y1="169.2832" x2="255.6218" y2="93.1748">
	<stop  offset="0" style="stop-color:#FFFFFF"/>
	<stop  offset="0.2422" style="stop-color:#FBFBFB"/>
	<stop  offset="0.465" style="stop-color:#F0F0F0"/>
	<stop  offset="0.6803" style="stop-color:#DEDEDE"/>
	<stop  offset="0.8896" style="stop-color:#C3C3C3"/>
	<stop  offset="1" style="stop-color:#B3B3B3"/>
</linearGradient>
<path id="XMLID_100_" class="st27" d="M247.6,93.2c-0.1,0.6-0.1,1.2-0.2,1.8c4.8,0,9.6,0,14.4,0c-2.4,25.1-5.1,49.7-8.2,74.1
	c0.6,0,1.2,0.1,1.8,0.1c3.2-25.1,6-50.4,8.4-76.1C258.4,93.2,253,93.2,247.6,93.2z"/>
<linearGradient id="XMLID_139_" gradientUnits="userSpaceOnUse" x1="309.0641" y1="180.3516" x2="309.0641" y2="93.2334">
	<stop  offset="0" style="stop-color:#FFFFFF"/>
	<stop  offset="0.2422" style="stop-color:#FBFBFB"/>
	<stop  offset="0.465" style="stop-color:#F0F0F0"/>
	<stop  offset="0.6803" style="stop-color:#DEDEDE"/>
	<stop  offset="0.8896" style="stop-color:#C3C3C3"/>
	<stop  offset="1" style="stop-color:#B3B3B3"/>
</linearGradient>
<path id="XMLID_101_" class="st28" d="M310.9,95.1c-2.1,14.2-4.4,27.9-7,41c5.8,14,11.8,28.5,18,43.6c0.9,0.2,1.8,0.4,2.7,0.6
	c-6.5-15.9-12.8-31.1-18.8-45.8c2.6-13.3,4.9-27,7-41.3c-6.3,0-12.7,0-19,0c-0.1,0.6-0.2,1.2-0.3,1.8
	C299.3,95.1,305.1,95.1,310.9,95.1z"/>
<linearGradient id="XMLID_140_" gradientUnits="userSpaceOnUse" x1="288.3478" y1="173.4785" x2="288.3478" y2="137.1446">
	<stop  offset="0" style="stop-color:#FFFFFF"/>
	<stop  offset="0.2422" style="stop-color:#FBFBFB"/>
	<stop  offset="0.465" style="stop-color:#F0F0F0"/>
	<stop  offset="0.6803" style="stop-color:#DEDEDE"/>
	<stop  offset="0.8896" style="stop-color:#C3C3C3"/>
	<stop  offset="1" style="stop-color:#B3B3B3"/>
</linearGradient>
<path id="XMLID_102_" class="st29" d="M285.6,137.1c1.1,12,2.3,24,3.4,36c0.7,0.1,1.4,0.2,2.1,0.3c-0.9-9.5-1.8-19-2.7-28.4
	C287.5,142.4,286.5,139.8,285.6,137.1z"/>
<linearGradient id="XMLID_141_" gradientUnits="userSpaceOnUse" x1="275.9352" y1="132.5801" x2="275.9352" y2="93.1924">
	<stop  offset="0" style="stop-color:#FFFFFF"/>
	<stop  offset="0.2422" style="stop-color:#FBFBFB"/>
	<stop  offset="0.465" style="stop-color:#F0F0F0"/>
	<stop  offset="0.6803" style="stop-color:#DEDEDE"/>
	<stop  offset="0.8896" style="stop-color:#C3C3C3"/>
	<stop  offset="1" style="stop-color:#B3B3B3"/>
</linearGradient>
<path id="XMLID_103_" class="st30" d="M281.7,95c1.2,12.5,2.3,25,3.5,37.5c0.5-2.4,1-4.9,1.4-7.3c-1-10.7-2-21.4-3-32
	c-6.1,0-12.2,0-18.3,0c0,0.6,0.1,1.2,0.1,1.8C270.8,95,276.2,95,281.7,95z"/>
<linearGradient id="XMLID_142_" gradientUnits="userSpaceOnUse" x1="354.765" y1="197.5186" x2="354.765" y2="110.1787">
	<stop  offset="0" style="stop-color:#FFFFFF"/>
	<stop  offset="0.2422" style="stop-color:#FBFBFB"/>
	<stop  offset="0.465" style="stop-color:#F0F0F0"/>
	<stop  offset="0.6803" style="stop-color:#DEDEDE"/>
	<stop  offset="0.8896" style="stop-color:#C3C3C3"/>
	<stop  offset="1" style="stop-color:#B3B3B3"/>
</linearGradient>
<path id="XMLID_104_" class="st31" d="M360.6,141.7c-7.5-4.4-14.2-6.2-21.3-10.2c-2.6-1.9-3.8-8.3-4.3-11.2c-0.5-2.9-1-5.8-1.5-8.8
	c-0.1-0.5-0.1-0.9,0-1.3c-1.5,0.2-2.1,1.2-1.8,3.1c0.5,2.9,1,5.8,1.5,8.7c0.5,2.9,1.7,9.3,4.3,11.2c7.1,3.9,13.8,5.8,21.3,10.1
	c6.3,3.1,7.8,9.5,9.5,17.6c1,4.8,2,9.5,2.9,14.3c0.3,1.5,0.6,3.1,0.9,4.6c1.2,5.7,2.3,11.3,3.5,17c0.7,0.3,1.4,0.5,2.2,0.8
	c-1.3-6.4-2.6-12.8-3.9-19.2c-0.3-1.5-0.6-3.1-0.9-4.6c-1-4.8-2-9.6-2.9-14.4C368.4,151.2,366.9,144.8,360.6,141.7z"/>
<linearGradient id="XMLID_143_" gradientUnits="userSpaceOnUse" x1="335.6916" y1="174.4915" x2="335.6916" y2="146.5508">
	<stop  offset="0" style="stop-color:#FFFFFF"/>
	<stop  offset="0.2422" style="stop-color:#FBFBFB"/>
	<stop  offset="0.465" style="stop-color:#F0F0F0"/>
	<stop  offset="0.6803" style="stop-color:#DEDEDE"/>
	<stop  offset="0.8896" style="stop-color:#C3C3C3"/>
	<stop  offset="1" style="stop-color:#B3B3B3"/>
</linearGradient>
<path id="XMLID_105_" class="st32" d="M341.1,169.4c0.4,2.2,1.8,3.6,4.4,4.3c0.7,0.2,1.3,0.4,2,0.5c2.1,0.6,3.1,0.2,3.3-1.2
	c-0.4,0-0.9-0.1-1.5-0.2c-0.7-0.2-1.3-0.4-2-0.5c-2.6-0.7-4-2.1-4.4-4.3c-0.6-3.8-2-9.6-2.6-13.4c-8.6-3.5-11.5-4.8-19.7-8.1
	c0.1,0.9,0.2,1.7,0.4,2.4c6.6,2.6,9.7,4,17.5,7.1C339.1,159.9,340.5,165.7,341.1,169.4z"/>
<linearGradient id="XMLID_144_" gradientUnits="userSpaceOnUse" x1="340.4508" y1="134.9502" x2="340.4508" y2="92.5281">
	<stop  offset="0" style="stop-color:#FFFFFF"/>
	<stop  offset="0.2422" style="stop-color:#FBFBFB"/>
	<stop  offset="0.465" style="stop-color:#F0F0F0"/>
	<stop  offset="0.6803" style="stop-color:#DEDEDE"/>
	<stop  offset="0.8896" style="stop-color:#C3C3C3"/>
	<stop  offset="1" style="stop-color:#B3B3B3"/>
</linearGradient>
<path id="XMLID_106_" class="st33" d="M327.5,94.4c3.3,0,6.6,0,10,0c11.4-0.1,18.3,6.2,20.9,19.1c1.6,8,2.3,13,3.6,20.6
	c0.7,0.3,1.4,0.6,2.2,0.9c-1.6-9.2-2.2-14.3-4.1-23.3c-2.6-12.9-9.5-19.3-20.9-19.2c-3.3,0-6.6,0-9.9,0c-6,0-10.2,1.6-12.6,4.6
	C319.2,95.3,322.8,94.4,327.5,94.4z"/>
<path class="st1" d="M197,232c-12.2-17.4-7.9-41.4,9.5-53.6c17.4-12.2,41.4-7.9,53.6,9.5c12.2,17.4,7.9,41.4-9.5,53.6
	C233.2,253.7,209.2,249.4,197,232z"/>
<g id="XMLID_137_">
	
		<radialGradient id="path2236_2_" cx="110.7757" cy="452.1095" r="36.492" gradientTransform="matrix(-1.4368 -7.040000e-02 -4.870679e-02 0.9954 428.5119 -223.9163)" gradientUnits="userSpaceOnUse">
		<stop  offset="0" style="stop-color:#FEE795"/>
		<stop  offset="0.1963" style="stop-color:#FFD52D"/>
		<stop  offset="0.6564" style="stop-color:#F89730"/>
		<stop  offset="1" style="stop-color:#F57E2D"/>
	</radialGradient>
	<path id="path2236_1_" class="st34" d="M245.6,179.3c17.3,9.5,23.5,31.3,14,48.5c-9.5,17.3-31.3,23.6-48.6,14.1
		c-17.3-9.5-23.5-31.3-14-48.5C206.5,176.1,228.2,169.8,245.6,179.3"/>
	<path id="XMLID_136_" class="st1" d="M228.1,247.3c-6,0-12-1.5-17.6-4.5c-8.6-4.7-14.8-12.5-17.5-21.9c-2.7-9.4-1.6-19.3,3.1-27.9
		c9.8-17.7,32.1-24.2,49.8-14.5l-0.9,1.7c-16.8-9.2-38-3.1-47.3,13.7c-4.5,8.1-5.6,17.5-3,26.5c2.6,8.9,8.5,16.3,16.6,20.8
		c16.8,9.3,38,3.1,47.3-13.7c4.5-8.1,5.6-17.5,3-26.5c-2.6-8.9-8.5-16.3-16.6-20.8l0.9-1.6c8.6,4.7,14.8,12.5,17.5,21.9
		c2.7,9.4,1.6,19.3-3.1,27.9C253.7,240.5,241.1,247.3,228.1,247.3z"/>
</g>
<path id="path9163_9_" class="st35" d="M260,193.7"/>
<path class="st1" d="M208.2,183c-4.1,0.2-13.7,19.1-2.7,40.6c5.6,10.9,16.5,20.2,27.6,22.1c2.1,0.6,1-0.4,2.8-0.4
	c0.2,0.3,8.7-3.5,8.7-3.5c-6.9,2.9-14.5,0.9-15.6,0.1c-15-5.7-20.7-18.5-20.7-18.5c-9.6-18.9-3.5-33,0.2-39.5
	c2.4-4.2,8.6-6.2,8.6-6.2S207.5,180.1,208.2,183z"/>
<path id="XMLID_111_" class="st1" d="M260.9,193.8l-1.9-0.2c-0.9,2.4-9.9,13.6-22.5,21.9c-8,5.2-18.1,9.9-27,11.8
	c-3.7,0.7-5.9,0.6-8.5,0c-1.2-0.5-3.8-0.9-5.8-5.3c-1.2-2.8-0.2,2,0.4,4.1c-0.1,0-0.2-0.1-0.2-0.1l0.4,0.7c0.1,0.5,0.2,0.8,0.2,0.8
	l0.2,0l0.4,0.7c9.1,6.8,26.2-0.4,40.7-10.1c7.3-4.9,13.9-10.4,18.7-14.7c5.4-3.6,11.2-0.3,11.2-0.3L260.9,193.8z"/>
<path id="XMLID_112_" class="st1" d="M245.8,178.1L244,178l-0.6-0.9c-11.4,1.4-17.9,14.9-21.7,21.6c-3.8,6.7-9,18.7-16.2,19.8
	c-7.2,1-12.7-10.5-12.7-10.5c-3.1,3.4,11.5,28.2,26.2,1.7c5.8-10.8,11-22.2,16.5-26c1.8-1.4,5.9-4.1,10.5-2.9
	C250.4,182,245.8,178.1,245.8,178.1z"/>
<path id="XMLID_113_" class="st1" d="M261.4,221.2c-2,5.7-5.3,7.5-7.4,8.5c-7.2,3.2-17.9,2.1-30.2,1.6
	c-16.2-0.6-13.1,11.1-13.4,11.8c0,0,2.5,1.6,2.5,0.9c0-0.1-0.1-0.6-0.2-1.3l3.2,0.5c0,0-3.4-1.5-1.9-5.1c0.1-0.1,0.1-0.3,0.1-0.4
	c1.9-2.4,6.8-3.9,15.9-3.5c21.8,0.9,22.8,0.2,29.8-3.8c0,0.1,0-1.2-0.2-1.6l1.7-0.5C261.3,228.3,264.4,212.7,261.4,221.2z"/>
<g id="XMLID_114_">
	<path id="XMLID_115_" class="st0" d="M186.6,203.6l2.4,2.5c0,0,2.4,1.1,2.8,1.1c0.5,0,4.4,1,4.4,1l5.4-1.7l0.3-0.1
		c0,0-0.1,0-0.3-0.1c-1.1-0.3-5.1-1.3-6.7-3.2c-1.9-2.2-1.9-3.8-1.9-3.8s3.1,1.6,5.5,1.4c2.3-0.2,4.9-2.7,4.9-2.7s-2.8-1.1-4.5-1.9
		c-1.7-0.8-1.7-6.4-1.7-6.4l0.9-1.3l3.3,1c0,0,5,3,7.2,2.9c2.2-0.2,3.3-1.5,3.3-1.5l-2.5-1.9c0,0-2.5-2.2-2.7-2.9
		c-0.2-0.6-0.9-2.9-0.3-3.3c0.6-0.5,1.9-2.2,1.9-3c0-0.8-0.1-6.5-0.1-6.5l-10.5,0l-5.2,3.5l-6.4,3.3c0,0-3.3,2.9-3.3,4
		c0,1.1,1.1,6.7,1.1,6.7l-0.6,9.7l1.9,3.3L186.6,203.6z"/>
	<path id="XMLID_116_" class="st8" d="M202.7,172.7c0,0-6.9,0-7.7,1.5c-0.8,1.5-2,1.4-2,1.4l-3.3,2.4l-5.3,3.8c0,0-1.6,1.9-1.6,3.3
		c0,1.4,0.9,9,0.9,9l-0.2,7.3l3.2,3.8l1-1.6l0.7-2.2c0,0,1.4-1.4,1.8-1.7c0.4-0.2,0.9-1.1,0.9-1.1s-2.6-5.3-2.4-6.9
		c0.2-1.6,1.3-3.6,1.3-3.6l2.1-0.4l2.7-0.1c0,0,1.8-0.6,2.1-1.9c0.4-1.3-0.4-6.3,1.1-6.6c1.4-0.4,4.7,1.2,5.9,1.4
		c1.2,0.2,2.6,0.8,3.2,0c0.6-0.8,2.2-4.6,2.2-4.6l-2-2.7L202.7,172.7z"/>
	<path id="XMLID_117_" class="st5" d="M207.4,184.3c2.1-2.9,5.4-6.4,1.8-10.1c0.2-0.2,0.4-0.3,0.7-0.5l-2.4-1l-4-0.1
		c1.5,1.8,6.2,1.9,3.9,4.3c0.4-0.4-2.6-2.6,0,1.8c-3.9,2.5-4.5-1.5-9-0.9c-2.9,1.9-2,6.3-2.7,8.3c-5.5-2.4,1.7-9.7,0-11
		c-2.1,3.9-0.9-0.5-1.8-0.9c-2.8,4.2-10.1,3.8-11.7,9.2c0.4,8.9,1.9,10.3,0,18.4c3.1,4.3,14.5,11.5,19.9,4.6c-2.2-1.8-6-2-6.4-5.5
		c2.7,1,7.6,0.1,9-2.8c-2.2-1.4-5.9-1.3-6.3-4.6c0.9-1.2,0.9-3.4,2.7-3.7c2.8,1.5,8,4.3,11.7,1.8C212.9,187.2,206,189.9,207.4,184.3
		z M192,177.9c-0.1,2.3-1.7,3.2-2.7,4.6c0.9,1.8,4,1.4,3.6,4.6c-3.9-0.3-4.7,2.5-5.4,5.5c-2-0.1-0.4-3.9-0.9-5.5
		c-0.8,0.7-1.4,1.7-1.8,2.8C181.9,184.1,187.2,178.8,192,177.9z M186.6,203.6c-4.1-1.7-2.3-6.9-0.9-10.1c3.2,0.7,1,3.2,0,4.6
		c0.8,2.7,1.4-2.1,3.6-0.9C191.4,199.6,186.7,200.7,186.6,203.6z M201,206.4c-4.1,2-13,1-12.6-4.6c0.7-0.5,1.5-1,2.7-0.9
		C193.9,203.2,195.7,206.6,201,206.4z M202.8,198.1c-5.4,5.2-16.3-2.3-12.6-9.2c0.9,0,1.8,0,2.7,0
		C192.7,195.5,196.9,197.7,202.8,198.1z M198.3,180.6c0.4-1.9-0.3,5.8,2.7,6.4c0.2-1.2-2-5.4-0.9-6.4c4.2-0.6,4.5,10.7,11.7,10.1
		C206.1,192.9,195.2,187.5,198.3,180.6z"/>
</g>
<g id="XMLID_124_">
	<path id="XMLID_125_" class="st0" d="M268.6,203.9l-2.4,2.5c0,0-2.4,1.1-2.8,1.1c-0.5,0-4.4,1-4.4,1l-5-1.1c0,0,4.4-1.7,6.3-4
		c1.9-2.2,1.9-3.8,1.9-3.8s-3.2,1.1-5.5,0.9c-2.4-0.2-4.9-1.5-4.9-1.5s2.9-1.8,4.6-2.6c1.7-0.8,1.7-6.4,1.7-6.4l-0.9-1.3l-3.3,1
		c0,0-5,3-7.2,2.9c-2.2-0.2-3.7-0.9-3.7-0.9l3-2.4c0,0,2.5-2.2,2.7-2.9c0.2-0.6,0.9-2.9,0.3-3.3c-0.6-0.5-1.9-2.2-1.9-3
		c0-0.8,2-5.6,2-5.6l8.6-1l5.2,3.5l6.4,3.3c0,0,3.3,2.9,3.3,4c0,1.1-1.1,6.7-1.1,6.7l0.6,9.7l-1.9,3.3L268.6,203.9z"/>
	<path id="XMLID_126_" class="st8" d="M251.6,172.3c0,0,10,0,10.8,1.5c0.8,1.5,0.6,1.8,0.6,1.8l3.3,2.4l5.3,3.8c0,0,1.2,1.4,1.2,2.8
		c0,1.4-0.9,8.7-0.9,8.7l0.7,8.1l-3.2,3.8l-1-1.6l-0.7-2.2c0,0-1.4-1.4-1.8-1.7c-0.4-0.2-0.9-1.1-0.9-1.1s2.6-5.3,2.4-6.9
		c-0.2-1.6-1.3-3.6-1.3-3.6l-2.1-0.4l-2.7-0.1c0,0-1.8-0.6-2.1-1.9c-0.4-1.3,0.4-6.3-1.1-6.6c-1.4-0.4-4.7,1.2-5.9,1.4
		c-1.2,0.2-2.6,0.8-3.2,0c-0.6-0.8-2.3-4.6-2.3-4.6l2-3.3L251.6,172.3z"/>
	<path id="XMLID_127_" class="st5" d="M260.6,175.1c2.5,2.3-0.8,1.3-1.8,0c1.3,2.1,5.9,10.1,0,11c1.9-3.4-0.1-6-1.8-8.3
		c-4.2-0.6-6.4,4.1-9,0c2-2.8,1.9-2.9-0.9-0.9c0.4-3.6,1.5-4.2,1.5-4.2s-1.2,0.3-2.6,0.5c0.4,0,0.7,0.1,1.1,0.1
		c-0.9,2.1-3.1,3-2.7,6.4c0.8,2.3,4.1,1.9,3.6,5.5c0.7,4.7-5.8,2.1-5.4,6.4c4.3,2.8,8.9-1,12.6-1.8c0.4,1.7,1.9,2.3,1.8,4.6
		c-1.1,2.5-5.3,2-6.3,4.6c2.6,2.4,7.3,1.7,9,2.8c-1.1,2.8-5.2,2.7-6.3,5.5c7,5,16.4-1.1,19.9-5.5c-1.9-8-0.4-9.5,0-18.4
		C271.5,178.8,263.1,176,260.6,175.1z M263.4,177.9c5.1,1.5,8.8,4.6,8.1,11.9c-1.1-0.4-1.9-1.2-1.8-2.8c-2,0.1-0.4,3.9-0.9,5.5
		c-2.3-1.6-1.7-6.3-6.3-5.5c0.1-2.3,1.3-3.6,3.6-3.7C265.7,181,263.4,180.6,263.4,177.9z M243.5,191.7c6.1-1.8,7.4-8.4,11.7-11.9
		c-0.6,2.5,1.5,4.5-1.8,7.3c1.7-1.3,4-2.1,3.6-5.5c0,0,0-0.1,0-0.1c-0.2-0.3-0.5-0.6-0.9-0.8c0.5,0,1,0.1,0.9,0.8
		C259.9,185.1,251,193,243.5,191.7z M252.5,199c4.4-2.2,10.6-2.7,9.9-10.1c0.9,0,1.8,0,2.7,0C268.2,195.9,259.5,202.1,252.5,199z
		 M254.3,207.3c3-2.2,8.3-2,9-6.4c1.9-0.4,2.4,0.6,3.6,0.9C266.8,207.7,260.2,207.1,254.3,207.3z M269.7,203.6
		c-1.5-1.8-5.2-4.3-3.6-6.4c2.5-0.7,1.8,1.8,3.6,1.8c0.2-2.7-3.3-3.1-0.9-5.5c1.6,0.8,1.7,3.2,2.7,4.6
		C271.9,201,270.2,201.7,269.7,203.6z"/>
</g>
<g>
	<path class="st1" d="M197.1,62.1c0,0,7.8,14.3-10.6,16.4c-14.7,0.4-23-2.7-23-2.7l4.6,3.1c0,0-26,4.6-53.8-15.5
		c0,0,9.2,14.2,17.4,20.4l10.2,3c0,0-10.2-5.5-15.1-12c0,0,15.6,13.9,62.6,7.4l-2.5,2c0,0,17.2-2.5,18.8-18L197.1,62.1z"/>
</g>
<g>
	<path class="st1" d="M243.3,74.8c0,0,15.6,4.9,19.2,10.2c0,0,31.1,7,61.4-6.6c0,0-4.1,5.3-10.2,9c0,0,24.2,4.9,65.5-23.7
		c0,0,11.1-7.4,16.4-19.7c0,0-37.7,38.1-71.2,39.3c0,0,12.7-10.2,18-19.2c0,0-15.1,14.7-53.2,17.2l8.6-5.7c0,0-25.4,8.6-29.1,0.8
		s-8.2-19.2-11.5-23.3l2.5,15.6l0.4,7C260.1,75.6,250.7,74.4,243.3,74.8z"/>
</g>
<path id="XMLID_33_" class="st2" d="M143.3,87.3C143.3,87.3,143.4,87.3,143.3,87.3c0,0-3.9-2.9-5.5-5.4c0,0,7.7,2.2,21.3,2.1
	c0.2,0,2.4,0,2.5,0c-15.4-0.9-24.9-3.5-29.1-5.7C137,83.7,141.9,86.5,143.3,87.3z"/>
<path id="XMLID_17_" class="st2" d="M324.6,78.2c-4.3,2.1-13.4,5.9-28.9,7.9c0.1,0,0.6-0.1,0.8-0.1c13.5-0.6,22.8-4.2,22.8-4.2
	c-1.5,2.6-5.5,5.4-5.5,5.4c0,0,0,0,0,0C315.2,86.5,320.1,83.7,324.6,78.2z"/>
</svg>
