<svg xmlns="http://www.w3.org/2000/svg" xmlns:xlink="http://www.w3.org/1999/xlink" viewBox="0 0 586.64 602.97"><defs><style>.cls-1{fill:none;}.cls-2{clip-path:url(#clip-path);}.cls-3{fill:#000426;}.cls-4{fill:#fff;}.cls-5{fill:#f58220;}.cls-6{fill:#bcbec0;}</style><clipPath id="clip-path" transform="translate(0 0)"><rect class="cls-1" width="586.64" height="602.97"/></clipPath></defs><title>UTD</title><g id="Layer_2" data-name="Layer 2"><g id="_ÎÓÈ_1" data-name="—ÎÓÈ 1"><g id="Artwork_1" data-name="Artwork 1"><g class="cls-2"><g class="cls-2"><path class="cls-3" d="M569.61,437.16Q508.73,423.38,447,415.76l71.79-91.5a62.7,62.7,0,0,0,0-76.27L350.4,33C330.5,9,306.88,4,290.57,4,268,4,248,13.69,231.21,32.87l-.09.1L62.39,248a62.72,62.72,0,0,0,0,76.27l72.14,92.14Q75.46,424,17,437.16c-8.72,2-14.31,10-12.44,17.74q10.88,45.26,21.74,90.52A14.76,14.76,0,0,0,44,556.14a1129.68,1129.68,0,0,1,148.47-23.33l13.29,55.36a14.22,14.22,0,0,0,16.64,10.28,351.68,351.68,0,0,1,137.37,0,14.21,14.21,0,0,0,16.64-10.28q6.69-27.88,13.39-55.76a1129.8,1129.8,0,0,1,152.89,23.73,14.78,14.78,0,0,0,17.64-10.72Q571.17,500.15,582,454.9c1.87-7.72-3.71-15.77-12.43-17.74" transform="translate(0 0)"/><path class="cls-4" d="M106.11,510.4q-2.82-12.87-5.66-25.75-5.79,10.69-11.3,21.46l-1.32.28q-9.43-7.62-19.13-15.08,2.64,12.92,5.31,25.83-5.94,1.35-11.86,2.77-5.09-26.56-10-53.16l1.72-.56Q70,478.13,85.51,490.57q8.91-17.54,18.57-34.92l1.8-.18q6.2,26.32,12.25,52.69-6,1.09-12,2.24" transform="translate(0 0)"/><path class="cls-4" d="M129.07,506.26l-8.91-52.93Q138,450.33,156,448q.77,5.66,1.51,11.32-11.24,1.49-22.45,3.23l1.47,9.48q10.13-1.58,20.27-2.94.72,5.37,1.45,10.74-10,1.35-20,2.91c.53,3.45,1.07,6.9,1.6,10.34q10.88-1.68,21.78-3.13.75,5.63,1.49,11.25-17,2.25-34,5.11" transform="translate(0 0)"/><path class="cls-4" d="M174,499.75l-6.48-53.28q6.59-.8,13.16-1.51,2.3,21,4.58,42.07,10.92-1.18,21.87-2.14.48,5.66,1,11.31-17.07,1.49-34.1,3.55" transform="translate(0 0)"/><path class="cls-4" d="M231.49,495c-4.71.3-10.86.28-16.21,0l-4.14-52.26A120.12,120.12,0,0,1,227,440.45c16.59-1,25.27,5.68,25.53,13.12.22,5.64-2.91,9.55-9.07,12.35,7.68,1.82,11.4,5.95,11.62,12.09.3,8.37-7.4,16-23.57,17m-1-43.88a32.62,32.62,0,0,0-5.88.89q.36,5.58.74,11.18a46.42,46.42,0,0,0,4.81-.09c6.22-.39,9.23-2.73,9-6.61-.17-3.22-3.16-5.71-8.7-5.37m.27,20.37A44.05,44.05,0,0,0,226,472l.84,12.41c1.8,0,2.77,0,5.3-.12,6.4-.38,9.32-2.94,9.12-7s-3.66-6.27-10.44-5.86" transform="translate(0 0)"/><path class="cls-4" d="M290.62,493.39c-16.66.06-27.72-11.45-28.28-27.2S273.23,438,291,438s28.73,12.28,28.26,28.07-12.05,27.31-28.64,27.36m.1-44.3c-9,0-14.86,7.11-14.66,16.77s6.14,16.5,14.75,16.47,14.53-7,14.66-16.56-5.79-16.71-14.75-16.68" transform="translate(0 0)"/><path class="cls-4" d="M350.53,495c-14.46-.82-22.31-8.78-21.83-23.73q.54-15.92,1.1-31.83,6.6.23,13.22.54l-1.47,30.94c-.34,7.61,2.71,12.35,9.93,12.76s10.73-3.94,11.26-11.54q1.06-15.45,2.11-30.9,6.6.45,13.2,1-1.28,15.87-2.57,31.74c-1.25,14.9-10.48,21.87-25,21" transform="translate(0 0)"/><path class="cls-4" d="M413.26,499.74q-3.54-9.24-7.23-18.46c-.76,0-1.43-.09-2.18-.17-1.86-.2-2.91-.39-4.69-.65q-.92,8.75-1.84,17.48-6.26-.66-12.5-1.24,2.44-26.46,4.88-52.93a132,132,0,0,1,16.83.81c17.71,1.95,23.6,10.91,22.28,20.6-.84,6.32-5.15,11.5-11.48,14.18q5.18,11.08,10.09,22.2-7.08-1-14.16-1.82m-6.4-43.93a27.36,27.36,0,0,0-5.09-.18q-.78,7.35-1.55,14.71a41,41,0,0,0,4.06.65c6.1.67,10.38-1.69,11-7.07.53-4.43-2.82-7.5-8.44-8.11" transform="translate(0 0)"/><path class="cls-4" d="M478.52,510.93q-13.36-17.34-27.75-34.3l-4.32,27.71q-6.22-1-12.45-1.86,3.86-26.93,7.7-53.85l1.82,0q14.79,16.73,28.57,33.83Q474.52,468.73,477,455q6.52,1.16,13.06,2.41l-10.23,53.5h-1.28" transform="translate(0 0)"/><path class="cls-4" d="M491.57,512.45l10.71-52.59q17.78,3.61,35.46,7.86c-.9,3.7-1.78,7.41-2.67,11.11q-11.09-2.67-22.2-5.07c-.68,3.12-1.35,6.25-2,9.37q10,2.17,20.05,4.56-1.26,5.26-2.51,10.54-9.9-2.36-19.84-4.51L506.32,504q10.79,2.34,21.54,4.92-1.32,5.52-2.65,11-16.77-4-33.64-7.46" transform="translate(0 0)"/><path class="cls-4" d="M249.42,562.42c-9.52,1.18-15.75-3-17.52-13.17q-1.83-10.85-3.64-21.71,4.74-.88,9.5-1.61,1.41,10.62,2.83,21.23c.71,5.23,3.33,8,8.2,7.43s6.77-3.92,6.39-9.18q-.83-10.7-1.66-21.38,4.77-.43,9.56-.69.48,11,1,22c.38,10.36-5.1,15.91-14.63,17" transform="translate(0 0)"/><path class="cls-4" d="M291.14,529.38q.12,14.63.25,29.27c-2.78,0-5.55.1-8.33.23q-.6-14.62-1.22-29.25-6,.27-12,.83-.33-3.93-.67-7.88a265.1,265.1,0,0,1,34.28-1l-.27,7.91q-6-.22-12-.16" transform="translate(0 0)"/><path class="cls-4" d="M320.46,559.72c-4.21-.32-6.53-.66-10.93-1.22q.48-18.25,1-36.51a81.06,81.06,0,0,1,12.22.07c17.25,1.46,23.85,11.18,22.11,21.41-1.83,10.87-9.68,17.51-24.37,16.25m3-29.87a26.45,26.45,0,0,0-3.84-.09q-.66,10.93-1.31,21.87a37.69,37.69,0,0,0,4.06.51c8,.71,12.12-3.22,13-10.14.85-6.66-3.23-11.41-11.91-12.15" transform="translate(0 0)"/><path class="cls-4" d="M350.22,554.25a4,4,0,0,1,3,4.84,3.89,3.89,0,0,1-4.68,3,4.07,4.07,0,0,1-3-4.77,3.84,3.84,0,0,1,4.65-3" transform="translate(0 0)"/><path class="cls-5" d="M343.54,84.38a52.19,52.19,0,1,1-52.19-52.19,52.19,52.19,0,0,1,52.19,52.19" transform="translate(0 0)"/><path class="cls-3" d="M291.35,28.48a55.9,55.9,0,1,0,55.9,55.9,56,56,0,0,0-55.9-55.9m48.32,52.19H312.81c.43-2.89,1.27-5.78,2-8.84,3.29-13.53,7.66-18.56,10.78-21.73a48.28,48.28,0,0,1,14.07,30.57m-62.28,7.42h10.25v44.6a48.06,48.06,0,0,1-23.6-8.3c9.06-13,12.75-25.29,13.35-36.3m0-7.42C276.22,64,268.48,51,263.75,44.56a48.23,48.23,0,0,1,23.89-8.5V80.67Zm17.72,7.42h9.82c0,11.62,3.65,24.1,14.38,35.88a48.19,48.19,0,0,1-24.2,8.72Zm0-7.42V36.06A48.14,48.14,0,0,1,320,45.28c-4.77,6.86-12.5,20-14.56,35.39Zm-37-31.47c4.21,5.63,11,16.81,12,31.47H243a48.3,48.3,0,0,1,15-31.47M243,88.09h27c-.66,9.56-4,20.27-11.82,31.65A48.37,48.37,0,0,1,243,88.09m82,31.14c-8.49-9.22-12.74-19.64-12.75-31.14h27.42A48.37,48.37,0,0,1,325,119.23" transform="translate(0 0)"/><path class="cls-6" d="M106.73,291.88a10.46,10.46,0,0,1,0-11.93l62.76-80.17v-16L98.77,274.14a19.83,19.83,0,0,0,0,23.56L169.49,388v-16Z" transform="translate(0 0)"/><path class="cls-6" d="M483.94,274.14,413,183.51v16L476,280a10.46,10.46,0,0,1,0,11.93l-63,80.46v16l70.95-90.62a19.8,19.8,0,0,0,0-23.56" transform="translate(0 0)"/><path class="cls-4" d="M180,175.92a2.25,2.25,0,0,0-1.66.76v221.4l58.29-71.33V240.26l-40.05-50.67c-10.15-12.68-15.25-13.67-16.58-13.67" transform="translate(0 0)"/><path class="cls-4" d="M226.18,121.56c8.48,0,15.57,8.57,15.64,8.66l90.36,114.36-40.37,51.35-88.36-111.8c-8.48-10.6-15.69-16.16-22-16.93l32-38.42c4-4.79,8.29-7.22,12.7-7.22" transform="translate(0 0)"/><path class="cls-4" d="M387.07,189.61l-41.18,52.1v85l58.29,71.33V176a2.11,2.11,0,0,0-.52-.07c-1.32,0-6.43,1-16.59,13.69" transform="translate(0 0)"/><path class="cls-4" d="M341.84,130.17s7.13-8.61,15.6-8.61c4.41,0,8.69,2.44,12.71,7.23l32,38.41c-6.3.77-13.5,6.32-22,16.9L337.9,237.62l-40.47-51.23Z" transform="translate(0 0)"/><path class="cls-6" d="M225,409.38l-6.32-5.27L280.56,330a11.53,11.53,0,0,1,8.68-4h0a11.45,11.45,0,0,1,8.61,3.95l61.44,74.45L353,409.69l-61.37-74.38a3.18,3.18,0,0,0-2.36-1,3.43,3.43,0,0,0-2.44,1.1Z" transform="translate(0 0)"/><path class="cls-4" d="M583.86,442.34A21.16,21.16,0,0,0,570.54,433Q513,420,454.37,412.44l67.28-85.74a66.65,66.65,0,0,0,0-81.15L353.22,30.44C332.33,5.28,307.5,0,290.34,0,266.56,0,245.58,10.18,228,30.26l-.16.18L59,245.56a66.65,66.65,0,0,0,0,81.15l67.7,86.47Q71,420.64,16.1,433a21.19,21.19,0,0,0-13.32,9.32,17.67,17.67,0,0,0-2.3,13.55l21.74,90.53a18.85,18.85,0,0,0,18.46,14.33,19.45,19.45,0,0,0,4.23-.47,1128.24,1128.24,0,0,1,144.27-22.91l12.45,51.82A18.3,18.3,0,0,0,219.54,603a18.87,18.87,0,0,0,3.67-.36,349,349,0,0,1,135.71,0,19,19,0,0,0,3.68.36,18.31,18.31,0,0,0,17.91-13.81L393.05,537a1129.14,1129.14,0,0,1,148.69,23.33,19.38,19.38,0,0,0,4.23.47h0a18.86,18.86,0,0,0,18.46-14.34l21.73-90.51a17.68,17.68,0,0,0-2.3-13.56M66.38,321.15a57.64,57.64,0,0,1,0-70L235,36.2C251.47,17.41,270.08,9,290.57,9c18.73,0,39.25,7.06,55.94,27.18L514.77,251.11a57.66,57.66,0,0,1,0,70l-70.63,90a1252.24,1252.24,0,0,0-306.82.61ZM577.92,453.91l-21.73,90.51A10.53,10.53,0,0,1,546,552.27h0a11.1,11.1,0,0,1-2.37-.26,1137.43,1137.43,0,0,0-153.46-23.83l-3.63-.31-14.24,59.28a9.83,9.83,0,0,1-9.67,7.34,10.48,10.48,0,0,1-2-.2,356.1,356.1,0,0,0-139,0,10.64,10.64,0,0,1-2,.2,9.83,9.83,0,0,1-9.67-7.31l-14.15-58.92-3.65.32A1139.88,1139.88,0,0,0,43,552a10.42,10.42,0,0,1-2.36.27,10.53,10.53,0,0,1-10.22-7.84L8.73,453.9A9.27,9.27,0,0,1,10,446.81a12.63,12.63,0,0,1,8-5.51q56.86-12.89,114.84-20.38,5.31-.69,10.64-1.33A1242.23,1242.23,0,0,1,438,419c3.42.4,6.84.79,10.26,1.22q60.68,7.59,120.38,21.1a12.64,12.64,0,0,1,8,5.51,9.25,9.25,0,0,1,1.27,7.1" transform="translate(0 0)"/></g></g></g></g></g></svg>