<svg xmlns="http://www.w3.org/2000/svg" width="100" height="41" viewBox="0 0 100 41"><defs><style>.a,.b{fill:#fff;}.a{font-size:17px;font-family:PublicSans-ExtraBold, Public Sans, Helvetica, sans-serif;font-weight:800;}</style></defs><text class="a" transform="translate(49.8 29.922)"><tspan x="0" y="0">Events</tspan></text><path class="b" d="M.246,39.6A.328.328,0,0,0,0,39.723V72.854L8.724,62.18V49.248l-5.994-7.6C1.211,39.744.452,39.6.246,39.6Z" transform="translate(0 -31.756)"/><path class="b" d="M8.992,0a3.606,3.606,0,0,1,2.34,1.293l13.527,17.12L18.8,26.09,5.584,9.36C4.312,7.78,3.244,6.938,2.3,6.836L7.083,1.088A2.591,2.591,0,0,1,8.992,0Z" transform="translate(-1.828 0)"/><path class="b" d="M128.358,41.726l-6.158,7.8V62.253l8.724,10.674V39.694h-.082C130.637,39.673,129.877,39.817,128.358,41.726Z" transform="translate(-97.116 -31.848)"/><path class="b" d="M93.451,1.293A3.632,3.632,0,0,1,95.791,0,2.591,2.591,0,0,1,97.7,1.088l4.783,5.748c-.944.123-2.012.944-3.284,2.525l-6.322,8.006L86.8,9.709Z" transform="translate(-68.982)"/></svg>