<svg xmlns="http://www.w3.org/2000/svg" viewBox="0 0 74 70" width="74" height="70">
	<defs>
		<clipPath clipPathUnits="userSpaceOnUse" id="cp1">
			<path d="M0 15L73.84 15L73.84 54.2L0 54.2L0 15Z" />
		</clipPath>
	</defs>
	<style>
		tspan { white-space:pre }
		.shp0 { fill: #b3b3b3 } 
		.shp1 { fill: #000000 } 
		.shp2 { fill: #fc0707 } 
		.shp3 { fill: #fe5c10 } 
		.shp4 { fill: #ffffff } 
		.shp5 { fill: #ffbf09 } 
	</style>
	<g id="Clip-Path" clip-path="url(#cp1)">
		<g id="Layer">
			<path id="Layer" class="shp0" d="M73.84 18.61C73.84 22.34 73.84 27.99 73.83 28.26L73.83 50.57C73.81 51.05 73.7 51.53 73.51 51.97C73.31 52.41 73.03 52.81 72.69 53.14C72.34 53.48 71.93 53.75 71.48 53.93C71.04 54.11 70.56 54.2 70.08 54.2L17.91 54.2L17.91 54.13C12.86 53.71 8.18 51.35 4.84 47.55C1.49 43.75 -0.25 38.81 -0.03 33.76C0.18 28.7 2.35 23.93 6.01 20.43C9.66 16.93 14.53 14.99 19.59 15L70.21 15C70.69 15 71.16 15.09 71.6 15.28C72.04 15.46 72.44 15.73 72.78 16.06C73.12 16.4 73.38 16.8 73.57 17.24C73.75 17.68 73.84 18.15 73.84 18.63" />
			<path id="Layer" class="shp1" d="M72.33 18.61C72.33 18.33 72.27 18.06 72.16 17.81C72.06 17.55 71.9 17.32 71.7 17.12C71.51 16.93 71.28 16.77 71.02 16.66C70.77 16.56 70.49 16.5 70.21 16.5L19.59 16.5C14.8 16.47 10.19 18.36 6.78 21.73C3.38 25.11 1.45 29.69 1.43 34.49C1.41 39.28 3.29 43.89 6.66 47.3C10.04 50.7 14.63 52.63 19.42 52.65L70.08 52.65C70.36 52.65 70.65 52.6 70.92 52.49C71.19 52.38 71.43 52.22 71.64 52.02C71.85 51.82 72.02 51.58 72.13 51.32C72.25 51.06 72.32 50.77 72.33 50.48L72.33 28.2C72.33 28.01 72.35 23.69 72.35 18.62" />
			<path id="Layer" class="shp2" d="M70.83 18.61C70.83 18.53 70.82 18.45 70.79 18.38C70.75 18.3 70.71 18.23 70.65 18.17C70.59 18.12 70.53 18.07 70.45 18.04C70.38 18.01 70.3 17.99 70.21 17.99L26.83 17.99C30.06 19.4 32.8 21.72 34.73 24.67C36.65 27.61 37.68 31.06 37.67 34.58C37.67 38.1 36.64 41.54 34.71 44.48C32.78 47.42 30.03 49.74 26.8 51.14L70.08 51.14C70.17 51.14 70.27 51.12 70.36 51.08C70.45 51.05 70.53 51 70.6 50.93C70.67 50.86 70.73 50.78 70.77 50.7C70.81 50.61 70.83 50.51 70.83 50.42L70.83 28.16C70.82 27.87 70.82 23.74 70.83 18.61Z" />
			<path id="Layer" class="shp3" d="M19.54 46.84C13.36 46.84 7.98 44.33 5.13 40.63C6.31 43.47 8.31 45.9 10.88 47.61C13.44 49.32 16.46 50.24 19.54 50.24C22.62 50.24 25.64 49.32 28.2 47.61C30.77 45.9 32.77 43.47 33.95 40.63C31.1 44.34 25.72 46.84 19.54 46.84M5.13 28.57C7.98 24.86 13.37 22.36 19.54 22.36C25.71 22.36 31.1 24.86 33.95 28.57C32.77 25.73 30.77 23.3 28.2 21.59C25.64 19.88 22.62 18.97 19.54 18.97C16.46 18.97 13.44 19.88 10.88 21.59C8.31 23.3 6.31 25.73 5.13 28.57" />
			<path id="Layer" fill-rule="evenodd" class="shp4" d="M36.09 34.59C36.09 36.76 35.66 38.92 34.83 40.92C34 42.93 32.78 44.76 31.24 46.29C29.7 47.83 27.88 49.05 25.87 49.88C23.86 50.71 21.71 51.14 19.54 51.14C12.85 51.14 6.81 47.11 4.25 40.92C1.69 34.74 3.11 27.62 7.84 22.89C12.57 18.16 19.69 16.74 25.87 19.3C32.06 21.87 36.09 27.9 36.09 34.59ZM5.13 40.61C6.31 43.46 8.31 45.89 10.88 47.6C13.44 49.31 16.46 50.22 19.54 50.22C22.62 50.22 25.64 49.31 28.2 47.6C30.77 45.89 32.77 43.46 33.95 40.61C31.1 44.31 25.72 46.82 19.54 46.82C13.37 46.82 7.98 44.33 5.13 40.61M33.95 28.57C32.77 25.73 30.77 23.3 28.2 21.59C25.64 19.88 22.62 18.97 19.54 18.97C16.46 18.97 13.44 19.88 10.88 21.59C8.31 23.3 6.31 25.73 5.13 28.57C7.96 24.86 13.37 22.34 19.54 22.34C25.72 22.34 31.1 24.86 33.95 28.57M35.14 33.97C34.71 28.02 27.88 23.27 19.54 23.27C11.2 23.27 4.37 28.04 3.94 33.99L9.24 33.99L9.24 34.94L3.92 34.94C4.18 41.01 11.06 45.89 19.52 45.89C27.99 45.89 34.88 41.01 35.14 34.94L27.97 34.94L27.97 33.99L35.14 33.99" />
			<path id="Layer" fill-rule="evenodd" class="shp4" d="M12.38 33.92L12.38 40.87L10.04 40.87L10.04 27.99L12.73 27.99L14.31 34.97L14.31 27.99L16.72 27.99L16.72 40.87L13.93 40.87L12.38 33.92ZM23.68 38.5C23.68 40.22 22.98 40.87 21.48 40.87L17.65 40.87L17.65 27.99L21.48 27.99C22.98 27.99 23.68 28.64 23.68 30.36L23.68 31.82C23.68 33.32 23.25 33.97 22.24 34.16C23.24 34.33 23.68 35 23.68 36.48L23.68 38.5ZM21.07 30.36C21.08 30.3 21.07 30.24 21.06 30.19C21.04 30.13 21.01 30.08 20.97 30.03C20.94 29.99 20.89 29.95 20.84 29.92C20.79 29.9 20.73 29.88 20.67 29.88L20.24 29.88L20.24 33.2L20.65 33.2C20.71 33.2 20.76 33.18 20.82 33.16C20.87 33.14 20.91 33.1 20.95 33.06C20.99 33.02 21.02 32.97 21.04 32.92C21.06 32.86 21.07 32.81 21.07 32.75L21.07 30.36ZM21.07 35.59C21.07 35.53 21.06 35.48 21.04 35.42C21.02 35.37 20.99 35.32 20.96 35.28C20.92 35.24 20.87 35.21 20.82 35.18C20.77 35.16 20.71 35.15 20.66 35.14L20.25 35.14L20.25 38.98L20.68 38.98C20.74 38.98 20.79 38.96 20.85 38.93C20.9 38.91 20.94 38.87 20.98 38.82C21.02 38.78 21.05 38.73 21.06 38.67C21.08 38.61 21.09 38.56 21.08 38.5L21.07 35.59ZM24.56 27.99L27.14 27.99L27.14 38.86L29.04 38.86L29.04 40.87L24.56 40.87L24.56 27.99ZM54.22 49.31C46.27 49.31 41.75 48.04 40.15 45.38C40.08 45.25 40.02 45.12 39.96 44.99C39.91 44.86 39.86 44.72 39.82 44.59C39.78 44.45 39.74 44.31 39.72 44.17C39.69 44.03 39.68 43.88 39.66 43.74L39.66 28.17C39.66 28.17 39.66 28.04 39.65 27.85L39.65 27.06C39.65 27.02 39.65 26.99 39.65 26.96C39.65 26.93 39.66 26.9 39.66 26.87C39.66 26.83 39.66 26.8 39.67 26.77C39.67 26.74 39.68 26.71 39.68 26.68C40.11 23.36 45.05 20.07 54.22 20.07C63.39 20.07 68.32 23.36 68.75 26.68C68.76 26.8 68.77 26.92 68.77 27.05C68.78 27.17 68.78 27.29 68.78 27.42C68.78 27.54 68.78 27.66 68.78 27.79C68.78 27.91 68.78 28.03 68.77 28.16L68.77 43.73C68.76 43.87 68.74 44.01 68.72 44.15C68.69 44.29 68.66 44.43 68.62 44.57C68.58 44.71 68.53 44.84 68.47 44.97C68.42 45.1 68.36 45.23 68.29 45.36C66.69 48.02 62.16 49.3 54.22 49.3" />
			<path id="Layer" fill-rule="evenodd" class="shp4" d="M65.81 48.18C65.81 47.82 66.06 47.51 66.42 47.44C66.77 47.37 67.12 47.55 67.26 47.89C67.4 48.22 67.29 48.6 66.99 48.81C66.7 49.01 66.3 48.97 66.04 48.72C66 48.69 65.97 48.65 65.94 48.61C65.91 48.56 65.89 48.52 65.87 48.47C65.85 48.43 65.84 48.38 65.83 48.33C65.82 48.28 65.81 48.23 65.81 48.18ZM66.58 48.82C66.84 48.82 67.08 48.67 67.18 48.44C67.29 48.2 67.24 47.92 67.06 47.74C66.88 47.55 66.6 47.49 66.36 47.59C66.12 47.69 65.97 47.92 65.96 48.18C65.96 48.26 65.97 48.35 66 48.43C66.03 48.5 66.08 48.57 66.13 48.63C66.19 48.69 66.26 48.74 66.34 48.77C66.42 48.8 66.5 48.82 66.58 48.82ZM66.41 48.61L66.27 48.61L66.27 47.73L66.6 47.73C66.81 47.73 66.91 47.8 66.91 47.97C66.91 48 66.91 48.04 66.9 48.06C66.89 48.09 66.87 48.12 66.85 48.14C66.83 48.17 66.81 48.18 66.78 48.2C66.75 48.21 66.72 48.22 66.69 48.21L66.93 48.59L66.77 48.59L66.55 48.21L66.39 48.21L66.41 48.61ZM66.57 48.13C66.67 48.13 66.77 48.13 66.77 47.99C66.77 47.85 66.67 47.87 66.58 47.87L66.41 47.87L66.41 48.15L66.57 48.13Z" />
			<path id="Layer" class="shp5" d="M54.16 48.42C62.68 48.42 66.99 46.92 67.77 44.07C67.89 43.55 67.48 43.38 67.05 43.38L41.28 43.38C40.85 43.38 40.44 43.54 40.56 44.07C41.33 46.92 45.65 48.42 54.17 48.42M54.18 20.99C45.67 20.99 41.12 23.91 40.57 26.85C40.53 26.96 40.52 27.08 40.54 27.19C40.56 27.31 40.61 27.42 40.68 27.51C40.75 27.6 40.85 27.67 40.96 27.71C41.06 27.76 41.18 27.78 41.3 27.76L67.06 27.76C67.18 27.78 67.29 27.76 67.4 27.71C67.51 27.67 67.6 27.6 67.67 27.51C67.75 27.42 67.79 27.31 67.81 27.19C67.83 27.08 67.82 26.96 67.78 26.85C67.23 23.91 62.69 20.99 54.18 20.99" />
			<path id="Layer" fill-rule="evenodd" class="shp2" d="M65.19 30.38C65.24 30.45 65.27 30.45 65.33 30.38L65.88 29.52C65.93 29.45 65.99 29.39 66.07 29.34C66.14 29.29 66.22 29.26 66.3 29.24C66.38 29.21 66.47 29.2 66.55 29.21C66.64 29.21 66.73 29.23 66.81 29.26C66.88 29.29 66.96 29.33 67.02 29.38C67.08 29.44 67.13 29.51 67.16 29.58C67.2 29.66 67.22 29.74 67.22 29.83C67.22 29.91 67.2 29.99 67.17 30.07L66.1 31.82C66.08 31.85 66.06 31.87 66.04 31.9C66.03 31.93 66.02 31.96 66.01 31.99C66 32.02 65.99 32.05 65.98 32.09C65.98 32.12 65.98 32.15 65.98 32.18L65.98 33.42C65.98 33.77 65.55 33.94 65.26 33.94C64.97 33.94 64.54 33.78 64.54 33.42L64.54 32.17C64.54 32.13 64.53 32.1 64.53 32.07C64.52 32.04 64.52 32.01 64.51 31.98C64.5 31.94 64.48 31.91 64.47 31.89C64.45 31.86 64.44 31.83 64.42 31.8L63.35 30.07C63.32 29.99 63.3 29.91 63.3 29.82C63.3 29.74 63.31 29.66 63.35 29.58C63.38 29.5 63.43 29.44 63.49 29.38C63.56 29.32 63.63 29.28 63.71 29.26C63.79 29.23 63.88 29.22 63.96 29.21C64.05 29.21 64.13 29.22 64.22 29.25C64.3 29.27 64.38 29.3 64.45 29.35C64.52 29.4 64.59 29.45 64.64 29.52L65.19 30.38M61.9 36.29C61.92 36.27 61.94 36.26 61.96 36.24C61.98 36.22 61.99 36.2 62.01 36.17C62.02 36.15 62.04 36.13 62.05 36.11C62.06 36.08 62.07 36.06 62.08 36.03C62.09 36 62.11 35.95 62.04 35.93C62 35.91 61.96 35.89 61.93 35.86C61.89 35.83 61.86 35.79 61.84 35.75C61.82 35.71 61.8 35.67 61.79 35.62C61.78 35.58 61.78 35.53 61.78 35.49C61.79 35.42 61.8 35.36 61.83 35.3C61.85 35.24 61.89 35.19 61.94 35.14C61.98 35.1 62.04 35.06 62.1 35.04C62.16 35.02 62.22 35 62.28 35C62.33 35.01 62.38 35.01 62.43 35.03C62.48 35.04 62.52 35.07 62.56 35.09C62.6 35.12 62.64 35.15 62.67 35.19C62.7 35.23 62.73 35.27 62.75 35.32C63.06 36.01 62.25 36.7 62.08 36.71C61.9 36.73 61.7 36.45 61.9 36.31M64.76 41.94C64.76 41.94 64.76 41.94 64.77 41.94C64.78 41.93 64.78 41.93 64.79 41.93M64.28 41.93C64.11 41.92 63.94 41.88 63.77 41.83C63.61 41.78 63.45 41.72 63.3 41.63C63.14 41.55 63 41.46 62.87 41.35C62.8 41.28 62.75 41.21 62.71 41.12C62.68 41.04 62.66 40.95 62.65 40.86C62.64 40.77 62.65 40.68 62.68 40.59C62.7 40.5 62.74 40.42 62.8 40.35C62.84 40.26 62.91 40.19 62.99 40.13C63.06 40.06 63.15 40.02 63.25 40C63.34 39.97 63.44 39.97 63.54 39.98C63.64 40 63.73 40.04 63.81 40.09C64.38 40.38 64.38 40.28 64.6 40.28C64.67 40.28 64.74 40.26 64.81 40.24C64.87 40.21 64.93 40.17 64.98 40.12C65.02 40.06 65.06 40 65.08 39.94C65.1 39.87 65.11 39.8 65.1 39.73C65.1 39.44 64.85 39.33 64.66 39.3L64.24 39.21C64.04 39.19 63.84 39.12 63.65 39.03C63.46 38.94 63.3 38.81 63.15 38.66C63.01 38.51 62.89 38.34 62.8 38.15C62.72 37.96 62.66 37.75 62.64 37.55C62.62 37.21 62.66 36.88 62.77 36.57C62.88 36.26 63.06 35.97 63.29 35.73C63.52 35.49 63.8 35.31 64.11 35.19C64.42 35.07 64.76 35.02 65.09 35.03C65.24 35.02 65.39 35.02 65.55 35.03C65.7 35.05 65.85 35.09 66 35.14C66.14 35.19 66.28 35.25 66.41 35.33C66.54 35.42 66.66 35.51 66.77 35.62C66.84 35.68 66.89 35.76 66.92 35.84C66.96 35.92 66.98 36.01 66.99 36.1C66.99 36.19 66.98 36.27 66.96 36.36C66.93 36.45 66.9 36.53 66.84 36.6C66.8 36.69 66.73 36.76 66.65 36.82C66.58 36.89 66.49 36.93 66.39 36.95C66.3 36.98 66.2 36.98 66.1 36.97C66 36.95 65.91 36.91 65.83 36.86C65.78 36.82 65.73 36.79 65.67 36.76C65.62 36.74 65.56 36.72 65.5 36.7C65.44 36.68 65.38 36.67 65.32 36.67C65.26 36.66 65.2 36.66 65.14 36.67C65.08 36.66 65.01 36.67 64.96 36.69C64.9 36.71 64.84 36.75 64.8 36.79C64.76 36.84 64.72 36.89 64.7 36.95C64.68 37.01 64.67 37.07 64.67 37.13C64.67 37.37 64.93 37.48 65.09 37.53L65.55 37.65C65.78 37.69 65.99 37.77 66.19 37.88C66.38 38 66.56 38.14 66.71 38.32C66.86 38.49 66.97 38.69 67.05 38.9C67.14 39.11 67.18 39.33 67.19 39.56C67.22 39.89 67.18 40.21 67.07 40.52C66.95 40.82 66.78 41.1 66.54 41.33C66.31 41.56 66.03 41.73 65.72 41.83C65.41 41.94 65.09 41.97 64.77 41.94C64.6 41.95 64.44 41.95 64.28 41.93ZM61.44 36.48L60.08 38.15C60.05 38.19 60.02 38.23 59.99 38.28C59.97 38.33 59.96 38.38 59.95 38.43C59.94 38.49 59.95 38.54 59.96 38.59C59.97 38.64 59.99 38.69 60.01 38.74C60.22 39.03 61.34 40.32 61.34 40.32C61.44 40.4 61.51 40.51 61.57 40.62C61.62 40.74 61.64 40.87 61.64 40.99C61.64 41.12 61.61 41.25 61.56 41.36C61.5 41.48 61.42 41.58 61.32 41.66C60.58 42.31 60.15 41.75 60.15 41.75L58.38 39.61C58.38 39.61 58.21 39.44 58.21 39.75L58.21 41.23C58.21 41.75 57.64 41.99 57.27 41.99C56.89 41.99 56.3 41.75 56.3 41.23L56.3 35.81C56.3 35.3 56.87 35.05 57.27 35.05C57.66 35.05 58.21 35.3 58.21 35.81L58.21 37.27C58.21 37.46 58.33 37.46 58.4 37.36L59.98 35.45C60.06 35.35 60.15 35.27 60.26 35.21C60.37 35.14 60.49 35.11 60.61 35.1C60.74 35.09 60.86 35.11 60.98 35.15C61.1 35.19 61.2 35.26 61.29 35.35C61.39 35.41 61.47 35.48 61.53 35.58C61.59 35.67 61.63 35.77 61.64 35.88C61.65 35.99 61.64 36.11 61.61 36.21C61.57 36.31 61.51 36.41 61.43 36.49M43.12 41.92C42.91 41.94 42.7 41.92 42.49 41.87C42.29 41.81 42.09 41.72 41.92 41.6C41.75 41.47 41.6 41.32 41.48 41.14C41.36 40.96 41.28 40.77 41.23 40.56C41.21 40.47 41.2 40.38 41.2 40.29C41.21 40.2 41.23 40.11 41.27 40.03C41.3 39.95 41.35 39.87 41.42 39.81C41.48 39.74 41.55 39.69 41.63 39.65C41.84 39.55 42.46 39.53 42.61 39.98C42.77 40.42 43.16 40.27 43.13 39.65L43.13 35.76C43.13 35.25 43.7 35 44.07 35C44.45 35 45.02 35.25 45.02 35.76L45.02 40C45.06 40.25 45.03 40.52 44.95 40.77C44.87 41.01 44.73 41.24 44.55 41.43C44.37 41.62 44.14 41.76 43.9 41.85C43.65 41.94 43.39 41.97 43.13 41.94M48.96 40.96C48.94 40.89 48.92 40.84 48.82 40.84L47.27 40.84C47.25 40.83 47.24 40.83 47.22 40.84C47.2 40.84 47.18 40.85 47.17 40.86C47.16 40.87 47.14 40.89 47.14 40.9C47.13 40.92 47.12 40.94 47.12 40.96L47.03 41.27C47 41.37 46.95 41.47 46.88 41.56C46.81 41.65 46.72 41.73 46.63 41.79C46.53 41.85 46.43 41.89 46.32 41.91C46.21 41.93 46.09 41.94 45.98 41.92C45.87 41.9 45.76 41.86 45.67 41.8C45.57 41.74 45.49 41.66 45.43 41.57C45.36 41.47 45.32 41.37 45.3 41.26C45.28 41.14 45.28 41.03 45.31 40.92L46.93 35.71C46.98 35.6 47.04 35.5 47.12 35.41C47.19 35.32 47.28 35.24 47.39 35.18C47.49 35.12 47.6 35.07 47.71 35.05C47.83 35.02 47.95 35.01 48.06 35.02C48.18 35.01 48.3 35.03 48.41 35.05C48.53 35.08 48.64 35.13 48.74 35.19C48.84 35.25 48.93 35.33 49.01 35.41C49.09 35.5 49.15 35.6 49.2 35.71L50.8 40.92C50.82 41.03 50.82 41.14 50.8 41.25C50.78 41.36 50.74 41.47 50.68 41.56C50.61 41.66 50.53 41.74 50.44 41.8C50.34 41.86 50.24 41.9 50.13 41.92C50.02 41.93 49.91 41.92 49.8 41.9C49.69 41.87 49.59 41.83 49.49 41.77C49.4 41.71 49.32 41.64 49.25 41.55C49.18 41.47 49.12 41.37 49.08 41.27L48.99 40.96M48.37 39.43C48.47 39.43 48.51 39.39 48.47 39.31L48.16 38.29C48.11 38.12 47.99 38.14 47.96 38.29L47.65 39.31C47.63 39.32 47.62 39.33 47.62 39.35C47.62 39.37 47.62 39.39 47.64 39.41C47.65 39.42 47.66 39.43 47.68 39.43C47.7 39.44 47.72 39.43 47.73 39.43L48.37 39.43M52.62 38.53C52.62 38.52 52.62 38.52 52.62 38.51C52.62 38.51 52.62 38.5 52.62 38.5L52.62 38.53ZM53.98 40.25C54.04 40.25 54.1 40.25 54.15 40.24C54.21 40.23 54.27 40.22 54.32 40.2C54.38 40.19 54.43 40.17 54.48 40.14C54.54 40.12 54.59 40.09 54.64 40.06C54.72 40.01 54.82 39.97 54.92 39.96C55.02 39.94 55.13 39.95 55.23 39.97C55.33 40 55.42 40.04 55.5 40.11C55.58 40.17 55.65 40.25 55.7 40.34C55.76 40.41 55.81 40.5 55.83 40.59C55.86 40.68 55.87 40.78 55.87 40.87C55.86 40.97 55.84 41.06 55.8 41.15C55.76 41.24 55.7 41.32 55.63 41.39C55.52 41.49 55.39 41.59 55.26 41.67C55.12 41.76 54.98 41.83 54.83 41.88C54.68 41.93 54.53 41.97 54.37 41.99C54.21 42.01 54.05 42.02 53.9 42C53.01 41.94 52.18 41.55 51.58 40.9C50.97 40.25 50.63 39.4 50.63 38.51C50.63 37.62 50.97 36.77 51.58 36.12C52.18 35.47 53.01 35.08 53.9 35.02C54.05 35.01 54.21 35.01 54.37 35.03C54.53 35.05 54.68 35.08 54.83 35.14C54.98 35.19 55.13 35.26 55.26 35.34C55.39 35.43 55.52 35.53 55.63 35.64C55.7 35.71 55.75 35.78 55.79 35.87C55.83 35.96 55.85 36.05 55.86 36.14C55.87 36.24 55.86 36.33 55.83 36.42C55.8 36.51 55.76 36.6 55.7 36.67C55.65 36.76 55.58 36.84 55.5 36.9C55.42 36.96 55.33 37.01 55.23 37.03C55.13 37.06 55.02 37.06 54.92 37.05C54.82 37.03 54.72 37 54.64 36.95C54.59 36.92 54.54 36.89 54.48 36.86C54.43 36.84 54.38 36.82 54.32 36.81C54.27 36.79 54.21 36.78 54.15 36.77C54.1 36.76 54.04 36.76 53.98 36.76C52.97 36.76 52.63 37.59 52.62 38.51C52.63 39.43 52.99 40.25 53.98 40.25ZM42.84 32.2C42.75 32.2 42.66 32.23 42.66 32.35L42.66 33.44C42.66 33.8 42.23 33.95 41.94 33.95C41.65 33.95 41.22 33.78 41.22 33.44L41.22 29.73C41.22 29.37 41.65 29.22 41.94 29.22C42.23 29.22 42.66 29.39 42.66 29.73L42.66 30.72C42.66 30.74 42.66 30.76 42.67 30.78C42.68 30.8 42.69 30.82 42.7 30.83C42.72 30.85 42.74 30.86 42.76 30.86C42.78 30.87 42.8 30.87 42.82 30.87L43.56 30.87C43.66 30.87 43.71 30.84 43.71 30.72L43.71 29.73C43.71 29.37 44.14 29.22 44.44 29.22C44.73 29.22 45.16 29.39 45.16 29.73L45.16 33.44C45.16 33.8 44.73 33.95 44.44 33.95C44.14 33.95 43.71 33.78 43.71 33.44L43.71 32.36C43.71 32.23 43.65 32.2 43.54 32.2L42.84 32.2ZM57.41 32.2C57.24 32.2 57.08 32.14 56.96 32.03C56.84 31.91 56.77 31.75 56.77 31.59C56.77 31.42 56.84 31.26 56.96 31.14C57.08 31.03 57.24 30.97 57.41 30.98L58.44 30.98C58.8 30.98 59.02 31.11 59.02 31.46L59.02 32.78C59.02 33.54 58.06 33.95 56.99 33.95C56.66 33.98 56.33 33.94 56.02 33.83C55.71 33.72 55.43 33.54 55.19 33.31C54.96 33.07 54.78 32.79 54.67 32.48C54.56 32.17 54.52 31.84 54.55 31.51C54.52 31.18 54.56 30.85 54.67 30.54C54.78 30.22 54.96 29.94 55.2 29.71C55.43 29.48 55.72 29.3 56.03 29.2C56.35 29.09 56.68 29.06 57.01 29.1C57.16 29.09 57.31 29.09 57.46 29.11C57.61 29.12 57.76 29.15 57.9 29.2C58.05 29.24 58.19 29.29 58.32 29.36C58.46 29.43 58.59 29.51 58.71 29.6C58.76 29.65 58.8 29.7 58.83 29.76C58.86 29.83 58.87 29.89 58.88 29.96C58.88 30.03 58.88 30.1 58.86 30.16C58.84 30.23 58.8 30.29 58.76 30.34C58.72 30.4 58.67 30.46 58.6 30.5C58.54 30.55 58.47 30.58 58.39 30.6C58.32 30.61 58.24 30.62 58.17 30.61C58.09 30.59 58.02 30.57 57.95 30.53C57.89 30.49 57.82 30.46 57.75 30.43C57.68 30.41 57.61 30.38 57.54 30.37C57.46 30.35 57.39 30.34 57.32 30.33C57.24 30.32 57.17 30.32 57.09 30.32C56.32 30.32 56.06 30.89 56.06 31.52C56.06 32.16 56.39 32.69 56.97 32.69C57.56 32.69 57.61 32.54 57.59 32.29C57.58 32.05 57.54 32.19 57.4 32.19M62.51 31.88C62.44 31.93 62.46 31.96 62.48 32.02L63.27 33.05C63.31 33.12 63.33 33.19 63.34 33.27C63.35 33.35 63.34 33.43 63.31 33.51C63.29 33.58 63.25 33.65 63.2 33.71C63.15 33.77 63.08 33.82 63.01 33.86C62.94 33.9 62.86 33.94 62.77 33.96C62.69 33.98 62.6 33.98 62.51 33.97C62.43 33.97 62.34 33.95 62.26 33.91C62.18 33.88 62.11 33.83 62.05 33.77L61.03 32.46C60.98 32.39 60.89 32.43 60.89 32.52L60.89 33.48C60.89 33.82 60.48 33.96 60.19 33.96C59.9 33.96 59.48 33.8 59.48 33.48L59.48 29.73C59.48 29.38 59.85 29.21 60.19 29.21L61.53 29.21C61.73 29.2 61.93 29.22 62.12 29.28C62.31 29.35 62.48 29.45 62.63 29.58C62.78 29.71 62.9 29.87 62.99 30.05C63.07 30.23 63.12 30.42 63.13 30.62C63.14 30.75 63.13 30.87 63.1 30.99C63.08 31.11 63.04 31.23 62.99 31.34C62.93 31.45 62.86 31.55 62.78 31.65C62.7 31.74 62.61 31.82 62.51 31.9M61.17 31.19C61.24 31.2 61.31 31.19 61.38 31.16C61.44 31.14 61.5 31.1 61.55 31.05C61.6 31 61.64 30.95 61.67 30.88C61.69 30.82 61.71 30.75 61.7 30.68C61.7 30.37 61.6 30.16 61.15 30.16C60.98 30.16 60.95 30.2 60.9 30.26L60.9 31.1C60.9 31.19 61 31.19 61.19 31.19M47.55 33.99C46.67 33.99 45.67 33.42 45.67 32.61L45.67 29.67C45.67 29.33 46.1 29.17 46.38 29.17C46.65 29.17 47.08 29.33 47.08 29.67L47.08 32.32C47.08 32.53 47.3 32.63 47.53 32.63C47.75 32.63 47.97 32.51 47.97 32.32L47.97 29.67C47.97 29.33 48.4 29.17 48.68 29.17C48.95 29.17 49.38 29.33 49.38 29.67L49.38 32.63C49.38 33.44 48.4 34 47.53 34M51.33 32.05L51.33 33.44C51.33 33.75 50.9 33.97 50.59 33.97C50.28 33.97 49.85 33.8 49.85 33.44L49.85 29.69C49.85 29.33 50.28 29.12 50.59 29.12C50.67 29.12 50.74 29.13 50.82 29.16C50.89 29.18 50.96 29.21 51.03 29.25C51.1 29.29 51.16 29.33 51.22 29.39C51.27 29.44 51.32 29.5 51.36 29.57L52.53 31.03C52.62 31.15 52.76 31.17 52.76 31.06L52.76 29.69C52.76 29.33 53.19 29.12 53.5 29.12C53.81 29.12 54.24 29.33 54.24 29.69L54.24 33.42C54.24 33.78 53.81 33.96 53.5 33.96C53.19 33.96 53.07 33.96 52.76 33.58L51.52 32.03C51.45 31.94 51.31 31.93 51.31 32.03" />
		</g>
	</g>
</svg>