<svg xmlns="http://www.w3.org/2000/svg" width="216.811" height="76.002" viewBox="0 0 216.811 76.002">
  <g id="NZ_Breakers_NEG" data-name="NZ Breakers_NEG" transform="translate(108.405 38.001)">
    <g id="NZ_Breakers_NEG-2" data-name="NZ Breakers_NEG" transform="translate(-108.405 -38.001)">
      <g id="Group_48353" data-name="Group 48353" transform="translate(0 0.002)">
        <path id="Path_219100" data-name="Path 219100" d="M214.1,46.7h-14c-6.8,0-10.6,3.1-11.6,9.3-1.5,9.2,6.3,8.1,8.6,8.1h6.7c2.8,0,4,1,3.7,3s-1.9,3.1-4.7,3.1h-16l-.9,5.8h19.7c4.9,0,8.5-3.8,9.4-9.6s-3.6-8.1-8.3-8.1h-7c-2.5,0-3.4-.8-3.3-2.6s1.6-3,4.5-3h12.4a3.6,3.6,0,0,0,3.4-2.9,2.4,2.4,0,0,0-2.6-3.1Z" fill="#fff"/>
        <path id="Path_219101" data-name="Path 219101" d="M99.6,46.7H86.5a3.6,3.6,0,0,0-3.4,3,2.4,2.4,0,0,0,2.5,2.9H95.8c5.4,0,6.8,1.3,6.1,5.7H91.7c-7.8,0-11.9,2.5-12.9,9s2,8.6,7.6,8.6h20.5l2.9-18.3C111.3,46.7,103,46.7,99.6,46.7Zm.4,23.6H90.4c-2.6,0-4-.9-3.7-3.2S89.5,64,92,64h9.1Z" fill="#fff"/>
        <path id="Path_219102" data-name="Path 219102" d="M68.8,52.6H76a3.6,3.6,0,0,0,3.4-2.9,2.5,2.5,0,0,0-2.5-3H68.7c-5.3,0-14.8,1.4-16.9,14.6C50.5,70.2,54.2,76,64,76h8.2a3.5,3.5,0,0,0,3.4-2.9,2.4,2.4,0,0,0-2.5-2.9H65.9c-6,0-7-1.6-6.3-5.7H74a3.6,3.6,0,0,0,3.5-3,2.5,2.5,0,0,0-2.5-3H60.7C61.4,53.9,63.7,52.6,68.8,52.6Z" fill="#fff"/>
        <path id="Path_219103" data-name="Path 219103" d="M156.7,52.6h7.2a3.6,3.6,0,0,0,3.4-2.9,2.5,2.5,0,0,0-2.5-3h-8.2c-5.3,0-14.8,1.4-16.9,14.6C138.4,70.2,142.2,76,152,76h8.2a3.5,3.5,0,0,0,3.4-2.9,2.4,2.4,0,0,0-2.5-2.9h-7.2c-6,0-7-1.6-6.3-5.7H162a3.7,3.7,0,0,0,3.5-3,2.5,2.5,0,0,0-2.5-3H148.6C149.3,53.9,151.6,52.6,156.7,52.6Z" fill="#fff"/>
        <path id="Path_219104" data-name="Path 219104" d="M144.3,46.7h-9.5L120.1,60.8l3.3-21.1a3.1,3.1,0,0,0-3.2-3.7,4.5,4.5,0,0,0-4.3,3.7h0L110.2,76h7.5L120,61.7,129.5,76h10.1l-11-15Z" fill="#fff"/>
        <path id="Path_219105" data-name="Path 219105" d="M53,49.4a2.3,2.3,0,0,0-2.3-2.7H36.9L36,52.1,32.8,72.3h0A3.1,3.1,0,0,0,35.9,76a4.5,4.5,0,0,0,4.3-3.7h0l3.2-20.2h6.4A3.3,3.3,0,0,0,53,49.4Z" fill="#fff"/>
        <path id="Path_219106" data-name="Path 219106" d="M187.2,49.4a2.3,2.3,0,0,0-2.3-2.7H171.1l-.9,5.4L167,72.3h0a3.1,3.1,0,0,0,3.1,3.7,4.5,4.5,0,0,0,4.3-3.7h0l3.2-20.2H184A3.3,3.3,0,0,0,187.2,49.4Z" fill="#fff"/>
        <path id="Path_219107" data-name="Path 219107" d="M18.8,46.7H12.1l1.1-7h0A3.1,3.1,0,0,0,10.1,36a4.6,4.6,0,0,0-4.3,3.7h0L0,76H14.7c11.8,0,15.7-9.8,16.5-15C32.4,51.8,28.2,46.7,18.8,46.7Zm4.4,14.7c-.7,4.8-3.1,8.6-10.1,8.6H8.4l2.7-17h4.8c7.2,0,8,3.8,7.3,8.5Z" fill="#fff"/>
        <path id="Path_219108" data-name="Path 219108" d="M33.2,40.8H45.9l.5-2.9H38.3L47.6,30l.5-3H36.9a1.8,1.8,0,0,0-1.7,1.5A1.2,1.2,0,0,0,36.4,30H43l-9.3,7.9Z" fill="#fff"/>
        <path id="Path_219109" data-name="Path 219109" d="M28.4,27H21.7L19.5,40.8H23L24.7,30h2.9c2.7,0,2.2,1.6,2.1,2.5l-1.3,8.2h3.5L33.3,32C33.9,27.9,32,27,28.4,27Z" fill="#fff"/>
      </g>
      <g id="Group_48355" data-name="Group 48355" transform="translate(0 0.002)">
        <g id="Group_48354" data-name="Group 48354">
          <path id="Path_219110" data-name="Path 219110" d="M129.2,17.8l-4-1q-2.1-.6-2.1-2a1.8,1.8,0,0,1,.9-1.6,4.2,4.2,0,0,1,2.3-.6,7.3,7.3,0,0,1,4.4,1.7,1.2,1.2,0,0,0,1.7,0l1.5-1.5q.8-.8-.2-1.6a8.5,8.5,0,0,0-3-1.8,12.1,12.1,0,0,0-4.3-.7,9.1,9.1,0,0,0-5.8,1.8,5.6,5.6,0,0,0-2.3,4.6,5.3,5.3,0,0,0,1.4,3.7,7.3,7.3,0,0,0,3.8,2.1l3.6.9a6.5,6.5,0,0,1,2.3.9,1.8,1.8,0,0,1,.7,1.5,1.9,1.9,0,0,1-.9,1.6,4.2,4.2,0,0,1-2.5.7,7,7,0,0,1-5-2.2,1.1,1.1,0,0,0-1.5-.2l-1.9,1.5a1.1,1.1,0,0,0-.4.9,1.5,1.5,0,0,0,.5.9,9.4,9.4,0,0,0,3.3,2.2,12.7,12.7,0,0,0,4.9.9,9.1,9.1,0,0,0,6.3-2,6,6,0,0,0,2.2-4.7Q134.9,19.3,129.2,17.8Z" fill="#fff"/>
          <path id="Path_219111" data-name="Path 219111" d="M151.9,11.2a7.2,7.2,0,0,0-5.4-2h-8.2l-.5.2a.7.7,0,0,0-.2.5V29.4a.7.7,0,0,0,.2.5l.5.2h3.2l.5-.2a.7.7,0,0,0,.2-.5V23.1h4.4a7.2,7.2,0,0,0,5.4-2,7,7,0,0,0-.1-9.9Zm-3.6,7.2a3.3,3.3,0,0,1-2.3.9h-3.9V13.1H146a3.3,3.3,0,0,1,2.3.8,2.8,2.8,0,0,1,.9,2.2,2.9,2.9,0,0,1-.9,2.2Z" fill="#fff"/>
          <path id="Path_219112" data-name="Path 219112" d="M174.2,11.9a11.4,11.4,0,0,0-15.7,0,10.4,10.4,0,0,0-3.2,7.7,10.4,10.4,0,0,0,3.2,7.7,11.4,11.4,0,0,0,15.7,0,10.4,10.4,0,0,0,3.2-7.7,10.4,10.4,0,0,0-3.2-7.7Zm-3.3,12.5a6.4,6.4,0,0,1-9.2,0,6.7,6.7,0,0,1-1.8-4.8,6.7,6.7,0,0,1,1.8-4.8,6.4,6.4,0,0,1,9.2,0,6.7,6.7,0,0,1,1.8,4.8,6.7,6.7,0,0,1-1.8,4.8Z" fill="#fff"/>
          <path id="Path_219113" data-name="Path 219113" d="M197.8,29.2,193,21.5a5.8,5.8,0,0,0,2.5-1.6,6.1,6.1,0,0,0,1.3-2.2,7.2,7.2,0,0,0,.3-2.2,5.9,5.9,0,0,0-2-4.6,7.5,7.5,0,0,0-5.3-1.8h-9.4l-.5.2a.7.7,0,0,0-.2.4V29.4a.7.7,0,0,0,.2.5l.5.2h3.1l.5-.2a.7.7,0,0,0,.2-.5V22.3h4l4.3,7.1a1.3,1.3,0,0,0,1.1.7h3.5a.6.6,0,0,0,.5-.9Zm-6.1-11.3a3.3,3.3,0,0,1-2.3.8h-5V13.1h5a3.3,3.3,0,0,1,2.2.7,2.5,2.5,0,0,1,.9,2,2.6,2.6,0,0,1-.9,2Z" fill="#fff"/>
          <path id="Path_219114" data-name="Path 219114" d="M216.3,9.3l-.5-.2H199.3l-.5.2a.7.7,0,0,0-.2.5v2.7a.7.7,0,0,0,.2.5l.5.2h6V29.4a.7.7,0,0,0,.2.5l.5.2h3.3l.5-.2a.7.7,0,0,0,.2-.5V13.3h6l.5-.2a.7.7,0,0,0,.2-.5V9.8a.7.7,0,0,0-.4-.5Z" fill="#fff"/>
        </g>
        <path id="Path_219115" data-name="Path 219115" d="M74.9,9.2H64.6c-4.9,0-6.9,2.7-7.5,5.4s2,5.1,4,6l5.3,2.2c1.3.5,1.5,1,1.4,1.6s-.6,1-2.3,1H55.2a.5.5,0,0,0-.5.4l-.8,3.7a.5.5,0,0,0,.5.7H65.5c5.1,0,6.9-2.7,7.5-5.6s-1.5-5-3.9-6.1l-4.9-2c-1.4-.6-2-1-1.9-1.5s.4-.9,1.8-.9h10a.5.5,0,0,0,.5-.4l.8-3.7a.5.5,0,0,0-.5-.8ZM85.1,0H80.9a.5.5,0,0,0-.5.4L74,29.4a.5.5,0,0,0,.5.7h4.2a.5.5,0,0,0,.5-.4l2.2-10.2L85.6.7a.5.5,0,0,0-.5-.7Zm30.7,9.2h-4.7l-.4.2L103,18,97.9,9.4a.5.5,0,0,0-.5-.3H90.8l-.4.2L81.5,19.4l6.2,10.3a.5.5,0,0,0,.5.3h4.9a.5.5,0,0,0,.5-.8l-5.9-9.8,6.1-6.9,6.1,10.2L97,36.2a.5.5,0,0,0,.5.7h4a.5.5,0,0,0,.5-.4l3-13.7,11.2-12.6a.539.539,0,0,0-.4-1Z" fill="#fff"/>
      </g>
    </g>
  </g>
</svg>
