<?xml version="1.0" encoding="utf-8"?>
<!-- Generator: Adobe Illustrator 25.0.0, SVG Export Plug-In . SVG Version: 6.00 Build 0)  -->
<svg version="1.1" xmlns="http://www.w3.org/2000/svg" xmlns:xlink="http://www.w3.org/1999/xlink" x="0px" y="0px"
	 viewBox="0 0 1204.3 841.3" style="enable-background:new 0 0 1204.3 841.3;" xml:space="preserve">
<style type="text/css">
	.st0{fill:#69BE29;}
	.st1{fill:#303030;}
	.st2{fill:#CEFF00;}
	.st3{fill:#FFFFFF;}
	.st4{clip-path:url(#SVGID_2_);fill:#FFFFFF;}
	.st5{clip-path:url(#SVGID_4_);fill:#FFFFFF;}
	.st6{clip-path:url(#SVGID_6_);fill:#FFFFFF;}
	.st7{clip-path:url(#SVGID_8_);fill:#FFFFFF;}
	.st8{clip-path:url(#SVGID_10_);fill:#FFFFFF;}
</style>
<g id="Layer_2">
</g>
<g id="Layer_1">
	<g id="Layer_2_1_">
	</g>
	<g id="Layer_1_1_">
		<g>
			<g id="Layer_2_2_">
			</g>
			<g id="Artwork">
				<path class="st0" d="M593.8,179.8c-4.5-3.4-9.2-6.6-14.1-9.5c25.7,38.3,25.2,88.5-1.3,126.3c1.2-15.6-3-32.8-12.2-49.7
					c2.3,21.4-1.8,41.6-13.2,58.4c-1.6,2.4-3.3,4.6-5.2,6.8c-0.8-1.3-1.6-2.7-2.3-4c-23.1-41.7-17.2-93.4,14.6-128.8
					c-5.2,2.2-10.3,4.7-15.3,7.4c-49.1,27.2-80.2,78.2-81.8,134.3c-22.7-39.3-19.4-88.5,8.5-124.4l0,0c20.5-28,56.8-39.3,89.6-28
					l0,0c-9.9-16-32.1-18.6-32.1-18.6l0,0c0,0,0.7-9.6-19.7-14.6c-7.9-2-19-3.3-34.6-3h-1.3c-15.3,0.2-30.4,3.1-44.7,8.5
					c-4.2,1.5-8.2,3.3-12,5.5c10.7-1.5,21.6-1.2,32.2,0.9c-16.1,3.1-40.1,11.9-53.3,22.7c9.3-2.9,19-4.3,28.8-4.3
					c-78,40.2-108.6,136-68.4,214c37,71.8,122,104.3,197.5,75.7c1.2-0.4,2.3-0.9,3.4-1.3l1-0.4c81.2-33.2,120.2-125.9,87-207.1
					C634.2,220,616.5,197,593.8,179.8"/>
				<path class="st1" d="M525.4,149.8L525.4,149.8c0-0.4-0.7-7-17-11c-7.8-2-17.8-3-29.8-3h-3.9h-1.3c-12.7,0.2-25.3,2.3-37.3,6.1
					c4.5,0.2,9.1,0.8,13.5,1.7l17.5,3.6l-17.5,3.4c-12.1,2.5-23.8,6.4-35,11.8c3.1-0.3,6.1-0.4,9.1-0.4h0.7l14.3,0.1l-12.7,6.6
					c-76.3,39.1-106.5,132.7-67.3,209c36.2,70.5,119.6,102.5,193.7,74.2l0.3-0.1c1-0.4,2.1-0.8,3.1-1.2c0.2-0.1,0.3-0.1,0.5-0.2
					l0.5-0.2c79.4-32.4,117.5-123,85.2-202.4c-10.5-25.9-27.9-48.4-50.2-65.3l-1.3-0.9c18.5,37.7,15,82.5-9.1,116.9l-7.4,10.6
					l1-12.9c0.7-10.9-1-21.8-4.7-32c-0.8,15.3-5.7,30.2-14.2,43c-1.7,2.5-3.5,4.8-5.4,7.1l-3.2,3.8l-2.6-4.2
					c-0.8-1.4-1.7-2.8-2.4-4.2c-21.1-38.1-18.9-84.8,5.5-120.8c-0.5,0.2-0.9,0.5-1.4,0.8c-48,26.6-78.4,76.5-80,131.3l-0.4,12.5
					l-6.3-10.8c-23.4-40.6-20-91.3,8.8-128.4l0,0c18.8-25.5,50.4-38,81.5-32.3c-7.4-5.5-16.2-7.6-19.9-8.2c-0.9-0.2-1.9-0.3-2.8-0.2
					h-1L525.4,149.8"/>
				<path class="st0" d="M493.5,279.7c-0.9,2.6-1.8,5.3-2.6,8c-5.1,17.8-6.6,36.5-4.2,54.9c11-1.4,21.6-4.4,31.7-8.9
					c-3.1-6.6-5.7-13.4-7.6-20.4C502.7,303.5,496.8,292,493.5,279.7"/>
				<path class="st2" d="M516.3,298c-0.3-0.8-0.5-1.5-0.8-2.3s-0.5-1.3-0.7-2s-0.5-1.6-0.7-2.4s-0.4-1.3-0.6-1.9
					c-0.2-0.8-0.4-1.6-0.6-2.5c-0.2-0.6-0.3-1.2-0.5-1.9c-0.2-0.8-0.4-1.7-0.6-2.5c-0.1-0.6-0.3-1.2-0.4-1.8
					c-0.2-0.9-0.3-1.7-0.5-2.6c-0.1-0.6-0.2-1.2-0.3-1.8c-0.2-0.9-0.3-1.8-0.4-2.6c-0.1-0.6-0.2-1.2-0.3-1.7
					c-0.1-0.9-0.2-1.8-0.3-2.7c-0.1-0.6-0.1-1.1-0.2-1.7c-0.1-0.9-0.2-1.8-0.2-2.7c0-0.6-0.1-1.1-0.1-1.7c-0.1-0.9-0.1-1.8-0.2-2.7
					c0-0.6-0.1-1.1-0.1-1.7c0-0.9-0.1-1.8-0.1-2.7c0-0.6,0-1.1,0-1.7c0-0.9,0-1.8,0-2.7v-1.1c-6,28-2.7,57.2,9.6,83.1
					c4.2-1.9,8.3-4.2,12.2-6.7c-1.7-2.7-3.4-5.4-5-8.2l-0.1-0.2c-0.7-1.3-1.4-2.5-2-3.8c-0.2-0.5-0.5-1-0.7-1.5
					c-0.4-0.9-0.9-1.7-1.3-2.6c-0.3-0.6-0.6-1.2-0.8-1.9c-0.2-0.7-0.7-1.5-1-2.3s-0.6-1.4-0.9-2.1s-0.6-1.4-0.9-2.1
					s-0.5-1.5-0.8-2.2S516.6,298.7,516.3,298"/>
				<path class="st0" d="M606.1,366.5c-18.9,8.7-39.8,11.9-60.4,9.2c28.5-13.5,51.2-36.8,63.9-65.6c9.4-8.6,16.8-19.1,21.8-30.8
					C631.4,279.3,640.4,320.8,606.1,366.5"/>
				<path class="st2" d="M554.1,348.7c-13.8,7.9-28.8,13.3-44.5,16c8.6,4.3,17.7,7.5,27.2,9.5c3,0.6,5.9,1.1,8.9,1.5
					c48.8-23,78.4-73.6,74.7-127.4l-0.1,0.7c0,0.2,0,0.3-0.1,0.5c-0.1,0.9-0.2,1.8-0.4,2.7c-0.1,0.6-0.2,1.1-0.3,1.7
					c-0.1,0.9-0.3,1.8-0.5,2.7c-0.1,0.6-0.2,1.1-0.3,1.7c-0.2,0.9-0.3,1.8-0.5,2.6l-0.4,1.7c-0.2,0.9-0.4,1.7-0.6,2.6
					c-0.1,0.6-0.3,1.1-0.4,1.7c-0.2,0.9-0.5,1.7-0.7,2.6l-0.5,1.7c-0.3,0.8-0.5,1.7-0.8,2.5c-0.2,0.6-0.4,1.1-0.6,1.7
					c-0.3,0.8-0.6,1.6-0.8,2.5c-0.2,0.6-0.4,1.2-0.7,1.8c-0.3,0.8-0.6,1.6-0.9,2.4c-0.2,0.6-0.5,1.2-0.8,1.8c-0.3,0.8-0.6,1.5-1,2.3
					s-0.6,1.2-0.8,1.9s-0.7,1.5-1,2.2s-0.6,1.2-0.9,1.9s-0.7,1.4-1.1,2.1s-0.7,1.3-1,1.9s-0.7,1.4-1.1,2s-0.8,1.3-1.2,2
					s-0.7,1.3-1.1,1.9s-0.9,1.4-1.3,2.1s-0.7,1.2-1.1,1.7c-0.5,0.8-1,1.5-1.6,2.3c-0.3,0.5-0.7,1-1,1.5c-0.8,1.2-1.7,2.3-2.5,3.5
					l-0.2,0.3C583.4,327.7,569.7,339.7,554.1,348.7"/>
				<path class="st0" d="M398.2,235.5c-33.3,38-40.9,92.1-19.2,137.8c1.1,1.9,2.2,3.8,3.4,5.7c-6.2-21.6-4-44.8,6.2-64.9
					c-3.6,52.8,26.1,102.3,74.4,124c1.2,0.3,2.4,0.6,3.7,0.9c-15-9.1-26.9-22.3-34.4-38.1c39.4,35,96.3,41.9,142.9,17.5
					c1.3-0.9,2.6-1.8,3.8-2.8c-12.7,0.5-25.4-1.8-37.2-6.6c-72.4,1.8-132.6-55.4-134.4-127.8c-0.3-10.1,0.7-20.3,2.7-30.2
					c6.3-30.1,20.7-59.2,48.9-75.2c-39.8,11.8-72.1,41-87.6,79.5C379,247.1,388.1,240.3,398.2,235.5"/>
				<path class="st2" d="M410,251.1c-14.9,70.8,30.4,140.3,101.2,155.2c31,6.5,63.3,1.6,91-13.9l-0.7,0.2l-0.4,0.1
					c-0.9,0.3-1.7,0.5-2.6,0.8c-0.5,0.2-1.1,0.3-1.6,0.5c-0.9,0.3-1.8,0.5-2.6,0.7l-1.6,0.4c-0.9,0.2-1.8,0.5-2.6,0.6l-1.7,0.4
					l-2.7,0.6L584,397c-0.9,0.2-1.8,0.3-2.6,0.5c-0.6,0.1-1.2,0.2-1.8,0.3c-0.9,0.1-1.7,0.3-2.6,0.4l-1.8,0.2
					c-0.9,0.1-1.7,0.2-2.6,0.3l-1.9,0.2l-2.6,0.2l-1.9,0.1c-0.8,0-1.7,0.1-2.5,0.1h-2h-2.5c-0.7,0-1.4,0-2.1,0s-1.6,0-2.4,0
					l-2.2-0.1c-0.8,0-1.5-0.1-2.3-0.1s-1.6-0.1-2.3-0.2l-2.2-0.2c-0.8-0.1-1.7-0.2-2.5-0.3c-0.7-0.1-1.3-0.1-2-0.2
					c-1-0.1-1.9-0.3-2.8-0.4c-0.6-0.1-1.1-0.2-1.7-0.3c-1.4-0.2-2.8-0.5-4.2-0.8l-0.3-0.1c-6.6-1.4-13.1-3.3-19.4-5.6
					c-2.1-0.8-4.2-1.6-6.2-2.5c-14.2-6.1-27.2-14.6-38.5-25.2c-1.6-1.5-3.1-3-4.6-4.5c-6-6.2-11.4-13-16.2-20.2
					c-1.2-1.8-2.3-3.7-3.4-5.5c-1.6-2.7-3-5.4-4.4-8.2c-1.1-2.2-2.1-4.4-3.1-6.7c-2.9-6.8-5.2-13.7-7-20.9c-0.5-2.1-1-4.2-1.4-6.4
					c-5.7-29.3-1.5-59.6,11.9-86.3c1.3-2.6,2.7-5.1,4.1-7.6c0.7-1.2,1.5-2.5,2.2-3.7c1.5-2.4,3.1-4.8,4.8-7.1
					c0.8-1.2,1.7-2.3,2.6-3.4c1.8-2.3,3.6-4.5,5.5-6.6C430.8,191.8,416.4,221,410,251.1"/>
				<path class="st3" d="M501.9,152.4c1.5,0.8,3.2,1.1,4.9,1.1c2.9-0.1,5.7-1,8.1-2.6l-21.9-4.6l8.2,5.6L501.9,152.4z"/>
				<path class="st3" d="M797.2,403c0-12.6,0-25.1,0-37.7c-22.9-0.6-45.9-1-68.9-1.2c0-19.7,0-39.3,0-59c20.1,0.1,40.3,0.4,60.4,0.7
					c0-13.2,0-26.4,0-39.5c-20.1-0.3-40.2-0.5-60.4-0.6V185c22.9,0.1,45.8,0.1,68.8,0.3c0-12.6,0-25.1,0-37.7
					c-43-0.1-86-0.1-129-0.1l11.5,7.3v239.3c-3.8,2.5-7.7,4.9-11.5,7.4c43.1-0.3,86.2,0.2,129.4,1.5"/>
				<path class="st3" d="M990.1,406.4l-11.4,6.7c20.1,1.6,40.2,3.4,60.3,5.4l-0.5-270.1c-20.1-0.1-40.2-0.2-60.3-0.3l11.5,7.7
					L990.1,406.4z"/>
				<path class="st3" d="M1135.6,132.6c3.3,2.3,6.6,4.7,9.9,7c-5.9,26.7-11.7,53.1-17.5,79.4c-6.3-29.1-12.7-57.9-19.1-86.5h-61.4
					c4.6,3.1,9.2,6.3,13.7,9.4c10.6,46.1,21.2,92.7,31.8,139.9c-11.9,52.4-23.8,104-35.7,155l-13.5,7.9c19.8,2.2,39.5,4.5,59.2,7
					c7.7-33.3,15.4-66.9,23.1-100.8c7.2,32.2,14.4,64.7,21.6,97.5l-13.1,7.5c21.7,3,43.4,6.2,65.1,9.6c-14-60.8-28-120.5-42.1-178.9
					c12.4-50.5,24.9-101.9,37.4-154.1L1135.6,132.6z"/>
				<path class="st3" d="M959.5,148.1c-19.3-0.1-38.7-0.2-58-0.2c3.8,2.5,7.6,5,11.4,7.5c0.1,35.2,0.1,70.5,0.2,105.7
					c-13.3-38.1-26.5-75.9-39.7-113.3c-19.3-0.1-38.5-0.1-57.8-0.1l11.5,7.4l0.3,241.6l-11.5,7c19.5,0.7,38.9,1.5,58.4,2.5
					l-0.2-123.8c14.4,41.6,28.8,83.6,43.2,126.1c14.2,0.9,28.5,1.9,42.7,3L959.5,148.1z"/>
				<path class="st3" d="M109.5,277.4c-13,0.7-26.1,1.4-39.1,2.2c0-35.3,0-70.6,0.1-105.8c13.1-0.2,26.1-0.5,39.2-0.7L109.5,277.4
					 M22.6,455.5c-3.8,3.3-7.6,6.7-11.4,10.1c19.6-3.1,39.3-6,59-8.8c0.1-44.4,0.1-88.9,0.1-133.3c17-1.5,34-2.8,51.1-4.1
					c10.9-5.8,21.7-11.5,32.6-17.1l0.3-153.6c-9.7-5.3-19.3-10.8-29-16.2H11.2c3.8,2.8,7.6,5.5,11.4,8.3
					C22.6,140.8,22.6,455.5,22.6,455.5z"/>
				<path class="st3" d="M183.9,409.6c-3.8,2.9-7.6,5.9-11.4,8.9c20.1-2,40.2-3.8,60.2-5.4c0.1-33.6,0.1-67.1,0.2-100.7
					c11.5-0.6,22.9-1.2,34.4-1.7l-0.2,92.1c-4.7,3.4-9.5,6.9-11.5,8.4c20-1.5,40.1-2.8,60.1-4l0.4-259.5c-20,0.1-40,0.1-60.1,0.2
					l11.4,7.5c-0.1,38.2-0.2,76.3-0.2,114.5c-11.5,0.4-22.9,0.8-34.4,1.3c0.1-41.1,0.2-82.1,0.2-123.2c-20.1,0.1-40.2,0.2-60.3,0.3
					c3.8,2.6,7.6,5.1,11.4,7.7L183.9,409.6z"/>
				<path class="st0" d="M227.4,32.8c-3-8.7-6.8-12.5-13-12.5s-9.8,3.9-9.8,10.2c0,14,39.6,15,39.6,44.1c0,15.9-10.9,26.5-29.6,26.5
					c-14.4,0-25.6-7.8-30.3-26.1l17.5-3.7c2.1,11.2,8.5,15.2,13.8,15.2c6.2,0,10.9-4.1,10.9-11.1c0-17.5-39.6-17.7-39.6-43.7
					c0-15.9,9.5-26,27.9-26c15.8,0,25.4,9.4,28.5,22.5L227.4,32.8z"/>
				<polygon class="st0" points="285.6,7 285.6,99.8 335.5,99.8 335.5,84.1 303.4,84.1 303.4,59.7 326.9,59.7 326.9,44 303.4,44 
					303.4,22.7 334.2,22.7 334.2,7 				"/>
				<polygon class="st0" points="454.9,7 438.8,67.9 438.6,67.9 422.5,7 397.7,7 397.7,99.8 412.9,99.8 412.9,26.8 413.1,26.8 
					432,99.8 445.4,99.8 464.3,26.8 464.5,26.8 464.5,99.8 479.7,99.8 479.7,7 				"/>
				<polygon class="st0" points="495.6,7 495.6,99.8 545.5,99.8 545.5,84.1 513.3,84.1 513.3,59.7 536.8,59.7 536.8,44 513.3,44 
					513.3,22.7 544.2,22.7 544.2,7 				"/>
				<polygon class="st0" points="559,7 559,99.8 605.3,99.8 605.3,84.1 576.8,84.1 576.8,7 				"/>
				<path class="st0" d="M636.6,85.1h7.5c9.2,0,14.1-5.4,14.1-13.5c0-8.9-6.2-13.2-15.4-13.2h-6.2L636.6,85.1z M636.6,43.7h6.2
					c8,0,13.2-4.6,13.2-10.9c0-6.8-4-11.2-12.3-11.2h-7.1L636.6,43.7z M618.9,7h24.9c19,0,30,8,30,23.9c0,8.1-4,14.8-11.4,19.3
					c9.8,6.2,13.6,11.3,13.6,22.9c0,18.4-12.3,26.7-31.1,26.7h-26V7z"/>
				<path class="st0" d="M706.6,72.3c0,10.3,4.5,13.1,11.6,13.1s11.6-2.8,11.6-13.1V34.5c0-10.3-4.5-13.1-11.6-13.1
					s-11.6,2.8-11.6,13.1V72.3z M688.8,36.8c0-22.9,12.1-31.1,29.3-31.1s29.3,8.2,29.3,31.1V70c0,22.9-12.1,31.1-29.3,31.1
					s-29.3-8.2-29.3-31.1V36.8L688.8,36.8z"/>
				<path class="st0" d="M780.8,7v64.9c0,8.9,3.9,13.5,12.5,13.5s12.6-4.6,12.6-13.5V7h17.7v65c0,20.4-12.1,29.1-30.3,29.1
					s-30.2-8.6-30.2-29.1V7L780.8,7z"/>
				<path class="st0" d="M857,47.3h9.1c7.8,0,12.6-3.8,12.6-12.9s-4.8-12.9-12.6-12.9H857V47.3z M880.9,99.8L865.5,62H857v37.8
					h-17.7V7H865c21.3,0,31.5,10.3,31.5,27.8c0,11.6-4.1,19.9-14,23.6L900,99.8H880.9z"/>
				<polygon class="st0" points="956.7,7 956.7,62 956.4,62 931.8,7 912.4,7 912.4,99.8 928.5,99.8 928.5,39.9 928.8,39.9 
					955.9,99.8 972.9,99.8 972.9,7 				"/>
				<polygon class="st0" points="988.6,7 988.6,99.8 1038.5,99.8 1038.5,84.1 1006.4,84.1 1006.4,59.7 1029.9,59.7 1029.9,44 
					1006.4,44 1006.4,22.7 1037.2,22.7 1037.2,7 				"/>
				<rect x="351.2" y="84.1" class="st0" width="15.7" height="15.7"/>
				<rect x="254.3" y="84.1" class="st0" width="15.7" height="15.7"/>
			</g>
			<g>
				<g>
					<g>
						<defs>
							<rect id="SVGID_1_" x="315.9" y="465.7" width="579.1" height="370"/>
						</defs>
						<clipPath id="SVGID_2_">
							<use xlink:href="#SVGID_1_"  style="overflow:visible;"/>
						</clipPath>
						<path class="st4" d="M348.9,820c-0.2,0.9-0.8,5.1-0.9,5.3c-0.1,0.6-0.3,1.2-0.4,1.7c-0.2,0.7-0.3,1.8-0.3,3.1
							c0,0.4-0.2,1.4-0.3,1.7c-0.5,1.4-1.6,2.2-3,2.5c-0.5,0.1-2.9,0.4-3.4,0.5c-0.4,0.1-2.2,0.6-2.6,0.7c-2.7,0.6-2.9-1.7-2.9-2.6
							c-0.1-0.9-0.4-3.2-0.7-4.6c-0.1-0.3-0.5-2.2-0.7-2.7c-0.2-0.6-0.4-1.3-0.5-1.9c-0.2-0.7-0.3-1.4-0.4-2
							c-0.3-1.2-0.8-2.3-1.1-3.5c-0.1-0.3-0.1-0.6-0.2-1s-0.2-0.8-0.3-1.2c-0.1-0.3-0.1-0.6-0.2-1c-0.2-1.4-0.6-3.4-0.9-4.5
							c-0.2-0.6-0.4-1.2-0.6-1.8c-0.1-0.3-0.1-0.6-0.1-0.9c-0.1-0.6-0.4-1.1-0.5-1.6c-0.2-0.7-0.3-1.5-0.5-2.2
							c-0.2-0.6-0.4-1.1-0.6-1.7c-0.5-1.2-1.5-3.7-1.5-4.9s1.1-2.1,2-2.3c0.2,0,0.7-0.1,1.2-0.2c0.5-0.1,1-0.1,1.2-0.1
							c0.2-0.1,0.8-0.2,1.4-0.4c0.5-0.2,1.1-0.4,1.3-0.4c1.5-0.3,2.3,0.8,2.6,3.4c0,0.3,0.1,0.6,0.1,1c0.1,0.8,0.4,1.5,0.7,2.3
							c0.1,0.5,0.2,0.9,0.2,1.4c0,0.2,0.1,0.5,0.1,0.8c0.1,0.6,0.4,1.3,0.5,1.9c0.1,0.3,0.1,0.6,0.2,0.9c0,0.2,0.5,2.2,0.5,2.5
							c0.1,0.5,0.3,0.9,0.4,1.4c0.2,0.7,0.1,1.5,0.3,2.2c0.1,0.5,0.3,0.9,0.4,1.4c0.1,0.4,0.1,0.9,0.2,1.3c0.1,0.5,0.2,0.8,0.3,1.2
							c0.1,0.3,0.4,2.2,0.5,2.6c0.4,1.8,0.5,2.3,0.5,3.2c0,0.4,0.2,0.7,0.4,0.7c0.1,0,0.2-0.3,0.3-0.6c0.1-0.1,0.1-0.7,0.1-1
							c0-0.7,0.2-1.4,0.4-2.2l0.4-1.5c0.1-0.4,0.1-0.8,0.2-1.2s0.2-0.8,0.3-1.2c0.1-0.3,0.1-0.7,0.1-1c0.1-0.4,0.1-0.7,0.2-1
							s0.1-0.7,0.1-1c0-0.4,0.1-0.8,0.2-1.2c0.3-1.3,0.7-3.5,0.8-5.8c0.1-0.5,0.1-0.7,0.4-2.1c0.2-1,0.8-4.8,0.8-5.8
							c0.2-3.3,0.5-5.2,2.5-5.7c0.1,0,0.5,0,0.8-0.1c0.4,0,0.7,0,0.8-0.1c0.4-0.1,0.7-0.2,1.1-0.3c0.7-0.2,1.3-0.4,1.9-0.5
							c0.7-0.2,2.1-0.5,2.1,1.3c0,0.5-0.1,1-0.2,1.5c-0.2,1.2-0.2,1.4-0.6,2.5c-0.3,0.8-0.8,2.8-0.9,3.3c-0.2,0.9-0.3,1.8-0.5,2.7
							s-0.5,1.9-0.7,2.9c-0.2,0.9-1,5.5-1.1,6.5c-0.3,1.4-0.7,2.8-1,4.2c-0.1,0.8-0.3,1.6-0.4,2.3c-0.1,0.4-0.1,0.8-0.1,1.2
							L348.9,820L348.9,820z"/>
					</g>
				</g>
				<path class="st3" d="M367.5,787.1c0.2-0.1,1-0.2,1.7-0.3c0.8-0.1,1.5-0.2,1.8-0.3l1.6-0.3c0.4-0.1,2.1-0.3,2.6-0.4l2-0.4
					c0.4-0.1,2.4-0.6,2.9-0.7c1.1-0.2,1.9,0.3,1.9,1.6c0,0.7-0.2,1.3-0.2,2c0,0.2,0.2,1.1,0.2,1.3s0.1,1,0.1,1.2
					c0,0.7-0.4,1.3-1.1,1.4c-0.4,0.1-0.5,0-1.1,0c-1-0.1-1.3,0-2.5,0.2c-0.2,0.1-1.5,0.2-1.8,0.2c-0.2,0-1.1,0.3-1.4,0.4
					c-0.2,0-1.2,0.1-1.4,0.1c-0.2,0-1.1,0.4-1.4,0.4c-0.2,0.1-1.3,0.2-1.5,0.3c-0.6,0.1-1.4,0.5-1.6,0.6c-1.1,0.8-1.4,2.4-1.4,3.5
					v0.4c0.1,0.3,0.2,1.3,0.4,1.6c0.4,0.9,2,0.8,2.6,0.7c0.5-0.1,1-0.3,1.4-0.4c0.2,0,0.4-0.1,0.5-0.1c0.4-0.1,0.8-0.1,1.2-0.1
					c0.4,0,2.2-0.3,2-0.3c0.4-0.1,1.5-0.4,1.8-0.5c0.4-0.1,2.7-0.4,2.9-0.4c1.4-0.1,1.5,1.1,1.5,1.1c0,0.4-0.1,0.7-0.2,1
					s-0.1,0.5-0.1,0.8c0,0.4,0.2,2,0.2,2.4c0,1.8-1.5,2.1-2.3,2.3c-0.2,0.1-0.3,0.1-1.1,0c0,0-1.8,0-2.3,0.1
					c-0.2,0.1-1.1,0.4-1.4,0.5c-0.2,0-1,0.1-1.2,0.1s-1,0.3-1.2,0.3c-0.7,0.1-1.3,0.2-2,0.3c-2,0.4-2.5,1.7-2.6,1.9
					c-0.2,0.5-0.2,1.6-0.2,2.2c0,0.5-0.1,3-0.1,3.5c0,1,0.5,3.9,0.7,4.4c0.7,1.2,2.3,1.3,3,1.3c0.4,0,3.3-0.6,3.9-0.8
					c3.4-0.7,3.7-0.9,4.6-1.4c0.4-0.3,0.9-0.5,1.3-0.6c0.7-0.2,1.6,0.3,1.6,1.2c0,0.3-0.3,1.7-0.3,2c0,0.2,0.2,1.1,0.2,1.4
					c0.1,0.5,0.2,0.9,0.2,1.3c0,1.7-1.6,2.2-2.2,2.4c-0.6,0.1-3.3,0.5-3.8,0.6c-0.2,0-1.1,0.3-1.3,0.3c-0.5,0.1-1.1,0.2-1.6,0.3
					c-0.2,0.1-1.3,0.3-1.5,0.4c-0.5,0.1-3.4,0.5-4,0.6c-0.8,0.2-1.6,0.5-2.4,0.7c-0.2,0-2.7,0.9-2.8,0.9c-0.8,0.2-2-0.1-2.3-0.3
					c-0.5-0.2-1-0.6-1-3c0-0.2,0-0.6,0.1-1.2c0.1-0.9,0.2-1.2,0.2-1.5s-0.3-3-0.3-3.5c0-0.1,0.1-3.1,0.1-3.1
					c0.1-0.5,0.2-1.1,0.2-1.7v-0.8c0-0.9-0.1-5-0.1-5.7c0-0.5,0.1-2.9,0.1-3.5c0-0.7-0.1-2.4-0.1-3.1c-0.1-0.3-0.2-2-0.2-2.5
					s0.2-3.3,0.2-3.8c0-0.8-0.4-4.9-0.4-5.1c0-1.7,1-2.9,2.7-3.3c0.4-0.1,2.7-0.5,3.3-0.6C365.2,787.7,367.1,787.2,367.5,787.1
					L367.5,787.1z"/>
				<path class="st3" d="M408.9,793.1c-0.1-0.3-0.3-0.5-0.4-0.8c-0.1-0.2-0.1-0.4-0.1-0.6c-0.1-0.2-0.1-0.3-0.2-0.4
					c-0.9-1.8-1.2-2-2.4-2.8c-1.1-0.7-1.1-0.7-2-0.8c-0.2,0-0.4,0-0.5-0.1c-0.1,0-0.3-0.1-0.4-0.2c-0.3,0-0.6,0.1-0.9,0.1
					c-0.2,0-0.3-0.1-0.5-0.1s-0.4,0-0.6,0c-0.1,0-0.7,0-0.8,0c-0.1,0-0.7,0.3-0.8,0.3c-0.2,0-0.4,0-0.6,0.1c-0.2,0-1.5,0.7-1.5,0.8
					c-1.5,0.9-1.5,2.7-1.5,3.9c0,0.3-0.1,1.8-0.1,2.1c0,0.5,0.2,3.1,0.2,3.7c0,0.7-0.3,3.6-0.3,4.3c0,0.3,0.1,0.5,0.2,1.3
					c0.1,0.3,0.1,0.7,0.1,1c0.1,0.2,0.2,0.4,0.3,0.5c0.5,0.5,2.3,0.4,2.6,0.3c0.5-0.1,0.9-0.3,1.3-0.4c0.8-0.2,1-0.3,1.5-0.7
					c0.6-0.4,0.8-0.5,2.7-1.6c1-0.6,1.3-1,1.7-1.9c0.2-0.5,0.5-0.9,0.9-1.4c0.5-0.7,1-1.5,1.5-2.7c0.4-0.9,0.7-3.4,0.7-3.4
					C409,793.5,409,793.3,408.9,793.1L408.9,793.1z M387.6,821.9c0.2-1.1,0.5-2.3,0.5-3.4c0-0.4-0.2-2.1-0.2-2.5
					c0-0.2,0.1-1.3,0.1-1.6s-0.2-1.4-0.2-1.7c0-0.6,0.1-1.6,0.1-2.2c0-0.3,0.1-1.9,0.1-2.2s0-0.6-0.1-0.9c-0.1-0.8-0.2-1.1-0.2-2.3
					c0-0.3,0.1-0.7,0.1-1c0.1-1.4,0.3-3.1,0.3-4.1c0-0.4-0.2-2.1-0.2-2.5c0-0.2,0.1-1.3,0.1-1.5c0-0.3-0.2-1.9-0.2-2.2
					c0-0.2,0.1-1.2,0.1-1.4c0-0.7-0.3-2.6-0.5-3.4c-0.2-1.1-0.2-1.2-0.2-1.5c0-1.8,0.2-2.6,0.5-3.2c0.7-1.3,1.3-1.6,2.6-1.9
					c0.5-0.1,1.3-0.3,1.7-0.3c0.5,0,0.9-0.1,1.3-0.1s0.7-0.1,1-0.1c0.3-0.1,1.7-0.5,2-0.6s1.5-0.2,1.8-0.3c0.5-0.1,2.9-0.9,3.5-1
					c0.4-0.1,0.8-0.2,1.3-0.2c0.3,0,0.7,0,1,0c1.7-0.2,1.8-0.2,2.7,0c0.4,0,0.5,0.1,1.5,0.5c0.3,0.1,0.5,0.2,0.8,0.3
					c0.2,0.1,0.5,0.2,0.8,0.4c0.4,0.2,0.7,0.3,1.1,0.5s1.9,1,2.4,1.7c0.3,0.4,0.5,0.7,0.7,1c0.4,0.4,0.8,0.7,1.1,1.1
					c0.8,1,1.3,2.8,1.3,4.1v1c0,0.1,0.1,0.9,0.1,1s0.1,1.8,0.1,2v0.3c-0.1,0.6-0.3,1.3-0.5,2c-0.2,0.8-0.2,1.6-0.5,2.4
					c-0.1,0.4-1,2.4-1.2,2.8c-0.5,1.2-0.8,2-1.7,2.9c-0.2,0.3-0.5,0.5-0.8,0.8c-0.7,0.8-1,1.2-2.1,2.2c-0.8,0.8-1.6,1.4-2.4,1.8
					c-0.2,0.1-1,0.5-1,1.1c0,0.4,0.2,0.5,1,0.9c0.2,0.1,0.4,0.3,0.6,0.4c0.1,0.2,0.6,0.6,0.8,0.7c0.2,0.2,2,1,2.4,1.1
					c0.5,0.1,1.7,0.1,3.7-0.3c1.7-0.4,2,1.2,2,1.5c0,0.2-0.3,1.6-0.3,1.9c0,0.2,0.1,1.1,0.1,1.3s0,1.1-0.4,1.8
					c-0.6,1-1.8,1.4-2.3,1.5c-0.3,0.1-0.6,0.1-0.8,0.1l-0.7,0.2c-0.1,0-0.7,0.1-0.8,0.1l-0.8,0.2c-0.3,0.1-0.6-0.1-0.9,0
					c-0.4,0-0.7,0-1.1,0s-1.7-0.5-1.9-0.5c-0.4-0.1-2.1-1.3-2.9-1.8c-0.4-0.3-2.6-1.5-3-1.9c-0.2-0.2-0.5-0.6-0.8-0.8
					c-0.4-0.2-0.4-0.3-0.7-0.6c-0.2-0.3-0.5-0.4-0.7-0.7c-0.5-0.4-1-0.7-1.9-0.5c-1,0.2-1.2,1.6-1.2,2.7c0,0.8,0.1,1.4,0.2,1.7
					c0.1,0.6,0.4,1.2,0.5,1.8c0,0.3,0.1,0.5,0.1,0.8c0,1-0.1,2.2-1.6,2.7l-1.4,0.3c-0.2,0-1.2,0.2-1.4,0.2c-0.8,0.2-1.5,0.4-2.3,0.6
					c-2,0.4-2-1.1-2-1.8v-1.4H387.6z"/>
				<path class="st3" d="M419.1,776.2c0.2-0.1,1.6,0,1.9-0.1c0.2-0.1,1.3-0.4,1.5-0.4s1.1-0.2,1.6,0c0.4,0.2,1,1.1,1.2,1.8
					c0.2,0.4,0.2,1,0.4,1.5c0.2,0.4,1.8,3.4,2,3.6c0.4,0.6,1,1.2,1.3,1.8c0.1,0.3,0.3,0.5,0.4,0.8c0.1,0.2,0.7,1.2,0.7,1.3
					c0.1,0.1,0,0.4,0.1,0.5s0.3,0.2,0.5,0.1c0.3-0.1,0.5-0.3,0.7-0.6c0.1-0.2,0.4-1,0.5-1.2c0.4-0.8,0.6-1.6,0.8-2.4
					c0.1-0.4,0.2-0.8,0.4-1.1c0.2-0.7,0.8-1.4,1.1-2.1c0.3-0.6,0.4-1.1,0.7-1.6c0.2-0.4,0.4-0.7,0.5-1.1c0.2-0.4,0.3-0.8,0.4-1.1
					c0.1-0.4,0.1-0.7,0.2-1.1c0.2-0.9,1.2-2.4,2.3-2.6c0.4-0.1,0.7-0.1,1.1,0c0.2,0,0.6-0.1,1.2-0.2c0.4-0.1,0.7-0.1,1-0.3
					c0.2-0.1,0.5-0.2,0.8-0.3c1.3-0.3,1.4,1,1.4,2c0,0.4,0,0.8-0.2,1.2c-0.2,0.5-0.5,1.1-0.7,1.6s-0.4,1-0.7,1.6
					c-0.2,0.5-0.4,0.9-0.5,1.2c-0.2,0.3-0.2,0.7-0.4,1c-0.1,0.4-0.3,0.8-0.5,1.2c-0.2,0.5-0.4,1-0.5,1.5c-0.1,0.3-0.9,1.8-1.1,2.1
					c-0.2,0.6-0.4,1.3-0.7,1.9c-0.2,0.5-0.5,1-0.7,1.4c-0.2,0.5-0.4,0.8-0.5,1.3c-0.3,0.8-0.9,2-1.2,2.8c-1.4,3.4-1.5,3.7-1.5,4.9
					c0,0.4,0.2,2.2,0.2,2.6c0,0.5-0.4,3.1-0.4,3.7c0,0.2,0.1,1.1,0.1,1.3v1.9c0,0.3-0.1,1.9-0.1,2.3c0,0.2,0,0.5,0.1,0.7
					c0.1,0.5,0.2,1,0.4,1.6c0.1,0.5,0.1,0.9,0.1,1.4c0,0.8-0.1,1.2-0.3,1.6c-0.1,0.1-0.5,0.9-1.5,1.2c-0.4,0.1-2.3,0.3-2.7,0.4
					c-0.4,0.1-2.3,0.6-2.7,0.7c-1.7,0.4-1.8-0.8-1.8-1.3s0.4-2.6,0.5-2.6c0.1-0.5,0.2-0.9,0.3-1.4c0.1-0.4,0.2-1,0.2-2.5
					c0-0.5,0-1.1-0.1-1.7c-0.1-0.7-0.2-1.3-0.2-2v-2.6c0-0.5,0-1.1,0.1-1.8c0.1-1,0.1-1.2,0.1-1.4s-0.2-1.1-0.2-1.3
					c0-0.4,0.1-0.7,0.1-1.1c0-0.4-0.1-0.7-0.5-1.4c-0.4-0.6-0.5-0.7-0.6-1.4c-0.2-0.9-1.7-3.9-2-4.2c-0.5-0.6-1.1-1.2-1.5-1.8
					c-0.2-0.5-0.4-1-0.6-1.5c-0.3-0.5-0.7-1-1-1.5c-0.2-0.4-0.3-0.9-0.5-1.4c-0.1-0.2-0.7-1.3-0.8-1.6c-0.2-0.4-0.2-0.7-0.4-1.1
					c-0.1-0.3-0.3-0.5-0.4-0.8c-0.3-0.6-0.6-1.5-0.6-2.2C417.6,777.9,417.6,776.5,419.1,776.2L419.1,776.2z"/>
				<path class="st3" d="M472.5,764.8c0.2-0.1,1-0.2,1.7-0.3c0.8-0.1,1.5-0.2,1.8-0.3l1.6-0.3c0.4-0.1,2.1-0.3,2.6-0.4l2-0.4
					c0.4-0.1,2.4-0.6,2.9-0.7c1.1-0.2,1.9,0.3,1.9,1.6c0,0.7-0.2,1.3-0.2,2c0,0.2,0.2,1.1,0.2,1.3s0.1,1,0.1,1.2
					c0,0.7-0.4,1.3-1.1,1.4c-0.4,0.1-0.5,0-1.1,0c-1-0.1-1.3,0-2.5,0.2c-0.2,0.1-1.5,0.2-1.8,0.2c-0.2,0-1.1,0.3-1.4,0.4
					c-0.2,0-1.2,0.1-1.4,0.1c-0.2,0-1.1,0.4-1.4,0.4c-0.2,0.1-1.3,0.2-1.5,0.3c-0.6,0.1-1.4,0.5-1.6,0.6c-1.1,0.8-1.4,2.4-1.4,3.5
					v0.4c0.1,0.3,0.2,1.3,0.4,1.6c0.4,0.9,2,0.8,2.6,0.7c0.5-0.1,1-0.3,1.4-0.4c0.2,0,0.4-0.1,0.5-0.1c0.4-0.1,0.8-0.1,1.3-0.1
					c0.4,0,2.2-0.3,2-0.3c0.4-0.1,1.5-0.4,1.8-0.5c0.4-0.1,2.7-0.4,2.9-0.4c1.4-0.1,1.5,1.1,1.5,1.1c0,0.4-0.1,0.7-0.2,1
					s-0.1,0.5-0.1,0.8c0,0.4,0.2,2,0.2,2.4c0,1.8-1.5,2.1-2.3,2.3c-0.2,0.1-0.3,0.1-1.1,0c0,0-1.8,0-2.3,0.1
					c-0.2,0.1-1.1,0.4-1.4,0.5c-0.2,0-1,0.1-1.2,0.1s-1,0.3-1.2,0.3c-0.7,0.1-1.3,0.2-2,0.3c-2,0.4-2.5,1.7-2.6,1.9
					c-0.2,0.5-0.2,1.6-0.2,2.2c0,0.5-0.1,3-0.1,3.5c0,1,0.5,3.9,0.7,4.4c0.7,1.2,2.3,1.3,3,1.3c0.4,0,3.3-0.6,3.9-0.8
					c3.4-0.7,3.7-0.9,4.6-1.4c0.4-0.3,0.9-0.5,1.3-0.6c0.7-0.2,1.6,0.3,1.6,1.2c0,0.3-0.3,1.7-0.3,2c0,0.2,0.2,1.1,0.2,1.4
					c0.1,0.5,0.2,0.9,0.2,1.3c0,1.7-1.6,2.2-2.2,2.4c-0.6,0.1-3.3,0.5-3.8,0.6c-0.2,0-1.1,0.3-1.3,0.3c-0.5,0.1-1.1,0.2-1.6,0.3
					c-0.2,0.1-1.3,0.3-1.5,0.4c-0.5,0.1-3.4,0.5-4,0.6c-0.8,0.2-1.6,0.5-2.4,0.7c-0.2,0-2.7,0.9-2.8,0.9c-0.8,0.2-2-0.1-2.3-0.3
					c-0.5-0.2-1-0.6-1-3c0-0.2,0-0.6,0.1-1.2c0.1-0.9,0.2-1.2,0.2-1.5s-0.3-3-0.3-3.5c0-0.1,0.1-3.1,0.1-3.1
					c0.1-0.5,0.2-1.1,0.2-1.7v-0.8c0-0.9-0.1-5-0.1-5.7c0-0.5,0.1-2.9,0.1-3.5c0-0.7-0.1-2.4-0.1-3.1c-0.1-0.3-0.2-2-0.2-2.5
					s0.2-3.3,0.2-3.8c0-0.8-0.4-4.9-0.4-5.2c0-1.7,1-2.9,2.7-3.3c0.4-0.1,2.7-0.5,3.3-0.6C470.1,765.4,472,764.8,472.5,764.8
					L472.5,764.8z"/>
				<path class="st3" d="M493.3,775.9c0-0.5,0-1.1,0.1-1.6c0-0.4,0.2-2.3,0.2-2.7c0-0.7-0.1-1.3-0.1-2c0-0.2,0.1-1.3,0.1-1.6
					c0-0.9-0.5-2.8-0.6-3c-0.5-1.5-0.5-1.7-0.5-2.1c0-0.5,0.2-1.4,0.6-2s0.8-0.6,1.3-0.7c0.4-0.1,2.4-0.3,2.9-0.4
					c0.4-0.1,1.9-0.6,2.3-0.7c1.3-0.3,2.2,0.4,2.6,0.7c0.1,0,1.2,1.6,1.3,1.7c0.4,0.6,0.6,1.4,1,2.1c0.2,0.3,0.4,0.6,0.6,0.8
					c0.5,0.6,0.6,0.6,0.8,1.4c0.2,1.1,0.4,1.2,1.5,2.5c0.7,0.8,1.7,2.1,1.8,2.5l0.4,0.8c0.2,0.3,0.4,0.5,0.5,0.8
					c0.2,0.4,0.3,0.8,0.5,1.1c0.2,0.2,1.1,1.1,1.3,1.3c0.3,0.4,0.5,0.9,0.7,1.2c0.1,0.3,0.3,0.5,0.5,0.7c0.5,0.5,0.5,0.6,0.8,1.3
					c0.2,0.4,1.5,2.3,1.8,2.2c0,0,0.5-0.2,0.4-1.1v-1.4c0-0.3-0.2-1.7-0.3-2.4c-0.1-0.9-0.1-1.6-0.1-2c0-0.7,0.1-4.4,0.1-5.2v-0.7
					c-0.1-0.6-0.1-1.3-0.1-2c0-0.1-0.1-0.9-0.1-1.1c0-0.3,0.1-1.8,0.1-2.1c0-0.5-0.1-0.9-0.1-1.4c-0.2-0.7-0.4-1.5-0.4-2.4
					c0-0.3,0-1,0.4-1.8c0.7-1.1,1.4-1.2,2.2-1.4c0.4-0.1,2.4-0.8,2.9-0.9c0.6-0.1,1.1-0.2,1.4,0c0.5,0.3,1.1,0.8,1.2,1.4
					c0.1,0.3,0.1,0.6,0.1,0.9c0,0.1,0.1,0.8,0.1,1s0,1.7-0.2,3.1c-0.2,1.4-0.2,3.3-0.2,3.6v0.5l0.2,1c0.1,0.4,0.2,2.3,0.2,2.7
					c0,0.5-0.1,3.2-0.1,3.6c-0.1,1-0.2,2.1-0.2,3.1c0,0.2,0.1,1.5,0.1,1.7c0.1,0.5,0.1,1.9,0.1,2.5c0,0.5-0.2,3.4-0.2,4
					c0,0.4,0.2,2.3,0.2,2.8c0,0.7-0.1,1.4-0.1,2.1c0,0.2,0.1,2,0.1,2.2c0.1,0.7,0.3,1.4,0.4,2.1c0,0.2,0.1,0.5,0.1,0.8
					c0,0.5,0,2.6-1.8,3c-0.2,0-1.1,0.2-1.4,0.2c-0.3,0.1-1.9,0.5-2.3,0.5c-0.9,0.2-1.5,0.3-2,0.1c-0.4-0.2-1.2-1.1-1.2-1.2
					c-0.1,0-1-1.6-1.1-1.7c-0.2-0.4-0.2-0.8-0.4-1.3c-0.2-0.4-0.7-1.3-1-1.8c-0.2-0.4-0.5-0.7-0.8-1.1c-0.6-0.8-0.7-0.9-1.4-1.7
					c-0.5-0.6-1.2-1.5-1.8-2.6c-0.9-1.6-1-1.8-1.7-2.7c-1.5-1.7-1.6-2-2.1-3.2c-0.4-0.8-1-1.7-1.3-2c-0.4-0.4-0.8-0.7-1.1-1.1
					c-0.2-0.2-0.4-0.4-0.7-0.7c-0.2-0.2-0.4-0.3-0.5-0.3c-0.2,0-0.4,0.4-0.4,0.7c0,0.2,0.1,0.3,0.1,0.5c0.1,0.3,0.2,2.6,0.2,3
					c0,0.2-0.1,1.5-0.1,1.8s0.2,1.7,0.2,2c0,0.2-0.1,0.9-0.2,1.3c-0.1,0.4-0.1,0.9-0.1,1.3c0,0.1,0,0.2,0.1,0.3
					c0,0.4,0.2,2.2,0.2,2.7c0,0.2-0.2,1.5-0.2,1.8v1c0,0.2-0.1,1.2-0.1,1.4c0,0.3,0.1,0.6,0.1,0.9v0.6c0,0.2,0.2,1,0.2,1.2
					c0.1,0.3,0.1,0.6,0.1,0.9c0,0.4,0.1,0.7,0.2,1.2c0.1,0.2,0.1,0.4,0.1,0.6c0,1.2-0.5,2.2-1.7,2.4c-0.2,0-1.4,0.2-1.6,0.2
					c-0.4,0.1-1.9,0.6-2.2,0.6c-1.6,0.3-1.8,0.2-2.1-0.1c-0.9-0.6-1-1.6-1-2.4c0-0.7,0.1-1.4,0.2-2.2c0.2-1,0.3-1.6,0.3-1.8
					c0-0.6-0.1-1.2-0.1-1.7v-1.2c0-0.3-0.1-1.8-0.1-2.1c0-0.4,0.1-0.7,0.1-1.2c0.1-0.8,0.1-0.8,0.1-1s-0.1-1-0.1-1.3
					c0-0.1,0.1-0.9,0.1-1c0-0.2-0.1-1.4-0.1-1.7c0-0.7,0.1-1.4,0.1-2.1c0-0.4-0.2-2.4-0.2-2.8L493.3,775.9L493.3,775.9z"/>
				<path class="st3" d="M533.4,751.8c0.2-0.1,1.3-0.2,1.6-0.2c0.2,0,1.3-0.1,1.4-0.1c0.3-0.1,1.8-0.6,2.1-0.7
					c0.2-0.1,1.5-0.2,1.8-0.3s2-0.6,2.4-0.7c0.6-0.1,1.2-0.2,1.8-0.3c0.2,0,1-0.3,1.1-0.3l1.8-0.4c0.4-0.1,1.1-0.2,1.7,0.3
					c0.2,0.2,0.8,1.3,0.8,2.4c0,1-0.4,2-0.5,3c-0.1,0.3-0.1,0.6-0.1,0.9c0,0.2,0.1,1.1,0.1,1.4s-0.1,1.4-0.1,1.7v2.4
					c0,0.5,0.2,2.6,0.2,3.1c0,0.7-0.1,1.5-0.1,2.2c0,0.4,0.2,2,0.2,2.5c0,0.4-0.2,2.4-0.2,2.9c0,0.4,0.2,2.6,0.2,3.1v1.2
					c0,0.5,0.1,1.1,0.1,1.5v0.4c-0.1,0.6-0.2,1.3-0.3,1.9c-0.2,1.2-0.2,1.3-0.8,3.5c-0.2,0.7-0.3,0.8-1,2.1
					c-0.3,0.5-0.5,0.9-0.8,1.4c-0.3,0.4-0.7,0.8-1.1,1.3c-0.4,0.5-0.7,1-1.1,1.4c-0.2,0.2-0.4,0.4-0.6,0.5c-0.4,0.3-0.7,0.6-1.1,0.9
					c-1.2,1.1-1.3,1.2-3.2,2.1c-1.1,0.6-2.4,1-3.6,1.3c-1.4,0.3-2.3,0.4-5.3,0.4c-0.8,0-1-0.1-1.8-0.3c-0.7-0.3-1.2-0.6-1.2-1.4
					c0-0.4,0.4-2,0.4-2.4c0.1-0.6,0.1-1.2,0.1-1.8c0.1-1.5,1.5-2.1,2-2.2c0.8-0.2,1.7,0.1,2.5,0.3c0.4,0.1,0.8,0.2,1.2,0.2
					c0.6,0.1,2.6-0.1,3.2-0.2c0.3-0.1,1.6-0.6,1.8-0.8c0.4-0.3,1.2-1,1.5-1.7c0.1-0.1,0.7-1.5,0.8-1.7c0.2-0.5,0.3-2.2,0.4-2.8
					c0-0.2-0.1-1.3-0.1-1.5c0-0.3,0.2-1.6,0.2-1.9c0-0.2-0.2-1.3-0.2-1.6c0-0.4,0.2-2.3,0.2-2.7s-0.2-2.2-0.2-2.6
					c0-0.2,0.1-1,0.1-1.1c0-0.4-0.1-0.8-0.1-1.2c0-0.3,0.2-1.6,0.2-1.9c0-0.6-0.1-2.8-0.2-3.3c0-0.3,0.1-1.7,0.1-2
					c0-2-1.2-2.4-1.4-2.4c-0.4-0.1-1.1,0.1-1.3,0.1c-0.2,0.1-1.4,0.4-1.7,0.5c-0.1,0-0.7,0.1-0.8,0.1c-0.3,0.1-0.4,0.1-0.8,0.3
					c-0.6,0.3-1.8,0.7-2.4,0.9c-0.5,0.1-0.8,0.1-1.3,0c-0.4-0.1-0.5-0.1-0.9-0.5s-0.4-0.5-0.4-1.2c0-0.4,0-0.8,0.1-1.3
					c0.1-0.7,0.2-0.8,0.2-1c0-0.5-0.2-1-0.2-1.4C530.9,752.9,531.9,752.1,533.4,751.8L533.4,751.8z"/>
				<path class="st3" d="M562.8,770.5c0,0.6,0.1,0.8,0.4,1.4c0.1,0.2,0.5,1.4,0.6,1.6c0.2,0.8,0.4,1.2,1.1,2c0.3,0.3,0.7,0.5,1,0.9
					c0.2,0.2,0.4,0.6,0.7,0.8c0.2,0.2,1.3,1,1.7,1.1c0.5,0.2,1.1,0.2,1.7,0.4c0.5,0.1,1,0.3,1.5,0.3c0.2,0.1,1.4,0.2,2.9-0.1
					c0.3-0.1,3.2-0.9,3.2-0.8c0.5-0.2,1-0.5,1.4-0.7c0.7-0.3,1.4-0.5,2-1c0.3-0.2,0.6-0.5,0.9-0.8c0.4-0.4,0.8-0.6,1.1-1
					c0.4-0.4,0.7-1,1.1-1.6c0.3-0.4,0.6-0.7,0.9-1c0.2-0.3,0.5-0.7,0.7-1c0.2-0.5,1-2.4,1.1-2.6c0.1-0.4,0.6-2.3,0.8-2.7
					c0.2-0.7,0.2-0.8,0.3-2.1c0-0.2-0.1-1.2-0.1-1.4c0-0.1,0.1-0.8,0.1-1v-1.5c0-0.2,0-0.5-0.1-0.7c-0.1-0.6-0.4-1.3-0.5-1.9
					c-0.1-0.5-0.2-0.9-0.4-1.4c-0.6-1.7-1.6-2.8-2.1-3.3c-0.2-0.2-1.1-1.1-1.3-1.3c-0.2-0.1-0.5-0.2-0.8-0.3
					c-0.2-0.1-0.4-0.3-0.6-0.5c-0.2-0.1-0.4-0.1-0.5-0.1c-0.4-0.1-0.6-0.3-0.9-0.5c-0.4-0.1-1.7-0.1-2.4-0.1s-2.1,0.2-2.7,0.3
					c-0.2,0-1.2,0.3-1.4,0.4l-0.8,0.2c-0.4,0.1-0.8,0.2-1.1,0.4c-0.6,0.2-1.2,0.8-1.8,1.1c-0.5,0.3-1,0.5-1.5,0.9
					c-0.7,0.4-1.2,1.1-2.1,2.1c-0.3,0.4-0.4,0.4-1,1.5c-0.2,0.3-0.5,0.7-0.7,1c-0.1,0.2-1.3,2.7-1.4,3.1c-0.2,0.8-0.2,1.4-0.4,2.1
					c-0.1,0.5-0.3,1-0.4,1.5c-0.1,0.3-0.1,0.4-0.1,1.6v0.6c-0.1,0.7-0.3,1.3-0.3,2c0,0.2,0.2,1.3,0.2,1.5L562.8,770.5L562.8,770.5z
					 M578.6,785.4c-0.5,0.2-0.9,0.2-1.4,0.4c-0.1,0-0.8,0.2-1,0.3c-0.2,0-1.1,0.2-1.3,0.2c-0.4,0.1-0.9,0.2-1.3,0.3
					c-0.3,0.1-1.5,0.2-1.8,0.2c-1.1,0.1-1.2,0.1-2.1,0.1c-0.5,0-1.1,0-1.6,0c-0.1,0-3.6-0.5-4-0.6c-0.6-0.2-2.6-0.9-3.2-1.3
					c-0.4-0.3-2.6-2.2-2.9-2.6c-0.3-0.3-1.3-1.7-1.5-2.2c-0.5-0.9-0.7-1.8-1-2.7c-0.1-0.3-0.2-0.6-0.4-0.9c-0.2-0.5-0.2-1-0.4-1.6
					c-0.1-0.6-0.4-1.2-0.5-1.8c-0.1-0.4-0.2-4.1-0.2-4.5c0-4.2,1.4-9.3,2.6-11.6c0.1-0.3,1-1.6,1.1-1.9c0.3-0.5,0.5-1.1,0.8-1.5
					c0.3-0.5,0.7-1,1-1.4c0.2-0.3,0.4-0.6,0.6-1c0.6-0.9,0.8-1.1,2.3-2.5c2.6-2.2,2.7-2.4,5.2-3.7c2.1-1.2,3.5-1.8,6.3-2.4
					c2.2-0.5,2.7-0.5,3-0.6c1-0.2,1.1-0.2,1.5-0.3c0.6-0.1,0.7-0.1,1.7-0.1c0.6,0,1.2-0.1,1.8,0c0.5,0.1,1,0.2,1.5,0.3
					c1.1,0.2,2.2,0.3,3.3,0.7c0.5,0.2,0.7,0.3,1.7,1.1c0.2,0.2,1.6,1,1.8,1.3c1.2,0.9,3.3,3.6,3.6,3.9c0.3,0.5,0.7,1.5,1,2
					c0.2,0.3,0.4,0.6,0.6,0.9c0.1,0.3,0.4,2.2,0.5,2.6c0.1,0.3,0.2,0.6,0.2,0.9c0.1,0.2,0.1,1.4,0.1,1.6c0,0.5,0.2,2.6,0.2,3
					c0,0.2-0.1,1.6-0.1,1.8c-0.1,0.5-0.1,0.9-0.1,1.6c0,0.2,0,0.4-0.1,0.5c-0.1,0.4-0.2,0.8-0.3,1.1c-0.2,0.7-0.1,1.3-0.4,2
					c-0.1,0.4-0.2,0.7-0.4,1.1c-0.1,0.4-0.7,2.2-1,2.6c-0.1,0.4-0.4,0.7-0.5,1.1c-0.2,0.3-0.2,0.6-0.4,0.9c-0.2,0.5-0.5,1.1-0.7,1.5
					c-0.3,0.5-0.8,1.1-1.1,1.5l-0.5,0.8c-0.2,0.3-1.4,1.7-1.5,1.8c-0.3,0.2-0.7,0.4-1,0.7c-0.2,0.2-0.4,0.4-0.5,0.6
					c-0.3,0.3-3.8,3.1-4.3,3.4c-0.2,0.2-0.5,0.4-0.8,0.5s-0.5,0.1-0.8,0.2c-0.5,0.2-1,0.7-1.5,0.9c-0.2,0.1-0.2,0.1-0.7,0.2
					L578.6,785.4L578.6,785.4z"/>
				<path class="st3" d="M597.8,738.2c0.2-0.1,1.6,0,1.9-0.1c0.2,0,1.3-0.4,1.5-0.4s1.1-0.2,1.6,0c0.4,0.2,1,1.1,1.2,1.8
					c0.2,0.4,0.2,1,0.4,1.5c0.2,0.4,1.8,3.4,2,3.6c0.4,0.6,1,1.2,1.3,1.8c0.1,0.3,0.3,0.5,0.4,0.8c0.1,0.2,0.7,1.2,0.7,1.3
					c0.1,0.1,0,0.4,0.1,0.5s0.3,0.2,0.5,0.1c0.3-0.1,0.5-0.3,0.7-0.6c0.1-0.2,0.4-1,0.5-1.2c0.4-0.8,0.6-1.6,0.8-2.4
					c0.1-0.4,0.2-0.8,0.4-1.1c0.2-0.7,0.8-1.4,1.1-2.1c0.3-0.6,0.4-1.1,0.7-1.6c0.2-0.4,0.4-0.7,0.5-1.1c0.2-0.4,0.3-0.8,0.4-1.1
					c0.1-0.4,0.1-0.7,0.2-1.1c0.2-0.9,1.2-2.4,2.3-2.6c0.4-0.1,0.7-0.1,1.1,0c0.2,0,0.6-0.1,1.3-0.2c0.4-0.1,0.7-0.1,1-0.3
					c0.2-0.1,0.5-0.2,0.8-0.3c1.3-0.3,1.4,1,1.4,2c0,0.4,0,0.8-0.2,1.2c-0.2,0.5-0.5,1.1-0.7,1.6s-0.4,1-0.7,1.6
					c-0.2,0.5-0.4,0.9-0.5,1.2c-0.2,0.3-0.2,0.7-0.4,1c-0.1,0.4-0.3,0.8-0.5,1.2c-0.2,0.5-0.4,1-0.5,1.5c-0.1,0.3-0.9,1.8-1.1,2.1
					c-0.2,0.6-0.4,1.3-0.7,1.9c-0.2,0.5-0.5,1-0.7,1.4c-0.2,0.5-0.4,0.9-0.5,1.3c-0.3,0.8-0.9,2-1.2,2.8c-1.4,3.4-1.5,3.7-1.5,4.9
					c0,0.4,0.2,2.2,0.2,2.6c0,0.5-0.4,3.1-0.4,3.7c0,0.2,0.1,1.1,0.1,1.3v1.9c0,0.3-0.1,1.9-0.1,2.3c0,0.2,0,0.5,0.1,0.7
					c0.1,0.5,0.2,1,0.4,1.6c0.1,0.5,0.1,0.9,0.1,1.4c0,0.8-0.1,1.2-0.3,1.6c-0.1,0.1-0.5,0.9-1.5,1.2c-0.4,0.1-2.3,0.3-2.7,0.4
					c-0.4,0.1-2.3,0.6-2.7,0.7c-1.7,0.4-1.8-0.8-1.8-1.3s0.4-2.6,0.5-2.6c0.1-0.5,0.2-0.9,0.3-1.4c0.1-0.4,0.2-1,0.2-2.5
					c0-0.5,0-1.1-0.1-1.7c-0.1-0.7-0.2-1.3-0.2-2v-2.6c0-0.5,0-1.1,0.1-1.8c0.1-1,0.1-1.2,0.1-1.4s-0.2-1.1-0.2-1.3
					c0-0.4,0.1-0.7,0.1-1.1c0-0.4-0.1-0.7-0.5-1.4c-0.4-0.6-0.5-0.7-0.6-1.4c-0.2-0.9-1.7-3.9-2-4.2c-0.5-0.6-1.1-1.2-1.5-1.8
					c-0.2-0.5-0.4-1-0.6-1.5c-0.3-0.5-0.7-1-1-1.5c-0.2-0.4-0.3-0.9-0.5-1.4c-0.1-0.2-0.7-1.3-0.8-1.6c-0.2-0.4-0.2-0.7-0.4-1.1
					c-0.1-0.3-0.3-0.5-0.4-0.8c-0.3-0.6-0.6-1.5-0.6-2.2C596.2,739.9,596.2,738.5,597.8,738.2L597.8,738.2z"/>
				<path class="st3" d="M636.7,757.5c0.1,0,0.8,0,0.9-0.1c0.1,0,0.9-0.4,1-0.4c0.3-0.1,0.5-0.1,0.8-0.1c0.4-0.1,1.4-0.6,1.4-1.5
					c0-0.5-0.4-1-0.6-1.5c-0.2-0.5-0.4-1.1-0.5-1.7c-0.1-0.5-0.3-1-0.5-1.5c-0.1-0.4-0.7-2.2-1-3.5c-0.1-0.5-0.2-1.1-0.4-1.6
					c-0.2-0.7-0.6-1.3-0.7-2c-0.1-0.2-0.1-0.4-0.1-0.6c-0.1-0.2-0.2-0.4-0.2-0.7c-0.1-0.4-0.2-0.7-0.5-0.7c-0.2,0-0.2,0.3-0.3,0.5
					c0,0.1,0.1,0.6,0.1,0.6c0,0.9-0.6,2.7-1.4,5.2c-0.3,1-0.7,2.4-1,3.4c-0.1,0.3-0.2,0.7-0.4,1c-0.2,0.6-0.5,1.2-0.7,1.9
					c-0.2,0.8-0.2,0.9-0.5,1.4c-0.2,0.5-0.4,1-0.4,1.5c0,0.4,0.1,0.7,0.4,0.9c0.2,0.1,0.5,0.1,0.7,0.1c0.2,0.1,0.4,0.2,0.6,0.2h0.2
					c0.2,0,1.1-0.4,1.4-0.5c0.2,0,0.4-0.1,0.7-0.1L636.7,757.5L636.7,757.5z M636.5,764.8c-0.4,0.1-1.5,0.4-2.1,0.6
					c-0.3,0.1-0.7,0.1-1,0.2c-0.6,0-1.3,0-1.8,0.2c-0.7,0.1-1.1,0.4-1.8,1c-0.5,0.4-1,0.7-1.3,1.7c-0.4,0.9-0.4,1-0.4,2.8
					c0,1.4-0.7,2.3-0.8,2.5c-0.5,0.6-0.9,0.7-2,1c-0.2,0.1-0.4,0.1-1.3,0.2c-0.4,0-0.8,0-1.1,0.1c-0.4,0.1-2.4,0.7-2.9,0.8
					c-1.2,0.3-1.4-0.8-1.4-1.2c0-0.5,0.2-0.9,0.4-1.5c0.4-0.9,0.8-1.8,1.1-2.7c0.3-0.8,0.4-1.6,0.7-2.4c0.2-0.7,0.7-1.5,1-2.2
					c0.4-0.8,0.5-1.5,0.7-2.3c0.3-1.5,0.5-3,1.1-4.5c0.3-0.9,0.7-1.8,1-2.7c0.5-1.2,0.7-2.4,1.1-3.7c0.2-0.6,0.4-1.2,0.7-1.8
					c0.2-0.6,0.5-1.2,0.7-1.7c0.7-1.8,0.9-3.5,1.5-5.3c0.2-0.8,0.5-1.5,0.8-2.2c0.2-0.7,0.3-1.4,0.5-2.2c0.2-0.6,1.4-4.3,1.7-5.1
					c0.2-0.8,0.2-1.5,0.7-2.3c0.7-1,1.3-1.2,1.8-1.3c0.4-0.1,2.1-0.4,2.4-0.5c0.3-0.1,1.7-0.4,2.1-0.5c0.5-0.1,0.8-0.1,1.3,0.1
					c0.7,0.3,0.8,0.4,1.3,2.1c0.1,0.2,0.5,1.3,0.6,1.5c0.1,0.3,0.2,0.7,0.4,1.1c0.4,1.4,1.4,2.6,2,3.9c0.3,0.7,0.5,1.4,0.7,2.1
					c0.1,0.5,0.2,0.9,0.4,1.4c0.2,0.8,0.7,1.6,1,2.4c0.3,0.7,0.4,1.5,0.7,2.2c0.2,0.6,0.5,1.2,0.7,1.8s0.2,1.1,0.5,1.7
					c0.2,0.5,0.5,1.1,0.8,1.6c0.2,0.3,0.8,1.7,1,2.8c0.1,0.7,0.1,0.9,0.5,1.6c0.1,0.2,0.2,0.4,0.3,0.7c0.1,0.6,0.2,1.1,0.4,1.6
					c0.2,0.8,0.7,1.5,1,2.2c0.2,0.6,0.4,1.2,0.7,1.8c0.2,0.5,0.6,1.1,0.9,1.6c0.5,0.8,1.2,1.8,1.2,3.1c0,1-0.5,1.5-1,1.6
					c-0.1,0-1.1,0.2-1.2,0.2c-0.4,0.1-2,0.2-2.4,0.3c-0.5,0.1-2.9,0.9-3.3,0.9c-1.8,0.4-1.8-2.3-1.8-3.1c0-1.6-1-3.5-2.4-3.6l-1,0.2
					c-0.2,0-1.1,0.4-1.4,0.4c-0.2,0-1.1,0.2-1.4,0.2l-0.7,0.1L636.5,764.8L636.5,764.8z"/>
				<path class="st3" d="M668.9,743.9c-0.7,0.2-1.7,0.5-2.2,1.3c-0.2,0.3-0.2,0.4-0.2,1.6c0,0.2-0.1,1-0.1,1.2c-0.1,0.2,0,0.8,0,1
					c0,0.3-0.1,1.7-0.1,2c-0.1,0.7-0.2,4-0.2,4.6s0,1.8,1.7,2.2c0.9,0.2,1.5,0.1,4.8-0.6c0.4-0.1,2.4-0.8,2.6-0.9
					c0.3-0.2,0.6-0.4,0.9-0.6c1.2-0.8,1.7-1.2,2.5-2.4c0.9-1.4,1.4-3.9,1.4-4.5c0-0.3-0.3-2.4-1.1-3.5c-0.9-1.1-2.3-1.6-3.1-1.8
					c-0.5-0.1-1-0.1-1.5-0.2c-0.4,0-0.7-0.1-1.1-0.2c-0.4-0.1-1.6,0-2.2,0.1c-0.2,0-1.1,0.4-1.4,0.4L668.9,743.9L668.9,743.9z
					 M670.9,729.5c-0.5,0.1-2.9,0.7-3.5,0.9c-1.4,0.4-1.4,1.4-1.3,1.9c0.1,0.2,0,1.3,0,1.5s-0.1,0.9-0.1,1.1c0,0.2,0.1,0.8,0.1,1
					c0,0.3,0,0.5,0.2,0.7c0.2,0.3,0.8,0.7,1.4,0.7c0.3,0,2.4-0.5,2.9-0.5c0.5-0.1,1.1-0.3,1.6-0.6c0.3-0.2,1.2-0.9,1.5-1.3
					c0.2-0.3,0.3-0.5,0.5-0.7s0.3-0.4,0.4-0.6c0.2-0.3,0.3-1.3,0.3-1.6c0-0.2-0.2-1.1-0.5-1.6c-0.5-1-1.7-1.4-2.4-1.2
					C672,729.2,671,729.5,670.9,729.5L670.9,729.5z M660.8,767.1c-2.6,0.6-2.7-1.7-2.7-2.5c0-0.6,0.2-3.7,0.2-4.4
					c0-0.2-0.1-1.5-0.1-1.8c0-0.4,0.2-2.1,0.2-2.5c0-0.9-0.1-1.8-0.1-2.7c0-0.6,0.1-1.2,0.1-1.8v-4.2c0-0.7,0.1-1.4,0.1-2.1
					c0-0.3-0.1-1.9-0.1-2.3v-2c0-0.2,0.1-1,0.1-1.1c0-0.4-0.2-2-0.2-2.4c0-1,0.1-1.9,0.1-2.9c0-0.8-0.1-1.6-0.1-2.4
					c-0.1-0.5,0-1.1-0.1-1.7c0-0.5-0.1-1.1-0.1-1.6c0-2.7,1.9-3.7,3-4c0.5-0.1,2.9-0.4,3.2-0.4c0.3-0.1,1.8-0.7,2.1-0.8
					c0.2-0.1,1.3-0.2,1.5-0.2c0.3-0.1,1.5-0.2,1.8-0.3c0.2,0,0.4-0.1,1.1-0.4c0.5-0.2,1-0.3,1.4-0.4c0.8-0.2,2.8-0.5,3.6-0.4
					c0.4,0,0.8,0.1,1.2,0.1c1,0.1,1.2,0.1,1.8,0.4c0.2,0.1,0.5,0.4,0.8,0.5c0.2,0.1,0.5,0.1,0.8,0.3c0.2,0.1,0.3,0.2,0.5,0.4
					c0.6,0.5,0.8,0.7,1.1,1.4c0.3,0.8,0.5,2.9,0.5,3c0,0.7-0.2,2.7-0.4,3.3c-0.4,1.5-1,3-2,4.2c-0.2,0.2-0.5,0.6-0.5,0.9
					c0,0.1,0,0.2,0.3,0.2c0.2,0.1,1.2,0.2,1.5,0.2c0.4,0,0.5,0.1,1.5,0.7c0.4,0.3,0.8,0.4,1.2,0.7c0,0,2.1,2.4,2.3,2.7s1,2.2,1,2.3
					c0.1,0.1,0.5,2,0.5,2.6v2c0,0.8-0.1,1-0.5,2.6c-0.1,0.4-0.5,2.6-0.7,3.1c-1,2.2-2.9,4.9-3.8,5.8c-0.1,0.1-1.9,1.8-2,1.9
					c-0.5,0.4-1.1,0.6-1.6,0.9c-0.5,0.3-1,0.6-1.5,0.9c-1,0.5-4.3,1.6-6.8,2.1c-2,0.4-2.7,0.6-3.2,0.6c-0.9,0.1-1.8,0.2-2.7,0.4
					c-0.5,0.2-3.2,0.8-3.8,1L660.8,767.1L660.8,767.1z"/>
				<path class="st3" d="M692.1,752.1c0-0.4-0.2-1.9-0.2-2.2c0-0.4,0.2-2.4,0.2-2.8c0-0.2,0.1-1.5,0.1-1.8c0-0.2-0.1-1.5-0.1-1.8
					c0-0.1,0.1-0.8,0.1-1c0-0.4-0.3-2.4-0.3-2.9c0-0.9,0.2-1.9,0.4-2.9c0-0.1,0.1-2.4,0.1-2.6c0-0.2-0.1-1.3-0.2-1.6v-1.3
					c-0.1-0.7-0.2-1.4-0.2-2.2c0-0.3,0-0.4,0.1-1.2c0.1-0.7,0.1-1.4,0.1-1.7c0-0.4,0-0.7-0.1-0.9c-0.2-1-0.2-1.2-0.2-1.9
					c0-0.3,0-0.7-0.1-1c-0.2-0.6-0.2-0.7-0.2-0.9s0.2-1.5,0.2-1.7c0.3-1,1.1-1.8,2.1-2.1c0.3-0.1,1.7-0.2,2.1-0.3
					c0.1,0,0.5-0.2,0.9-0.2c0.4-0.1,0.8-0.2,1-0.3c1.2-0.3,2.4,0.1,2.4,1.5v0.2c-0.1,0.3-0.4,2-0.4,2.3c0,0.1,0.1,0.5,0.1,0.6
					s-0.1,0.7-0.1,0.8s0,0.4,0.1,0.5c0.1,0.4,0.1,1,0.1,1.4c0,0.2-0.1,1-0.1,1.2c0,0.1,0.1,0.7,0.1,0.8c0,0.2-0.1,1.2-0.1,1.4
					s0.1,1.2,0.1,1.4c0,0.5-0.1,2.6-0.1,3.1c0,0.2,0.1,1,0.1,1.2c0.1,0.1,0,0.8,0,1c0,0.5,0.1,0.9,0.1,1.3c0,0.2-0.1,1.5-0.1,1.8
					c0,0.4,0.1,0.9,0.1,1.4c0,0.7-0.2,1.3-0.2,2c0,0.2,0.2,1.2,0.2,1.5v1c0,0.2,0.1,1.1,0.1,1.3s-0.1,1.2-0.1,1.4
					c0,0.5,0.1,0.9,0.2,1.2c0.1,0.6,0.1,0.7,0.1,1.3c0.1,1.7,0.1,1.8,0.4,1.9c0.2,0.2,1.3,0.9,2.3,0.6c0.4-0.1,0.7-0.3,1.1-0.4
					c0.4-0.1,1.7-0.5,2.1-0.6c0.2,0,1.3,0,1.5-0.1c0.2,0,1-0.4,1.2-0.4c0.1,0,0.8-0.2,1.4,0.1c0.4,0.1,0.7,0.3,0.8,1.6
					c0,0.1-0.1,1-0.1,1.2s0.1,0.5,0.1,0.7c0.1,0.3,0.2,0.9,0.2,1c0,2.3-2,2.7-3,3c-0.4,0.1-0.7,0.2-1.1,0.2
					c-0.5,0.1-1.1,0.1-1.7,0.1c-0.4,0-0.8,0.1-1.2,0.2c-0.5,0.1-0.7,0.1-1.6,0.5c-0.6,0.2-1.1,0.4-1.7,0.5c-0.3,0.1-0.6,0.1-0.8,0.1
					l-1.4,0.1c-0.4,0-0.8,0.1-1.2,0.2c-0.8,0.2-1.8,0.5-2.6,0.7c-0.2,0-1.3,0.4-1.4,0.4c-0.9,0.2-1.4-0.5-1.5-0.8
					c-0.2-0.4-0.2-1.5-0.2-1.7c0-0.5,0.3-3.1,0.3-3.7v-1.7H692.1z"/>
				<path class="st3" d="M724.3,711.2c0.2,0,1-0.2,1.7-0.3c0.8-0.1,1.5-0.2,1.8-0.3l1.6-0.3c0.4-0.1,2.1-0.3,2.6-0.4l2-0.4
					c0.4-0.1,2.4-0.6,2.9-0.7c1.1-0.2,1.9,0.3,1.9,1.6c0,0.7-0.2,1.3-0.2,2c0,0.2,0.2,1.1,0.2,1.3s0.1,1,0.1,1.2
					c0,0.7-0.4,1.3-1.1,1.4c-0.4,0.1-0.5,0-1.1,0c-1-0.1-1.3,0-2.5,0.2c-0.2,0.1-1.5,0.2-1.8,0.2c-0.2,0-1.1,0.3-1.4,0.4
					c-0.2,0-1.2,0.1-1.4,0.1c-0.2,0.1-1.1,0.4-1.4,0.4s-1.3,0.2-1.5,0.3c-0.6,0.1-1.4,0.5-1.6,0.6c-1.1,0.8-1.4,2.4-1.4,3.5v0.4
					c0.1,0.3,0.2,1.3,0.4,1.6c0.4,0.9,2,0.8,2.6,0.7c0.5-0.1,1-0.3,1.4-0.4c0.2,0,0.4-0.1,0.5-0.1c0.4-0.1,0.8-0.1,1.2-0.1
					s2.2-0.3,2-0.3c0.4-0.1,1.5-0.4,1.8-0.5c0.4-0.1,2.7-0.4,2.9-0.4c1.4-0.1,1.5,1.1,1.5,1.1c0,0.4-0.1,0.7-0.2,1
					c-0.1,0.3-0.1,0.5-0.1,0.8c0,0.4,0.2,2,0.2,2.4c0,1.8-1.5,2.1-2.3,2.3c-0.2,0-0.3,0.1-1.1,0c0,0-1.8,0-2.3,0.1
					c-0.2,0.1-1.1,0.4-1.4,0.5c-0.2,0-1,0.1-1.2,0.1s-1,0.3-1.2,0.3c-0.7,0.1-1.3,0.2-2,0.3c-2,0.4-2.5,1.7-2.6,1.9
					c-0.2,0.5-0.2,1.6-0.2,2.2c0,0.5-0.1,3-0.1,3.5c0,1,0.5,3.9,0.7,4.4c0.7,1.2,2.3,1.3,3,1.3c0.4,0,3.3-0.6,3.9-0.8
					c3.4-0.7,3.7-0.9,4.6-1.4c0.4-0.3,0.9-0.5,1.3-0.6c0.7-0.2,1.6,0.3,1.6,1.2c0,0.3-0.3,1.7-0.3,2c0,0.2,0.2,1.1,0.2,1.4
					c0.1,0.5,0.2,0.9,0.2,1.3c0,1.7-1.6,2.2-2.2,2.4c-0.6,0.1-3.3,0.5-3.8,0.6c-0.2,0-1.1,0.3-1.3,0.3c-0.5,0.1-1.1,0.2-1.6,0.3
					c-0.2,0-1.3,0.3-1.5,0.4c-0.5,0.1-3.4,0.5-4,0.6c-0.8,0.2-1.6,0.5-2.4,0.7c-0.2,0-2.7,0.9-2.8,0.9c-0.8,0.2-2-0.1-2.3-0.3
					c-0.5-0.2-1-0.6-1-3c0-0.2,0-0.6,0.1-1.2c0.1-0.9,0.2-1.2,0.2-1.5s-0.3-3-0.3-3.5c0-0.1,0.1-3.1,0.1-3.1
					c0.1-0.5,0.2-1.1,0.2-1.7v-0.8c0-0.9-0.1-5-0.1-5.7c0-0.5,0.1-2.9,0.1-3.5c0-0.7-0.1-2.4-0.1-3.1c-0.1-0.3-0.2-2-0.2-2.5
					s0.2-3.3,0.2-3.8c0-0.8-0.4-4.9-0.4-5.2c0-1.7,1-2.9,2.7-3.3c0.4-0.1,2.7-0.5,3.3-0.6C722,711.8,723.9,711.3,724.3,711.2
					L724.3,711.2z"/>
				<path class="st3" d="M771.9,722c-0.7,0.2-1.7,0.5-2.2,1.3c-0.2,0.3-0.2,0.4-0.2,1.6c0,0.2-0.1,1-0.1,1.2c-0.1,0.2,0,0.8,0,1
					c0,0.3-0.1,1.7-0.1,2c-0.1,0.7-0.2,4-0.2,4.6s0,1.8,1.7,2.2c0.9,0.2,1.5,0.1,4.8-0.6c0.4-0.1,2.4-0.8,2.6-0.9
					c0.3-0.2,0.6-0.4,0.9-0.6c1.2-0.8,1.7-1.2,2.5-2.4c0.9-1.4,1.4-3.9,1.4-4.5c0-0.3-0.3-2.4-1.1-3.5c-0.9-1.1-2.3-1.6-3.1-1.8
					c-0.5-0.1-1-0.1-1.5-0.2c-0.4,0-0.7-0.1-1.1-0.2c-0.4-0.1-1.6,0-2.2,0.1c-0.2,0-1.1,0.4-1.4,0.4L771.9,722L771.9,722z
					 M773.9,707.6c-0.5,0.1-2.9,0.7-3.5,0.9c-1.4,0.4-1.4,1.4-1.3,1.9c0.1,0.2,0,1.3,0,1.5s-0.1,0.9-0.1,1.1c0,0.2,0.1,0.8,0.1,1
					c0,0.3,0,0.5,0.2,0.7c0.2,0.3,0.8,0.7,1.4,0.7c0.3,0,2.4-0.5,2.9-0.5c0.5-0.1,1.1-0.3,1.6-0.6c0.3-0.2,1.2-0.9,1.5-1.3
					c0.2-0.3,0.3-0.5,0.5-0.7s0.3-0.4,0.4-0.6c0.2-0.3,0.3-1.3,0.3-1.6c0-0.2-0.2-1.1-0.5-1.6c-0.5-1-1.7-1.4-2.4-1.2
					C775,707.3,774,707.6,773.9,707.6L773.9,707.6z M763.8,745.2c-2.6,0.6-2.7-1.7-2.7-2.5c0-0.6,0.2-3.7,0.2-4.4
					c0-0.2-0.1-1.5-0.1-1.8c0-0.4,0.2-2.1,0.2-2.5c0-0.9-0.1-1.8-0.1-2.7c0-0.6,0.1-1.2,0.1-1.8v-4.2c0-0.7,0.1-1.4,0.1-2.1
					c0-0.3-0.1-1.9-0.1-2.3v-2c0-0.2,0.1-1,0.1-1.1c0-0.4-0.2-2-0.2-2.5c0-1,0.1-1.9,0.1-2.9c0-0.8-0.1-1.6-0.1-2.4
					c-0.1-0.5,0-1.1-0.1-1.7c0-0.5-0.1-1.1-0.1-1.6c0-2.7,1.9-3.7,3-4c0.5-0.1,2.9-0.4,3.2-0.4c0.3-0.1,1.8-0.7,2.1-0.8
					c0.2-0.1,1.3-0.2,1.5-0.2c0.3-0.1,1.5-0.2,1.8-0.3c0.2,0,0.4-0.1,1.1-0.4c0.5-0.2,1-0.3,1.4-0.4c0.8-0.2,2.8-0.5,3.6-0.4
					c0.4,0,0.8,0.1,1.2,0.1c1,0.1,1.2,0.1,1.8,0.4c0.2,0.1,0.5,0.4,0.8,0.5c0.2,0.1,0.5,0.1,0.8,0.3c0.2,0.1,0.3,0.2,0.5,0.4
					c0.6,0.5,0.8,0.7,1.1,1.4c0.3,0.8,0.5,2.9,0.5,3c0,0.7-0.2,2.7-0.4,3.3c-0.4,1.5-1,3-2,4.2c-0.2,0.2-0.5,0.6-0.5,0.9
					c0,0.1,0,0.2,0.3,0.2c0.2,0.1,1.2,0.2,1.5,0.2c0.4,0,0.5,0.1,1.5,0.7c0.4,0.3,0.8,0.4,1.2,0.7c0,0,2.1,2.4,2.3,2.7s1,2.2,1,2.3
					c0.1,0.1,0.5,2,0.5,2.6v2c0,0.8-0.1,1-0.5,2.6c-0.1,0.4-0.5,2.6-0.7,3.1c-1,2.2-2.9,4.9-3.8,5.8c-0.1,0.1-1.9,1.8-2,1.9
					c-0.5,0.4-1.1,0.6-1.6,0.9c-0.5,0.3-1,0.6-1.5,0.9c-1,0.5-4.3,1.6-6.8,2.1c-2,0.4-2.7,0.6-3.2,0.6c-0.9,0.1-1.8,0.2-2.7,0.4
					c-0.5,0.2-3.2,0.8-3.8,1L763.8,745.2L763.8,745.2z"/>
				<path class="st3" d="M804,694.3c0.2-0.1,1-0.2,1.7-0.3c0.8-0.1,1.5-0.2,1.8-0.3l1.6-0.3c0.4-0.1,2.1-0.3,2.6-0.4l2-0.4
					c0.4-0.1,2.4-0.6,2.9-0.7c1.1-0.2,1.9,0.3,1.9,1.6c0,0.7-0.2,1.3-0.2,2c0,0.2,0.2,1.1,0.2,1.3s0.1,1,0.1,1.2
					c0,0.7-0.4,1.3-1.1,1.4c-0.4,0.1-0.5,0-1.1,0c-1-0.1-1.3,0-2.5,0.2c-0.2,0.1-1.5,0.2-1.8,0.2c-0.2,0-1.1,0.3-1.4,0.4
					c-0.2,0-1.2,0.1-1.4,0.1s-1.1,0.4-1.4,0.4c-0.2,0.1-1.3,0.2-1.5,0.3c-0.6,0.1-1.4,0.5-1.6,0.6c-1.1,0.8-1.4,2.4-1.4,3.5v0.4
					c0.1,0.3,0.2,1.3,0.4,1.6c0.4,0.9,2,0.8,2.6,0.7c0.5-0.1,1-0.3,1.4-0.4c0.2,0,0.4-0.1,0.5-0.1c0.4-0.1,0.8-0.1,1.3-0.1
					c0.4,0,2.2-0.3,2-0.3c0.4-0.1,1.5-0.4,1.8-0.5c0.4-0.1,2.7-0.4,2.9-0.4c1.4-0.1,1.5,1.1,1.5,1.1c0,0.4-0.1,0.7-0.2,1
					c-0.1,0.3-0.1,0.5-0.1,0.8c0,0.4,0.2,2,0.2,2.4c0,1.8-1.5,2.1-2.3,2.3c-0.2,0.1-0.3,0.1-1.1,0c0,0-1.8,0-2.3,0.1
					c-0.2,0-1.1,0.4-1.4,0.5c-0.2,0-1,0.1-1.2,0.1s-1,0.3-1.2,0.3c-0.7,0.1-1.3,0.2-2,0.3c-2,0.4-2.5,1.7-2.6,1.9
					c-0.2,0.5-0.2,1.6-0.2,2.2c0,0.5-0.1,3-0.1,3.5c0,1,0.5,3.9,0.7,4.4c0.7,1.2,2.3,1.3,3,1.3c0.4,0,3.3-0.6,3.9-0.8
					c3.4-0.7,3.7-0.9,4.6-1.4c0.4-0.3,0.9-0.5,1.3-0.6c0.7-0.2,1.6,0.3,1.6,1.2c0,0.3-0.3,1.7-0.3,2c0,0.2,0.2,1.1,0.2,1.4
					c0.1,0.5,0.2,0.9,0.2,1.3c0,1.7-1.6,2.2-2.2,2.4c-0.6,0.1-3.3,0.5-3.8,0.6c-0.2,0-1.1,0.3-1.3,0.3c-0.5,0.1-1.1,0.2-1.6,0.3
					c-0.2,0.1-1.3,0.3-1.5,0.4c-0.5,0.1-3.4,0.5-4,0.6c-0.8,0.2-1.6,0.5-2.4,0.7c-0.2,0-2.7,0.9-2.8,0.9c-0.8,0.2-2-0.1-2.3-0.3
					c-0.5-0.2-1-0.6-1-3c0-0.2,0-0.6,0.1-1.2c0.1-0.9,0.2-1.2,0.2-1.5s-0.3-3-0.3-3.5c0-0.1,0.1-3.1,0.1-3.1
					c0.1-0.5,0.2-1.1,0.2-1.7v-0.8c0-0.9-0.1-5-0.1-5.7c0-0.5,0.1-2.9,0.1-3.5c0-0.7-0.1-2.4-0.1-3.1c-0.1-0.3-0.2-2-0.2-2.5
					s0.2-3.3,0.2-3.8c0-0.8-0.4-4.9-0.4-5.1c0-1.7,1-2.9,2.7-3.3c0.4-0.1,2.7-0.5,3.3-0.6C801.7,694.9,803.6,694.4,804,694.3
					L804,694.3z"/>
				<path class="st3" d="M832.9,688.1c0.2-0.1,1-0.2,1.7-0.3c0.8-0.1,1.5-0.2,1.8-0.3l1.6-0.3c0.4-0.1,2.1-0.3,2.6-0.4l2-0.4
					c0.4-0.1,2.4-0.6,2.9-0.7c1.1-0.2,1.9,0.3,1.9,1.6c0,0.7-0.2,1.3-0.2,2c0,0.2,0.2,1.1,0.2,1.3s0.1,1,0.1,1.2
					c0,0.7-0.4,1.3-1.1,1.4c-0.4,0.1-0.5,0-1.1,0c-1-0.1-1.3,0-2.5,0.2c-0.2,0.1-1.5,0.2-1.8,0.2c-0.2,0-1.1,0.3-1.4,0.4
					c-0.2,0-1.2,0.1-1.4,0.1c-0.2,0.1-1.1,0.4-1.4,0.4c-0.2,0-1.3,0.2-1.5,0.3c-0.6,0.1-1.4,0.5-1.6,0.6c-1.1,0.8-1.4,2.4-1.4,3.5
					v0.4c0.1,0.3,0.2,1.3,0.4,1.6c0.4,0.9,2,0.8,2.6,0.7c0.5-0.1,1-0.3,1.4-0.4c0.2,0,0.4-0.1,0.5-0.1c0.4-0.1,0.8-0.1,1.3-0.1
					c0.4,0,2.2-0.3,2-0.3c0.4-0.1,1.5-0.4,1.8-0.5c0.4-0.1,2.7-0.4,2.9-0.4c1.4-0.1,1.5,1.1,1.5,1.1c0,0.4-0.1,0.7-0.2,1
					c-0.1,0.3-0.1,0.5-0.1,0.8c0,0.4,0.2,2,0.2,2.4c0,1.8-1.5,2.1-2.3,2.3c-0.2,0.1-0.3,0.1-1.1,0c0,0-1.8,0-2.3,0.1
					c-0.2,0.1-1.1,0.4-1.4,0.5c-0.2,0-1,0.1-1.2,0.1s-1,0.3-1.2,0.3c-0.7,0.1-1.3,0.2-2,0.3c-2,0.4-2.5,1.7-2.6,1.9
					c-0.2,0.5-0.2,1.6-0.2,2.2c0,0.5-0.1,3-0.1,3.5c0,1,0.5,3.9,0.7,4.4c0.7,1.2,2.3,1.3,3,1.3c0.4,0,3.3-0.7,3.9-0.8
					c3.4-0.7,3.7-0.9,4.6-1.4c0.4-0.3,0.9-0.5,1.3-0.6c0.7-0.2,1.6,0.3,1.6,1.2c0,0.3-0.3,1.7-0.3,2c0,0.2,0.2,1.1,0.2,1.4
					c0.1,0.5,0.2,0.9,0.2,1.3c0,1.7-1.6,2.2-2.2,2.4c-0.6,0.1-3.3,0.5-3.8,0.6c-0.2,0-1.1,0.3-1.3,0.3c-0.5,0.1-1.1,0.2-1.6,0.3
					c-0.2,0-1.3,0.3-1.5,0.4c-0.5,0.1-3.4,0.5-4,0.6c-0.8,0.2-1.6,0.5-2.4,0.7c-0.2,0-2.7,0.9-2.8,0.9c-0.8,0.2-2-0.1-2.3-0.3
					c-0.5-0.2-1-0.6-1-3c0-0.2,0-0.6,0.1-1.2c0.1-0.9,0.2-1.2,0.2-1.5s-0.3-3-0.3-3.5c0-0.1,0.1-3.1,0.1-3.1
					c0.1-0.5,0.2-1.1,0.2-1.7v-0.8c0-0.9-0.1-5-0.1-5.7c0-0.5,0.1-2.9,0.1-3.5c0-0.7-0.1-2.4-0.1-3.1c-0.1-0.3-0.2-2-0.2-2.5
					s0.2-3.3,0.2-3.8c0-0.8-0.4-4.9-0.4-5.1c0-1.7,1-2.9,2.7-3.3c0.4-0.1,2.7-0.5,3.3-0.6C830.6,688.8,832.5,688.2,832.9,688.1
					L832.9,688.1z"/>
				<g>
					<g>
						<defs>
							<rect id="SVGID_3_" x="315.9" y="465.7" width="579.1" height="370"/>
						</defs>
						<clipPath id="SVGID_4_">
							<use xlink:href="#SVGID_3_"  style="overflow:visible;"/>
						</clipPath>
						<path class="st5" d="M874.9,694c-0.1-0.3-0.3-0.5-0.4-0.8c-0.1-0.2-0.1-0.4-0.1-0.6c-0.1-0.2-0.1-0.3-0.2-0.4
							c-0.9-1.8-1.2-2-2.4-2.8c-1.1-0.7-1.1-0.7-2-0.8c-0.2,0-0.4,0-0.5-0.1c-0.1,0-0.3-0.1-0.4-0.2c-0.3,0-0.6,0.1-0.9,0.1
							c-0.2,0-0.3-0.1-0.5-0.1s-0.4,0-0.6,0c-0.1,0-0.7,0-0.8,0s-0.7,0.3-0.8,0.3c-0.2,0-0.4,0-0.6,0.1c-0.2,0-1.5,0.7-1.5,0.8
							c-1.5,0.9-1.5,2.7-1.5,3.9c0,0.3-0.1,1.8-0.1,2.1c0,0.5,0.2,3.1,0.2,3.7c0,0.7-0.3,3.6-0.3,4.3c0,0.3,0.1,0.5,0.2,1.3
							c0.1,0.3,0.1,0.7,0.1,1c0.1,0.2,0.2,0.4,0.3,0.5c0.5,0.5,2.3,0.4,2.6,0.3c0.5-0.1,0.9-0.2,1.3-0.4c0.8-0.2,1-0.3,1.5-0.7
							c0.6-0.4,0.8-0.5,2.7-1.6c1-0.6,1.3-1,1.7-1.9c0.2-0.5,0.5-0.9,0.9-1.4c0.5-0.7,1-1.5,1.5-2.7c0.4-0.9,0.7-3.4,0.7-3.4
							C875,694.4,875,694.3,874.9,694L874.9,694z M853.5,722.8c0.2-1.1,0.5-2.3,0.5-3.4c0-0.4-0.2-2.1-0.2-2.5
							c0-0.2,0.1-1.3,0.1-1.6c0-0.2-0.2-1.4-0.2-1.7c0-0.6,0.1-1.6,0.1-2.2c0-0.3,0.1-1.9,0.1-2.2s0-0.6-0.1-0.9
							c-0.1-0.8-0.2-1.1-0.2-2.3c0-0.3,0.1-0.7,0.1-1c0.1-1.4,0.3-3.1,0.3-4.1c0-0.4-0.2-2.1-0.2-2.5c0-0.2,0.1-1.3,0.1-1.5
							c0-0.3-0.2-1.9-0.2-2.2c0-0.2,0.1-1.2,0.1-1.4c0-0.7-0.3-2.6-0.5-3.4c-0.2-1.1-0.2-1.2-0.2-1.5c0-1.8,0.2-2.6,0.5-3.2
							c0.7-1.3,1.3-1.6,2.6-1.9c0.5-0.1,1.3-0.3,1.7-0.3c0.5,0,0.9-0.1,1.3-0.1c0.4,0,0.7-0.1,1-0.1c0.3-0.1,1.7-0.5,2-0.5
							c0.3-0.1,1.5-0.2,1.8-0.3c0.5-0.1,2.9-0.9,3.5-1c0.4-0.1,0.8-0.2,1.3-0.2c0.3,0,0.7,0,1,0c1.7-0.2,1.8-0.2,2.7,0
							c0.4,0,0.5,0.1,1.5,0.5c0.3,0.1,0.5,0.2,0.8,0.3c0.2,0.1,0.5,0.2,0.8,0.4c0.4,0.2,0.7,0.3,1.1,0.5c0.4,0.2,1.9,1,2.4,1.7
							c0.3,0.4,0.5,0.7,0.7,1c0.4,0.4,0.8,0.7,1.1,1.1c0.8,1,1.2,2.8,1.2,4.1v1c0,0.1,0.1,0.9,0.1,1s0.1,1.8,0.1,2v0.3
							c-0.1,0.6-0.3,1.3-0.5,2c-0.2,0.8-0.2,1.6-0.5,2.4c-0.1,0.4-1,2.4-1.2,2.8c-0.5,1.2-0.8,2-1.7,2.9c-0.2,0.3-0.5,0.5-0.8,0.8
							c-0.7,0.8-1,1.2-2.1,2.2c-0.8,0.8-1.6,1.4-2.4,1.8c-0.2,0.1-1,0.5-1,1.1c0,0.4,0.2,0.5,1,0.9c0.2,0.1,0.4,0.3,0.6,0.4
							c0.1,0.2,0.6,0.6,0.8,0.7c0.2,0.2,2,1,2.4,1.1c0.5,0.1,1.7,0.1,3.7-0.3c1.7-0.4,2,1.2,2,1.5c0,0.2-0.3,1.6-0.3,1.9
							c0,0.2,0.1,1.1,0.1,1.3s0,1.1-0.4,1.8c-0.6,1-1.8,1.4-2.3,1.5c-0.3,0.1-0.6,0.1-0.8,0.1l-0.7,0.2c-0.1,0-0.7,0.1-0.8,0.1
							l-0.9-0.2c-0.3,0.1-0.6-0.1-0.9,0c-0.4,0-0.7,0-1.1,0c-0.4,0-1.7-0.5-1.9-0.5c-0.4-0.1-2.1-1.3-2.9-1.8
							c-0.4-0.3-2.6-1.5-3-1.9c-0.2-0.2-0.5-0.6-0.8-0.8c-0.4-0.2-0.4-0.3-0.7-0.6c-0.2-0.3-0.5-0.4-0.7-0.7c-0.5-0.4-1-0.8-1.9-0.5
							c-1,0.2-1.2,1.6-1.2,2.7c0,0.8,0.1,1.4,0.2,1.7c0.1,0.6,0.4,1.2,0.5,1.8c0,0.3,0.1,0.5,0.1,0.8c0,1-0.1,2.2-1.6,2.7l-1.4,0.3
							c-0.2,0-1.2,0.2-1.4,0.2c-0.8,0.2-1.5,0.4-2.3,0.6c-2,0.4-2-1.1-2-1.8L853.5,722.8L853.5,722.8z"/>
					</g>
					<g>
						<defs>
							<rect id="SVGID_5_" x="315.9" y="465.7" width="579.1" height="370"/>
						</defs>
						<clipPath id="SVGID_6_">
							<use xlink:href="#SVGID_5_"  style="overflow:visible;"/>
						</clipPath>
						<path class="st6" d="M316.1,676.8c0,1.3,0.6,2.5,0.6,3.7c0.3,1,0.3,1.8,0.3,2.5c0.1,3.8,0.7,7.6,1.7,11
							c0.8,2.4,1.8,4.8,2.4,7.2c0.5,1.9,0.6,4.2,1.6,6.4c1,2.4,2.8,4.6,4.1,6.9c0.5,1.4,0.8,2.7,1.6,4.1c0.8,1.4,1.8,2.4,2.8,3.8
							c1.3,1.8,2.3,3.6,3.3,5.5c1.5,2,3.3,4,5.5,5.8c1.3,1,2.8,2.2,4,3.5c1,0.8,2,1.9,3,2.5c1.3,1,2.8,1.7,4,2.5
							c0.8,0.6,1.7,1.4,2.7,2s2.2,1.1,3.5,1.6c1.2,0.8,2.3,1.6,3.7,2.1c1.7,0.7,4.5,1.4,6.2,2c2.2,0.8,4.2,1.4,6.4,1.7
							c2.5,0.5,6.6,0.9,9.1,1.4c9.8,1.5,25-1.2,27.9-1.8c1.7-0.4,5.4-1.1,7.6-1.9c1.2-0.5,4.1-1.4,4.9-1.6c0.2-0.1,4.2-0.6,8.1-1.5
							c4.1-0.6,8.5-1.3,9.3-1.5c7.8-1.7,17.8-4.3,21.1-7.8c1.7-1.6,3.3-4.6,3.2-7.7c0-1.3-0.3-2.3-0.6-3.5c-0.3-1.8-0.3-3.6-0.6-5.3
							c0-1-1.1-5.7-1.2-6.7c0-0.8,0.4-4.5,0.4-5.2c0-0.8-0.6-3.5-0.6-4.3l-0.1-2.6c-0.3-0.7-0.8-1.4-1-2.1c-0.3-1-0.5-1.7-0.6-2.7
							c0-1.3,0.5-7.1,0.5-8.4c0-1.3-0.2-7.2,0-8.5c0-1,0.2-2.9,0.2-3.4c-0.1-2.8-0.9-5.5-1.2-8c-0.3-0.7-0.3-1.5-0.3-2.3
							s0.1-5.4,0.1-6.2c-0.3-1.5-1.4-8.5-1.5-10l-0.3-10.3c-0.3-3.8-0.9-15.8-2.2-17.9c-0.8-0.9-2.8-3-5.5-2.5
							c-1,0.2-5.3,1.9-6.3,2.1c-1,0.2-2.2,0.5-3.4,1c-1,0.5-5.1,2.4-5.8,2.5c-2,0.4-3.9,0.3-5.6,0.7c-1,0.2-4.4,1.4-5.1,1.6
							c-1.2,0.3-2.5,0.3-3.7,0.5c-1.5,0.1-2.9,0.6-4.4,0.7c-1,0.2-5.4,0.4-6.4,0.6c-1,0.2-5.1,0.8-6.1,1c-5.4,1.1-13.8,7.3-13.6,15
							c0,1.5,0.9,7.8,1,9.1c0,1-0.1,5.7,0.2,6.7c0.4,4.6,3.3,5.7,6.3,5.1l1.9-0.4c1.5-0.3,2.9-0.4,4.4-0.7c1.2-0.3,6.5-2.7,7.8-2.9
							c0.7-0.2,3.9-0.3,4.6-0.5c1-0.2,4.9-1.3,5.8-1.8c0.7-0.4,1.4-0.8,2.2-1c1.5-0.3,4.9,0.8,5,5.1c0,1.3-1,7.2-1,8.2
							c0,1.5,1.4,7.7,1.4,9c0,1.5-0.5,8.1-0.5,9.4c0,1.3,1.4,7.5,1.4,8.7c0,0.5-0.4,3.4-0.4,4.2c0,0.5,0.8,3.7,0.9,4.2
							c0.1,2.1-1.1,4.6-1.8,5.8c-1.7,1.9-7,3.6-7.5,3.7c-0.7,0.2-3.4,0.2-3.9,0.3c-0.7,0.2-1.5,0.6-2.2,0.7c-1,0.5-1.9,0.7-2.7,0.8
							c-6.8,1.4-8.1,1.5-18.9,0.1c-8.6-1-11.6-1.9-18-5.7c-1.5-0.7-3-1.7-4-2.8c-1.2-0.8-1.8-1.9-3-3c-1-0.8-2.7-1.7-3.7-2.8
							c-3.3-3.4-10.5-16.1-11.8-21c-0.5-1.7-3-13.8-3.1-18.4c-0.7-26.5,5.4-40.6,23.3-57.4c4.6-4.3,6.5-5.3,13-8.2
							c5.1-2.1,7.8-3.2,12.9-4.3c1.5-0.3,8.3-1.8,14.9-1.6c2.5,0,4.9,0.2,7.4,1c2.5,0.5,6.2,2,8.7,2.5c3.2,0.9,4.7,1.3,7.1,0.8
							c1.2-0.3,6.8-1.5,8.4-8.5c0.2-1.3,0.4-2.7,1.1-4.4c0.9-1.8,2.4-3.9,3.6-5.9c1.1-2.3,1.8-4.8,1.7-8.9
							c-0.2-6.2-8.3-9.1-10.3-9.4c-2.2-0.3-4.4,0.2-6.6,0.1c-1.7-0.2-3.4-0.6-5.2-0.7c-1.5,0.1-3.2,0.4-4.7,0.2
							c-1.5,0-2.9-0.1-4.4-0.1c-1-0.1-13.2,1.5-14.2,1.7c-0.7,0.2-20.4,5.6-21.2,5.8c-7.8,2.7-10.2,4-12.9,5.8
							c-0.5,0.1-8.5,4.6-8.7,4.9l-2.9,1.4c-1.4,1.1-3.1,2.7-4.6,4.1c-2.2,1.5-4.1,2.7-6.3,4.7c-1.4,1.3-2.9,3.2-4.3,4.5
							c-1,1-1.9,1.7-3.1,2.7c-0.7,0.7-7.2,7.7-7.9,8.7c-1,1.5-4.5,7.7-5.2,9.1c-0.7,0.9-1.2,1.8-1.6,2.9c-1,1.5-1.4,3.1-2.1,4.6
							c-0.5,1.1-0.9,2.3-1.6,3.5c-0.9,2.5-1.6,4.7-2.5,7.3c-0.5,1.4-1.4,3.1-1.8,4.8c-0.5,1.1-3.8,15.3-4,16.4
							c-0.2,1.8,0.1,3.9-0.1,5.7c0,1.3-0.6,6.8-0.5,7.9L316.1,676.8L316.1,676.8z"/>
					</g>
				</g>
				<path class="st3" d="M502.9,650c0-1.1-1-6-1-6.8c-0.1-2.9,0.7-5.8,1.2-8.8l-0.1-2.7c-0.1-5.1-0.1-5.6,0.1-7
					c0.2-2.2,1-4.5,1.5-6.8c0.5-3.1,0.7-6.1,1.5-9.4c0.5-1.7,5.6-13,6.1-13.9c0.8-1.5,2.2-3.2,3-4.7c2.7-4.6,3.3-5,4.6-6.6
					c4.1-4.4,6.6-7.3,9.6-9.3c2.5-1.6,4.7-2.6,7.2-4c2.8-1.4,5.6-3.9,8.3-5c1.7-0.9,3.6-1.3,5.3-1.7l3.9-0.8c1.1-0.5,5.9-1.8,6.7-2
					c3.1-0.7,9.8-1.8,12.9-1.7c3.7,0,9.8,0.1,11.6,0.5c1.4,0.5,2.6,1.6,4.3,2c0.8,0.1,1.7,0.2,2.5,0.5c1.1,0.6,2,1.4,2.9,2.1
					c1.1,0.6,2.5,0.8,3.7,1.4c0.6,0.7,4.9,4.6,6.1,5.7c2.6,2.4,7.5,7.3,10.5,14.7c0.6,2.3,1.2,4.3,1.8,6.3c0.9,2.8,2.1,5.7,2.8,8.5
					c0.3,1,0.3,2.1,0.4,3.2l0.2,6.9c0,0.8-0.2,4.1-0.2,4.6c0,1.1,0.4,5.3,0.4,6.3c-0.1,5.9-0.4,6.3-1.2,9.4
					c-0.8,1.8-2.8,10.6-3.4,12.2c-0.5,1.2-4,9.7-5,11.8c-0.8,1.5-2.2,3.2-3.3,4.5c-1.4,1.6-2.8,3-4.1,4.6c-1.9,2.3-3.3,5-5.2,7
					c-1.6,1.7-3.6,2.6-5.2,4.3c-1.4,1.1-2.8,2.5-4.1,3.6c-3,2.3-6.4,3-9.5,4.4c-2.2,1-4.2,2.2-6.7,3.3c0.3-0.1-13.4,3.7-14.8,4
					c-6.7,1.4-12.6,0.8-13.5,0.4c-2.5-0.3-4.8-0.8-7.4-1.4c-2.5-0.5-5.4-0.5-7.9-1.5c-2-0.7-7.4-4.1-8.3-5c-1.4-1-2-2.5-3.2-3.6
					c-1.5-1.6-3.2-2.6-4.6-3.9c-3.7-3.2-4.3-5-5.6-8.7c-0.3-0.8-2.7-6.4-3-7.1c-1.2-2.7-1.8-3.7-1.8-6.3L502.9,650L502.9,650z
					 M582.3,714.7c2-0.4,2.3-0.5,3-0.9c2.3-0.7,4.3-2.7,6.3-3.7c1.3-0.5,2.3-0.5,3.5-1c1-0.5,2.3-1.3,3.3-2.2
					c2.3-1.5,17-13.4,18.2-14.7c0.7-0.9,1.5-1.9,2.2-2.5c1.2-1.3,2.7-2.1,4-3.2c0.8-0.7,5.4-6.6,6.4-7.8l2.2-3.6
					c1.5-2.1,3.5-4.4,4.7-6.7c0.7-1.4,1.9-4,2.9-6.3c0.7-1.4,1-2.8,1.7-4c0.5-1.6,1.4-3.1,1.9-4.8c1-1.7,3.3-9.7,3.8-11.4
					c0.7-1.7,1.4-3.1,1.7-4.7c0.9-3.1,0.6-5.6,1.3-8.6c0.2-1.4,1-3,1.2-4.6c0.2-0.8,0.2-1.6,0.2-2.4c-0.1-2.8-0.1-4.6,0.1-6.7
					c0-1,0.3-6.8,0.3-7.8c-0.1-2.1-1.3-11.1-1.4-13.1c0-1-0.1-5.9-0.4-6.9c0-1.3-0.6-2.7-0.9-3.9c-0.6-1.7-2-9.6-2.6-11.1
					c-0.8-1.4-1.9-2.7-2.7-4.1c-1.1-2.3-3-6.3-4.3-8.6c-1.1-1.3-10.3-13.3-15.7-17.1c-1.1-1.1-7-4.7-8.1-5.5
					c-4.4-3.2-4.9-3.6-7.2-4.7c-4.6-1.9-9.5-2.1-14.1-3.2c-2.3-0.3-4.4-0.9-6.4-1.2c-2.5-0.2-5.1,0-7.7,0.1
					c-4.1-0.2-4.6-0.3-7.1,0.2c-2,0.4-2.3,0.5-6.6,1.1c-1.6,0.3-3.6,0.5-13,2.5c-11.9,2.5-17.5,5.3-26.5,10.3
					c-10.3,5.8-10.8,6.4-21.8,16c-6.5,6-7.2,6.7-9.7,10.6c-0.7,1.4-1.5,2.6-2.4,4.1c-1.2,1.8-3,4-4.2,6.1s-1.9,4.3-3.2,6.6
					c-0.7,1.2-4.2,6.8-4.7,8.2c-4.8,9.8-10.4,31.6-10,49.9c0,1.8,1,17.6,1.2,19.4c0.6,2.7,1.7,5.3,2.2,7.8c0.6,2.5,0.9,4.7,1.7,6.9
					c0.6,1.4,1.1,2.8,1.6,4c1.4,4.1,2.3,7.8,4.6,11.7c1.3,2,5.6,8.1,6.9,9.4c1.6,1.7,11,10.1,12.8,11.2c2.3,1.6,11.1,4.9,13.7,5.6
					c1.5,0.4,16.7,2.7,17.2,2.8c2.3,0.3,4.6,0.1,6.9,0.1c3.8,0.2,4.4,0.1,8.9-0.4c1.3,0,6.6-0.4,7.9-0.6c1.8-0.4,3.8-1.1,5.6-1.5
					c1-0.2,4.8-0.8,5.6-0.9c0.7-0.2,3.8-1.1,4.3-1.2c2-0.7,3.8-0.8,5.8-1.5L582.3,714.7L582.3,714.7z"/>
				<g>
					<g>
						<defs>
							<rect id="SVGID_7_" x="315.9" y="465.7" width="579.1" height="370"/>
						</defs>
						<clipPath id="SVGID_8_">
							<use xlink:href="#SVGID_7_"  style="overflow:visible;"/>
						</clipPath>
						<path class="st7" d="M718.4,621c-1.3,0-2.3,0.5-3.6,0.8s-6.5,2.2-7.5,2.4l-1,0.2c-1,0-2-0.4-3.3-0.6c-1.3,0-2.9,0.1-3.9-0.2
							c-1.7-0.4-2.4-2.1-2.4-3.6c-0.1-2.1,0.9-4.3,2.1-6.7c1.2-2.3,1.6-2.7,2.5-6.2c0.9-2.8,1.6-5.8,2.8-8.7
							c0.9-1.5,1.6-3.2,1.9-4.5c1.5-4.2,3.6-14.1,5.1-18.3c4-10.9,4.9-16.7,6.1-21.1c0.1-0.3,1.4-3.9,1.4-4.1
							c0.3-0.8,0.6-1.9,1.6-2.1c1.6-0.3,2,1.1,2.7,2.8c0,1.3,1,2.1,1.4,3.1c0,0.8,0,1.5,0.4,2.5c0.4,3,2.5,7.4,3.9,10.3
							c1,2.1,1.8,4.5,2.5,6.7c1.8,5.6,5.3,13.1,6,14.7c1,2.1,2.1,4.2,2.8,6.4c1.1,2.6,1.7,3.3,3.1,5.6c1.4,2,3.5,7.4,3.5,9.8
							c0.1,3.9-5.8,6.4-7.7,6.8c-1.3,0.3-2.6,0.3-4.2,0.6c-0.6,0.1-4.9,1.8-5.5,2c-0.6,0.1-4.3,0.4-4.9,0.5L718.4,621L718.4,621z
							 M730.9,648.8l3.3-0.7c1.2-0.3,5.9-1,6.8-1.2c1.2-0.3,5.9-1.8,6.8-2l5-1.1c6.9,0.1,12.1,8.3,12.3,15.2
							c0.1,3.6,0.4,15.1,9.6,13.2c1.8-0.4,13.9-4,16.3-4.5c2.1-0.4,2.9,0.2,4.6-0.2c0.5-0.1,4.9-0.8,5.4-0.9
							c2.2-0.5,4.3-2.7,4.2-7.1c-0.1-5.7-3.2-9.9-5.8-13.5c-1.4-2.3-3.1-4.5-4.2-6.8c-1.2-2.6-2-5.3-3.2-7.9
							c-1.4-3.1-3.4-6.3-4.6-9.6c-0.6-2.2-1.2-4.4-1.8-6.8c-0.3-1-0.9-1.9-1.4-2.8c-1.7-3-1.7-3.5-2.3-6.7
							c-1.2-4.7-4.1-10.8-4.9-12.1c-1.4-2.3-2.8-4.6-4-6.9c-1.1-2.4-1.5-4.9-2.3-7.3c-0.9-2.7-2.3-5.2-3.2-7.9
							c-1.2-3.1-1.8-6.6-3.2-9.6c-1.2-3.6-3.4-6.8-4.6-10.4c-0.9-1.9-1.2-3.9-1.8-5.8c-0.9-2.9-2.1-6-3.5-9.1
							c-2.8-5.6-7.3-10.8-9.3-16.9c-0.6-1.7-1.2-3.1-1.7-4.5c-0.3-1.2-2.6-5.6-2.9-6.6c-2.6-7.2-2.9-7.9-6.2-9
							c-2.5-0.8-3.8-0.7-6-0.3c-1.6,0.3-8.1,2-9.4,2.2c-1.6,0.3-9.4,1.7-11,2.1c-2.7,0.6-5.4,1.4-8.2,5.9c-2.1,3.3-2.2,6.7-3,9.9
							c-1,3.6-6.3,19.4-7,22.1c-0.7,3.3-1.2,6.4-1.9,9.4c-1,3.3-2.3,6.4-3.3,9.7c-2.8,7.8-3.7,15.2-6.5,23.1c-1,2.3-2,4.8-3.1,7.3
							c-1,2.6-2,5.3-2.8,7.8c-1.5,5.5-2.4,10.6-4.5,15.9c-1.3,3.9-2.8,7.8-4,11.7c-2.3,6.7-3.2,13.1-4.4,19.5
							c-0.7,3.2-1.2,6.4-2.7,9.9c-1,3.1-3.1,6.3-4.1,9.4c-1.3,3.6-1.7,6.8-3,10.5c-1.2,3.9-3.3,7.7-4.8,11.6c-1,2.3-1.8,4.3-1.7,6.3
							c0,1.5,1.2,6.2,6.6,5.1c1.9-0.4,4.5-1.5,6.6-2.2c1.8-0.4,3.9-0.6,5.7-0.7c4.8-0.5,5.3-0.6,6.5-0.9c5.6-1.2,7.7-1.6,10-4.4
							c0.6-0.6,2.4-4.8,3.6-10.9c0.9-4.7,1.8-8,2.7-12.4s2.8-7.1,5.7-8.2c3.9-1.5,5.5-2.7,8.8-3.4c3-0.6,6.2-0.8,9.2-0.9
							c1.8-0.4,3.6-0.5,5-0.8c3-0.6,8.3-2,10.4-2.7L730.9,648.8L730.9,648.8z"/>
					</g>
					<g>
						<defs>
							<rect id="SVGID_9_" x="315.9" y="465.7" width="579.1" height="370"/>
						</defs>
						<clipPath id="SVGID_10_">
							<use xlink:href="#SVGID_9_"  style="overflow:visible;"/>
						</clipPath>
						<path class="st8" d="M838.6,477.2c-0.8,0.2-4.8,0.8-5.9,1l-4.3,0.9c-0.8-0.1-4.9,0.3-5.7,0.4c-1.3,0.3-7.5,1.9-8.9,2.4
							c-3,0.9-5.6,2-8.3,2.5c-0.3,0.1-6.7,0.7-7.5,0.6c-3.2,0.2-7.5,1.1-8.6,1.3c-1.1,0.2-6.2,1.8-7.2,2.1c-4,0.9-5.4,1.1-6.9,3.5
							c-1,1.8-1.5,6.3-1.4,7.3c0,0.3,0.3,2,0.3,2.2c0,0.8-0.5,3.5-0.4,4c0,0.5,0.3,2.8,0.4,3.3c0,1.8-0.2,3.6-0.1,5.2
							c0.1,2.3,1.8,7.4,7.5,6.2l4.3-0.9c2.4-0.5,4.9-0.5,7-1c1.1-0.2,5.6-2,6.4-2.2c0.8-0.2,4.9-0.5,5.9-0.8
							c5.4-1.1,10-2.1,11.7-0.4c0.6,0.7,1.4,3.3,1.5,4.6c0,0.3-0.2,2.1-0.2,2.4c0,1,0.9,5.5,1,6.3c0,0.8-0.1,4.4-0.1,4.9
							c0,1.5,1,8,1,9.3c0,1.8-0.8,9.5-0.8,11c0.1,3.1,0.7,6.1,0.8,9.1c0,1.5-0.6,7.9-0.6,9.1c0,0.8,0.4,4.3,0.4,4.8
							c0,0.8-0.2,3.6-0.2,4.2c0.3,0.7,0.6,3.5,0.6,4c0.1,2.1-0.4,4.2-0.4,6.6c0,0.5,0.4,3.5,0.4,4.3l0.1,2.8c0,0.8,0.6,4.3,0.6,4.8
							c0.1,2.1-0.4,4.2-0.4,6.3l0.3,11.3c0,0.5,0.3,2.3,0.3,2.5c0,1-0.4,5-0.4,5.8l0.1,4.4c-0.2,0.8-0.7,5.1-0.7,6.1
							s0.7,5.8,0.7,6.8s-0.7,5.1-0.7,6.1c0,0.5,0.7,6,1.3,6.7c1.4,2.8,3.5,3.1,8.6,2c1.6-0.3,9.1-2.7,10.7-3c1.3-0.3,5.9-0.7,7-1
							c7.3-1.5,8.4-8.5,8.3-15.7c-0.1-2.8-1.4-13.4-1.8-16.1c-0.6-2.7-0.6-3-0.6-3.7c0-1.3,0.4-6.3,0.4-7.3c0-1.3-0.7-6.8-0.7-8.1
							c0-1.5,0-8.3,0-9.6s-0.4-7.4-0.5-8.7c0-1.5,0.3-9.1,0.3-10.6c-0.1-3.3-0.5-6.9-0.5-10.2c0-1.8,0.3-10.1,0.2-11.9
							c0-1.3-0.1-2.6-0.4-4.1c-0.3-2-0.6-2.7-0.6-3.2c0-1,0.4-5,0.4-6c0-0.8-0.4-4-0.4-4.8s0-1.8,0.2-2.6s0.5-2.7,0.5-2.9l-0.1-3.1
							c0-0.5,0.2-3.4,0.2-3.9c0-1-0.7-5.3-0.7-6.3c-0.1-5.4,0.9-7.9,1.9-9.4c0.8-1.4,2.9-3.9,5.3-4.5c0.8-0.2,6.6-0.6,7.4-0.8
							c1.1-0.2,5.1-1.6,6.2-1.8c1.1-0.2,6.2-0.8,7-1c1.3-0.3,7-2.5,8.1-2.8c5.4-1.1,7.8-2.7,7.5-14.7c0-1-0.4-6.6-0.5-7.6
							c0-0.8,0.2-3.9,0.2-4.4c-0.1-5.1-3.7-6.2-12.3-4.4c-2.1,0.5-11.3,3.4-13.1,3.8c-3.8,0.8-7.8,0.6-11.6,1.4
							C854.5,472.5,839.2,477.1,838.6,477.2L838.6,477.2z"/>
					</g>
				</g>
			</g>
		</g>
	</g>
</g>
</svg>
