<svg xmlns="http://www.w3.org/2000/svg" width="156.051" height="79.482" viewBox="0 0 156.051 79.482">
  <g id="Sydney_Kings_NEG" data-name="Sydney Kings_NEG" transform="translate(78.026 39.741)">
    <g id="Sydney_Kings_NEG-2" data-name="Sydney Kings_NEG" transform="translate(-78.026 -39.741)">
      <g id="Group_1" data-name="Group 1" transform="translate(56.257 36.076)">
        <path id="Path_1" data-name="Path 1" d="M244.725,149.292,242.84,146.8l-1.763,1.368-1,5.471-.79.122.851-4.893-.456.334-1.489-2.1-.79,7.689a19.968,19.968,0,0,0,7.6-2.036l1.732-5.531Z" transform="translate(-221.505 -138.26)" fill="#ffb610"/>
        <path id="Path_2" data-name="Path 2" d="M201.361,149.074l-.76,1.125.942,4.042-.638-.274-.851-3.343L198.2,148.8l1.428,5.288a14.467,14.467,0,0,0,4.529,1.732l-1.732-1.277Z" transform="translate(-194.219 -139.652)" fill="#ffb610"/>
        <path id="Path_3" data-name="Path 3" d="M217.452,155.543l.061-6.383-1.277,1.793L214.2,149.1l.851,6.079A22.61,22.61,0,0,0,217.452,155.543Z" transform="translate(-205.356 -139.861)" fill="#ffb610"/>
        <path id="Path_4" data-name="Path 4" d="M225.73,138.191l-.243,9.817-2.887.638a22,22,0,0,0,3.708.152l.638-9.057-1.155-1.641Z" transform="translate(-211.203 -132.204)" fill="#ffb610"/>
        <path id="Path_5" data-name="Path 5" d="M211.329,123.107l-.4-2.614-3.708,2.553-2.279-2.8-2.462,1.884-2.8-3.434-3.282,3.678-3.282-2.128-1.732,2.553-2.857-2.462-.486,2.948-2.948-1.976,3.526,13.1c4.255,3.526,14.5,4.741,21.944-.061l3.86-13.434Zm-1.793,10.638c-5.41,3.374-14.649,3.617-19.664.091l-2.371-8.844,3.434,3.374,1.884-2.8,3.039,2.8,3.86-5.41,3.769,5.349,3.13-2.4,1.793,2.4,3.678-3.769Z" transform="translate(-185.1 -118.7)" fill="#ffb610"/>
      </g>
      <path id="Path_6" data-name="Path 6" d="M142.573,12.613a13.1,13.1,0,0,0-23.98,10.425c-3.465,2.279-7.142,4.924-11.063,8.085-.517-6.443-.3-9.239.821-19.026C100.145,13.342,91.391,18.54,83.7,26.351,80.389,10.82,82.973,1.763,83.307,0,76.56,1.55,59.3,7.6,50.239,31.183l-2.188.942c-9.878-5.288-19.968-6.018-30.666-3.647,5.927,7.6,12.279,19.543,12.37,27.961L.942,57.807,27.354,60.3l-9.969,2.4,10.182,2.7L4.984,67.168l23.1,2.4L16.746,72.578l9.969,2.614L0,77.563l32.429,1.459.638-4.984-4.984-1.763,7.385-.821.942-7.082-6.96-1.55,5.623-1.246c1.246-8.54-1.459-17.567-8.328-29.025a40.6,40.6,0,0,1,21.305,5.835l8.54-3.222S64.706,15.5,75.739,9.057c0,10.394,1.155,19.451,2.279,22.552l7.173,3.951a48.406,48.406,0,0,1,15.592-13.312s-.425,9.878,1.033,14.254l7.264,3.647a77.655,77.655,0,0,1,12.157-12.7A13.1,13.1,0,0,0,143.85,16.473a29.358,29.358,0,0,1,3.282-.243c13.1-.213-.729,20.789-27.05,24.861C160.231,38.113,165.307,9.452,142.573,12.613Zm-1.064.3a32.915,32.915,0,0,0-5.805,1.155v-.091a7.446,7.446,0,0,1,1.611-5.532,12.005,12.005,0,0,1,4.194,4.468ZM130.993,6.626a11.914,11.914,0,0,1,4.681.973,8.358,8.358,0,0,0-.973,1.611h0a8.631,8.631,0,0,0-.4,1h0a9.422,9.422,0,0,0-.365,3.738c.03.213.061.4.091.608-1.368.456-2.766,1-4.164,1.611l-2.735-6.048-.608-1.307h0l-.486-1.094a11.883,11.883,0,0,1,4.954-1.094ZM124.915,8.3l3.8,8.388c-1,.486-1.976.973-2.918,1.489a8.206,8.206,0,0,0-2.766-2.492,6.747,6.747,0,0,0-1.337-.547l-.4-.091h-.03l-.4-.061a6.14,6.14,0,0,0-1.277-.061A11.975,11.975,0,0,1,124.915,8.3Zm-5.9,10.3a11.975,11.975,0,0,1,.213-2.219,4.772,4.772,0,0,1,1.368-.03h.547a6.261,6.261,0,0,1,3.434,2.431,35.924,35.924,0,0,0-4.954,3.556,11.945,11.945,0,0,1-.608-3.738Zm5.714,10.212a12.005,12.005,0,0,1-4.468-4.893,34.647,34.647,0,0,1,5.106-3.769,9.24,9.24,0,0,1,.942,3.647,8.085,8.085,0,0,1-.061,1.459,16.23,16.23,0,0,1-5.653-1.033,24.779,24.779,0,0,0,4.65,3.83,6.291,6.291,0,0,1-.486.76Zm6.231,1.763a11.914,11.914,0,0,1-4.954-1.094,8.723,8.723,0,0,0,1.732-5.714,10.638,10.638,0,0,0-1.155-4.316c.881-.486,1.793-.973,2.735-1.428l2.857,6.322a21.123,21.123,0,0,1-3.1.729,9.361,9.361,0,0,1-1.337,4.073l.274.091a11.186,11.186,0,0,0,6.261-.3l.456,1.033a11.944,11.944,0,0,1-3.738.577Zm4.893-1.064-5.41-12.036h.091c1.277-.577,2.553-1.094,3.8-1.52a11,11,0,0,0,3.526,5.288,15.531,15.531,0,0,1-3.89,2.462l2.036,4.5a9.27,9.27,0,0,0,4.741-5.288,9.391,9.391,0,0,0,1.216.365,12.005,12.005,0,0,1-6.109,6.231ZM142.938,18.6a11.974,11.974,0,0,1-.425,3.13,8.808,8.808,0,0,1-6.6-6.352,34.831,34.831,0,0,1,6.109-1.337,11.914,11.914,0,0,1,.912,4.559Z" fill="#ffb610"/>
      <path id="Path_7" data-name="Path 7" d="M379.643,155.856l-.243,1.915h3.83l.243-1.915h-.821l.274-2.158,2.249,4.073h2.8l.881-6.686h.79l.243-1.884h-3.738l-.274,1.884h.79l-.274,2.128-2.067-4.012h-3.8l-.243,1.884h.76l-.638,4.772Z" transform="translate(-264.089 -103.854)" fill="#ffb610"/>
      <path id="Path_8" data-name="Path 8" d="M287.1,153.676l-.4,3.252h1.611l.061-.4a2.246,2.246,0,0,0,1.824.486c1.246-.03,3.921-.547,4.073-3.4a2.178,2.178,0,0,0-1.7-2.279c-.182-.091-2.158-.365-2.158-1s.425-.547.942-.517,1.246.486,1.246.973v.243h1.489l.365-2.887H292.9v.3a3.5,3.5,0,0,0-1.884-.456,3.64,3.64,0,0,0-2.644,1.125,3.556,3.556,0,0,0-.851,2.371,2.182,2.182,0,0,0,1.55,2.036c1.337.517,2.158.456,2.127,1s-.547.638-.973.638a1.672,1.672,0,0,1-1.489-.942l.061-.517Z" transform="translate(-199.564 -103.011)" fill="#ffb610"/>
      <path id="Path_9" data-name="Path 9" d="M133.03,195.46l5.927-5.045h1.824l.669-4.984H129.687l-.638,4.984,2.249.03-5.653,4.468.547-4.5h1.732l.638-5.015-12.005.03-.608,4.984H117.8l-1.58,12.643h-1.854l-.669,5.076h11.975l.638-5.106h-1.7l.669-5.258,3.708,5.258h-1.55l-.638,5.106h12.491l.669-5.106-1.094.03Z" transform="translate(-79.143 -129.052)" fill="#ffb610"/>
      <path id="Path_10" data-name="Path 10" d="M215.535,190.484h1.884l.638-4.984h-12.37l-.638,4.984h2.1l-1.611,12.643-2.1.03L202.8,208.2h12.34l.638-5.076-1.854-.03Z" transform="translate(-141.163 -129.121)" fill="#ffb610"/>
      <path id="Path_11" data-name="Path 11" d="M276.907,185.4l-9.574.03-.638,4.984h2.036L268,196.038l-5.288-10.607-9.726-.03-.638,5.015h1.945l-1.611,12.643-1.945-.03L250.1,208.1l9.786.03.638-5.076-2.1-.03.729-5.683,5.744,10.789h7.112l2.249-17.719h2.006Z" transform="translate(-174.087 -129.052)" fill="#ffb610"/>
      <path id="Path_12" data-name="Path 12" d="M345.762,200h2.249a2.969,2.969,0,0,1-3.13,2.31c-2.735,0-2.644-3.13-1.945-7.082s3.191-6.383,4.62-6.322,3.009,1.277,2.735,4.255h5.288l1.094-8.905H351.6l-.152,1.276s-1.459-1.55-4.924-1.641c-10.242-.213-12.613,9.3-12.978,13.981s3.374,9.787,10.486,9.6c9.756-.274,12.127-6.778,12.37-12.583h-10Z" transform="translate(-232.153 -127.999)" fill="#ffb610"/>
      <path id="Path_13" data-name="Path 13" d="M428.048,192.052l.912-7.446h-4.012l-.091.76a9.057,9.057,0,0,0-4.893-1.185c-1.033,0-4.741.274-6.808,2.887a9.214,9.214,0,0,0-2.219,6.17,5.627,5.627,0,0,0,3.981,5.228c3.4,1.307,5.562,1.155,5.471,2.614s-1.4,1.641-2.553,1.641a4.239,4.239,0,0,1-3.89-2.462l.152-1.307h-4.164L408.9,207.37h4.194l.122-1.033c.912.608,1.489,1.368,4.711,1.307s10.182-1.459,10.516-8.814c.213-4.832-3.921-5.653-4.437-5.9s-5.592-.973-5.592-2.583c0-.973,1.125-1.4,2.462-1.368s3.222,1.246,3.222,2.492l-.061.608Z" transform="translate(-284.623 -128.196)" fill="#ffb610"/>
      <path id="Path_14" data-name="Path 14" d="M413.822,155.626l-.122,2.067h8.419l.213-3.465h-2.249l-.091,1.52h-1.732l.091-1.277,1.4.03.243-2.249h-1.337l.091-1.216h1.732l-.091,1.4,2.279.03.274-3.465h-8.419l-.122,2.067.821-.03-.4,4.589Z" transform="translate(-287.965 -103.715)" fill="#ffb610"/>
      <path id="Path_15" data-name="Path 15" d="M346.922,155.626l-.122,2.036h4.954a4.984,4.984,0,0,0,5.015-4.711,4.03,4.03,0,0,0-4.1-3.951h-5.045l-.122,2.036h.821l-.365,4.559Zm4.772-4.589c1.094,0,1.641.456,1.55,2.219s-1.064,2.371-1.915,2.371Z" transform="translate(-241.397 -103.715)" fill="#ffb610"/>
      <path id="Path_16" data-name="Path 16" d="M320.267,149h-5.045l-.122,2.067h.426l2.188,3.13-.091,1.428h-1.064l-.152,2.067h5.5l.122-2.067h-.912l.122-1.428,2.735-3.161.547.03.122-2.067h-3.769l-.122,2.067.456-.03-.912,1.155-.7-1.155.517.03Z" transform="translate(-219.332 -103.715)" fill="#ffb610"/>
      <path id="Path_17" data-name="Path 17" d="M452.783,151.067l.456-.03-.912,1.155-.7-1.155.517.03.122-2.067h-5.015l-.152,2.067h.456l2.188,3.13-.122,1.428h-1.064l-.122,2.067h5.5l.122-2.067h-.912l.091-1.428,2.735-3.161.577.03.122-2.067h-3.769Z" transform="translate(-311.213 -103.715)" fill="#ffb610"/>
      <path id="Path_18" data-name="Path 18" d="M459.6,55.491a8.055,8.055,0,0,0,1.58,1.155,13.282,13.282,0,0,0-.547-4.346,6.717,6.717,0,0,1-1.033,3.191Z" transform="translate(-319.914 -36.405)" fill="#ffb610"/>
      <path id="Path_19" data-name="Path 19" d="M396.391,56.571a14.007,14.007,0,0,1,.7-2.371h-.547a13.551,13.551,0,0,0-.152,2.371Z" transform="translate(-275.914 -37.727)" fill="#ffb610"/>
      <path id="Path_20" data-name="Path 20" d="M447.743,33.2l-.243.638a10.943,10.943,0,0,1,2.219,1.094,10.641,10.641,0,0,0-1.976-1.732Z" transform="translate(-311.492 -23.11)" fill="#ffb610"/>
      <path id="Path_21" data-name="Path 21" d="M402.958,32.341,402.2,30.7a8.9,8.9,0,0,0-4.5,5.683h0l.4.061h.03l.4.091h.03a9.574,9.574,0,0,1,4.407-4.194Z" transform="translate(-276.828 -21.369)" fill="#ffb610"/>
      <path id="Path_22" data-name="Path 22" d="M416.3,27.625h0l.577,1.307.182.4a13.251,13.251,0,0,1,7.021-.274h0a8.634,8.634,0,0,1,.4-1h0A10.881,10.881,0,0,0,416.3,27.625Z" transform="translate(-289.774 -18.811)" fill="#ffb610"/>
    </g>
  </g>
</svg>
